{
.appVersion = "3058";
customParameters = (
{
name = license;
value = "SIL OpenFont License";
},
{
name = Axes;
value = (
{
Name = Weight;
Tag = wght;
},
{
Name = Width;
Tag = wdth;
}
);
}
);
date = "2020-04-20 10:57:36 +0000";
designer = "Nunzio Mazzaferro";
designerURL = "http://collletttivo.it";
familyName = Mattone;
featurePrefixes = (
{
automatic = 1;
code = "languagesystem DFLT dflt;\012\012languagesystem latn dflt;\012languagesystem latn AZE;\012languagesystem latn CRT;\012languagesystem latn KAZ;\012languagesystem latn TAT;\012languagesystem latn TRK;\012languagesystem latn ROM;\012languagesystem latn MOL;\012languagesystem latn NLD;\012";
name = Languagesystems;
}
);
features = (
{
automatic = 1;
code = "feature locl;\012feature ss01;\012";
name = aalt;
},
{
automatic = 1;
code = "lookup ccmp_Other_1 {\012	@CombiningTopAccents = [acutecomb brevecomb caroncomb circumflexcomb commaturnedabovecomb dieresiscomb dotaccentcomb gravecomb hungarumlautcomb macroncomb ringcomb tildecomb];\012	@CombiningNonTopAccents = [cedillacomb ogonekcomb];\012	sub [i j]' @CombiningTopAccents by [idotless jdotless];\012	sub [i j]' @CombiningNonTopAccents @CombiningTopAccents by [idotless jdotless];\012} ccmp_Other_1;\012";
name = ccmp;
},
{
automatic = 1;

glyphs = (
{
color = 3;
glyphname = A;
lastChange = "2021-05-09 12:20:11 +0000";
layers = (
{
anchors = (
{
name = bottom;
position = "{484, 0}";
},
{
name = ogonek;
position = "{937, 7}";
},
{
name = top;
position = "{484, 750}";
}
);
layerId = "6BCBDBF6-8315-4194-A290-F71994A92467";
paths = (
{
closed = 1;
nodes = (
"482 611 LINE",
"774 0 LINE",
"952 0 LINE",
"565 750 LINE",
"399 750 LINE",
"15 0 LINE",
"190 0 LINE"
);
},
{
closed = 1;
nodes = (
"252 180 LINE",
"705 180 LINE",
"705 305 LINE",
"262 305 LINE"
);
}
);
width = 968;
},
{
associatedMasterId = "6BCBDBF6-8315-4194-A290-F71994A92467";
layerId = "697832EB-163A-429C-8980-FAB6860436DF";
name = foreground;
paths = (
{
closed = 1;
nodes = (
"487 595 LINE",
"789 0 LINE",
"968 0 LINE",
"576 750 LINE",
"400 750 LINE",
"10 0 LINE",
"185 0 LINE"
);
},
{
closed = 1;
nodes = (
"267 183 LINE",
"710 183 LINE",
"710 313 LINE",
"267 313 LINE"
);
}
);
width = 978;
}
);
leftKerningGroup = A;
rightKerningGroup = A;
unicode = 0041;
},
{
glyphname = Aogonek;
lastChange = "2021-05-02 21:54:42 +0000";
layers = (
{
anchors = (
{
name = _ogonek;
position = "{942, 7}";
}
);
components = (
{
name = A;
}
);
layerId = "6BCBDBF6-8315-4194-A290-F71994A92467";
paths = (
{
closed = 1;
nodes = (
"814 21 LINE",
"736 -20 OFFCURVE",
"687 -85 OFFCURVE",
"687 -149 CURVE SMOOTH",
"687 -246 OFFCURVE",
"781 -291 OFFCURVE",
"932 -266 CURVE",
"932 -163 LINE",
"852 -181 OFFCURVE",
"801 -163 OFFCURVE",
"801 -119 CURVE SMOOTH",
"801 -76 OFFCURVE",
"853 -22 OFFCURVE",
"958 0 CURVE"
);
}
);
width = 978;
}
);
leftKerningGroup = A;
rightKerningGroup = A;
unicode = 0104;
},
{
glyphname = AE;
lastChange = "2021-05-02 21:54:42 +0000";
layers = (
{
anchors = (
{
name = bottom;
position = "{602, 0}";
},
{
name = ogonek;
position = "{1055, 7}";
},
{
name = top;
position = "{602, 750}";
},
{
name = topleft;
position = "{133, 750}";
}
);
layerId = "6BCBDBF6-8315-4194-A290-F71994A92467";
paths = (
{
closed = 1;
nodes = (
"490 620 LINE",
"639 620 LINE",
"688 750 LINE",
"398 750 LINE",
"10 0 LINE",
"188 0 LINE"
);
},
{
closed = 1;
nodes = (
"270 233 LINE",
"683 233 LINE",
"683 363 LINE",
"270 363 LINE"
);
},
{
closed = 1;
nodes = (
"1286 0 LINE",
"1286 130 LINE",
"763 130 LINE",
"763 314 LINE",
"1224 314 LINE",
"1224 444 LINE",
"763 444 LINE",
"763 620 LINE",
"1278 620 LINE",
"1278 750 LINE",
"603 750 LINE",
"603 0 LINE"
);
}
);
width = 1331;
}
);
leftKerningGroup = A;
rightKerningGroup = E;
rightMetricsKey = E;
unicode = 00C6;
},
{
color = 3;
glyphname = B;
lastChange = "2021-05-06 20:01:47 +0000";
layers = (
{
anchors = (
{
name = bottom;
position = "{426, 0}";
},
{
name = top;
position = "{426, 750}";
}
);
background = {
paths = (
{
closed = 1;
nodes = (
"580 0 LINE SMOOTH",
"747 0 OFFCURVE",
"838 66 OFFCURVE",
"838 186 CURVE SMOOTH",
"838 300 OFFCURVE",
"757 383 OFFCURVE",
"644 385 CURVE",
"743 393 OFFCURVE",
"810 464 OFFCURVE",
"810 563 CURVE SMOOTH",
"810 683 OFFCURVE",
"712 750 OFFCURVE",
"534 750 CURVE SMOOTH",
"54 750 LINE",
"54 0 LINE"
);
},
{
closed = 1;
nodes = (
"214 620 LINE",
"516 620 LINE SMOOTH",
"600 620 OFFCURVE",
"645 589 OFFCURVE",
"645 530 CURVE SMOOTH",
"645 473 OFFCURVE",
"601 442 OFFCURVE",
"520 442 CURVE SMOOTH",
"214 442 LINE"
);
},
{
closed = 1;
nodes = (
"214 319 LINE",
"524 319 LINE SMOOTH",
"618 319 OFFCURVE",
"673 282 OFFCURVE",
"673 219 CURVE SMOOTH",
"673 164 OFFCURVE",
"631 130 OFFCURVE",
"562 130 CURVE SMOOTH",
"214 130 LINE"
);
}
);
};
guideLines = (
{
position = "{379, 222}";
}
);
layerId = "6BCBDBF6-8315-4194-A290-F71994A92467";
paths = (
{
closed = 1;
nodes = (
"580 0 LINE SMOOTH",
"747 0 OFFCURVE",
"838 76 OFFCURVE",
"838 196 CURVE SMOOTH",
"838 305 OFFCURVE",
"762 383 OFFCURVE",
"665 385 CURVE",
"748 394 OFFCURVE",
"810 460 OFFCURVE",
"810 553 CURVE SMOOTH",
"810 673 OFFCURVE",
"712 750 OFFCURVE",
"534 750 CURVE SMOOTH",
"70 750 LINE",
"70 0 LINE"
);
},
{
closed = 1;
nodes = (
"220 625 LINE",
"516 625 LINE SMOOTH",
"600 625 OFFCURVE",
"645 594 OFFCURVE",
"645 530 CURVE SMOOTH",
"645 473 OFFCURVE",
"601 442 OFFCURVE",
"520 442 CURVE SMOOTH",
"220 442 LINE"
);
},
{
closed = 1;
nodes = (
"220 319 LINE",
"524 319 LINE SMOOTH",
"618 319 OFFCURVE",
"673 282 OFFCURVE",
"673 219 CURVE SMOOTH",
"673 161 OFFCURVE",
"631 127 OFFCURVE",
"562 127 CURVE SMOOTH",
"220 127 LINE"
);
}
);
width = 868;
},
{
associatedMasterId = "6BCBDBF6-8315-4194-A290-F71994A92467";
guideLines = (
{
position = "{395, 222}";
}
);
layerId = "0B912536-1948-490B-A378-AA6B4ECC8F78";
name = foreground;
paths = (
{
closed = 1;
nodes = (
"596 0 LINE SMOOTH",
"763 0 OFFCURVE",
"854 76 OFFCURVE",
"854 196 CURVE SMOOTH",
"854 305 OFFCURVE",
"778 383 OFFCURVE",
"681 385 CURVE",
"764 394 OFFCURVE",
"826 460 OFFCURVE",
"826 553 CURVE SMOOTH",
"826 673 OFFCURVE",
"728 750 OFFCURVE",
"550 750 CURVE SMOOTH",
"70 750 LINE",
"70 0 LINE"
);
},
{
closed = 1;
nodes = (
"230 620 LINE",
"532 620 LINE SMOOTH",
"616 620 OFFCURVE",
"661 589 OFFCURVE",
"661 530 CURVE SMOOTH",
"661 473 OFFCURVE",
"617 442 OFFCURVE",
"536 442 CURVE SMOOTH",
"230 442 LINE"
);
},
{
closed = 1;
nodes = (
"230 319 LINE",
"540 319 LINE SMOOTH",
"634 319 OFFCURVE",
"689 282 OFFCURVE",
"689 219 CURVE SMOOTH",
"689 164 OFFCURVE",
"647 130 OFFCURVE",
"578 130 CURVE SMOOTH",
"230 130 LINE"
);
}
);
width = 894;
}
);
leftKerningGroup = H;
leftMetricsKey = H;
rightKerningGroup = B;
unicode = 0042;
},
{
color = 3;
glyphname = C;
lastChange = "2021-05-09 12:19:17 +0000";
layers = (
{
anchors = (
{
name = bottom;
position = "{427, 0}";
},
{
name = top;
position = "{467, 750}";
}
);
background = {
paths = (
{
closed = 1;
nodes = (
"788 714 LINE",
"714 748 OFFCURVE",
"621 770 OFFCURVE",
"514 770 CURVE SMOOTH",
"229 770 OFFCURVE",
"55 621 OFFCURVE",
"55 377 CURVE SMOOTH",
"55 129 OFFCURVE",
"229 -21 OFFCURVE",
"514 -21 CURVE SMOOTH",
"617 -21 OFFCURVE",
"727 1 OFFCURVE",
"800 35 CURVE",
"800 181 LINE",
"742 143 OFFCURVE",
"632 109 OFFCURVE",
"524 109 CURVE SMOOTH",
"333 109 OFFCURVE",
"215 207 OFFCURVE",
"215 377 CURVE SMOOTH",
"215 542 OFFCURVE",
"333 640 OFFCURVE",
"524 640 CURVE SMOOTH",
"637 640 OFFCURVE",
"727 606 OFFCURVE",
"788 566 CURVE"
);
}
);
};
layerId = "6BCBDBF6-8315-4194-A290-F71994A92467";
paths = (
{
closed = 1;
nodes = (
"778 711 LINE",
"704 745 OFFCURVE",
"611 767 OFFCURVE",
"504 767 CURVE SMOOTH",
"219 767 OFFCURVE",
"45 618 OFFCURVE",
"45 375 CURVE SMOOTH",
"45 132 OFFCURVE",
"219 -18 OFFCURVE",
"507 -18 CURVE SMOOTH",
"606 -18 OFFCURVE",
"704 -2 OFFCURVE",
"792 38 CURVE",
"801 182 LINE",
"710 138 OFFCURVE",
"620 115 OFFCURVE",
"525 115 CURVE SMOOTH",
"323 115 OFFCURVE",
"210 205 OFFCURVE",
"210 374 CURVE SMOOTH",
"210 547 OFFCURVE",
"317 639 OFFCURVE",
"514 639 CURVE SMOOTH",
"614 639 OFFCURVE",
"706 612 OFFCURVE",
"787 571 CURVE"
);
}
);
width = 836;
},
{
associatedMasterId = "6BCBDBF6-8315-4194-A290-F71994A92467";
layerId = "6F13AF44-F1A6-4E71-85B3-0AEBE3DDAEAB";
name = foreground;
paths = (
{
closed = 1;
nodes = (
"778 714 LINE",
"704 748 OFFCURVE",
"611 770 OFFCURVE",
"504 770 CURVE SMOOTH",
"219 770 OFFCURVE",
"45 621 OFFCURVE",
"45 375 CURVE SMOOTH",
"45 129 OFFCURVE",
"219 -21 OFFCURVE",
"504 -21 CURVE SMOOTH",
"597 -21 OFFCURVE",
"704 -5 OFFCURVE",
"790 35 CURVE",
"803 176 LINE",
"714 134 OFFCURVE",
"603 109 OFFCURVE",
"508 109 CURVE SMOOTH",
"326.053 109 OFFCURVE",
"210 207 OFFCURVE",
"210 374 CURVE SMOOTH",
"210 543 OFFCURVE",
"326.133 642 OFFCURVE",
"521 642 CURVE SMOOTH",
"611 642 OFFCURVE",
"695 622 OFFCURVE",
"787 564 CURVE"
);
}
);
width = 843;
}
);
leftKerningGroup = O;
leftMetricsKey = O;
rightKerningGroup = C;
unicode = 0043;
},
{
color = 3;
glyphname = D;
lastChange = "2021-05-02 21:54:42 +0000";
layers = (
{
anchors = (
{
name = bottom;
position = "{430, 0}";
},
{
name = center;
position = "{430, 375}";
},
{
name = top;
position = "{412, 740}";
}
);
layerId = "6BCBDBF6-8315-4194-A290-F71994A92467";
paths = (
{
closed = 1;
nodes = (
"444 0 LINE SMOOTH",
"685 0 OFFCURVE",
"845 150 OFFCURVE",
"845 375 CURVE SMOOTH",
"845 600 OFFCURVE",
"685 750 OFFCURVE",
"444 750 CURVE SMOOTH",
"70 750 LINE",
"70 0 LINE"
);
},
{
closed = 1;
nodes = (
"230 620 LINE",
"440 620 LINE SMOOTH",
"590 620 OFFCURVE",
"685 521 OFFCURVE",
"685 371 CURVE SMOOTH",
"685 223 OFFCURVE",
"592 130 OFFCURVE",
"440 130 CURVE SMOOTH",
"230 130 LINE"
);
}
);
width = 890;
},
{
associatedMasterId = "6BCBDBF6-8315-4194-A290-F71994A92467";
layerId = "86DA962B-1FCA-4B21-B43D-1508AD8E30DE";
name = foreground;
paths = (
{
closed = 1;
nodes = (
"474 0 LINE SMOOTH",
"715 0 OFFCURVE",
"875 150 OFFCURVE",
"875 375 CURVE SMOOTH",
"875 600 OFFCURVE",
"715 750 OFFCURVE",
"474 750 CURVE SMOOTH",
"70 750 LINE",
"70 0 LINE"
);
},
{
closed = 1;
nodes = (
"230 620 LINE",
"470 620 LINE SMOOTH",
"620 620 OFFCURVE",
"715 521 OFFCURVE",
"715 371 CURVE SMOOTH",
"715 223 OFFCURVE",
"622 130 OFFCURVE",
"470 130 CURVE SMOOTH",
"230 130 LINE"
);
}
);
width = 930;
}
);
leftKerningGroup = H;
leftMetricsKey = H;
rightKerningGroup = O;
rightMetricsKey = O;
unicode = 0044;
},
{
glyphname = Eth;
lastChange = "2021-05-02 21:54:42 +0000";
layers = (
{
components = (
{
name = D;
}
);
layerId = "6BCBDBF6-8315-4194-A290-F71994A92467";
paths = (
{
closed = 1;
nodes = (
"476 324 LINE",
"476 444 LINE",
"0 444 LINE",
"0 323 LINE"
);
}
);
width = 890;
}
);
leftKerningGroup = H;
rightKerningGroup = O;
rightMetricsKey = D;
unicode = 00D0;
},
{
color = 3;
glyphname = E;
lastChange = "2021-05-02 21:54:42 +0000";
layers = (
{
anchors = (
{
name = bottom;
position = "{402, 0}";
},
{
name = ogonek;
position = "{748, 7}";
},
{
name = top;
position = "{402, 750}";
},
{
name = topleft;
position = "{20, 750}";
}
);
layerId = "6BCBDBF6-8315-4194-A290-F71994A92467";
paths = (
{
closed = 1;
nodes = (
"753 0 LINE",
"753 130 LINE",
"230 130 LINE",
"230 318 LINE",
"691 318 LINE",
"691 444 LINE",
"230 444 LINE",
"230 620 LINE",
"745 620 LINE",
"745 750 LINE",
"70 750 LINE",
"70 0 LINE"
);
}
);
width = 798;
},
{
associatedMasterId = "6BCBDBF6-8315-4194-A290-F71994A92467";
layerId = "52E13490-14C7-40A0-8056-84C98BC82FBD";
name = foreground;
paths = (
{
closed = 1;
nodes = (
"753 0 LINE",
"753 130 LINE",
"230 130 LINE",
"230 314 LINE",
"691 314 LINE",
"691 444 LINE",
"230 444 LINE",
"230 620 LINE",
"745 620 LINE",
"745 750 LINE",
"70 750 LINE",
"70 0 LINE"
);
}
);
width = 803;
}
);
leftKerningGroup = H;
leftMetricsKey = H;
rightKerningGroup = E;
unicode = 0045;
},
{
color = 3;
glyphname = F;
lastChange = "2021-05-02 21:54:42 +0000";
layers = (
{
anchors = (
{
name = bottom;
position = "{377, 0}";
},
{
name = top;
position = "{377, 750}";
}
);
layerId = "6BCBDBF6-8315-4194-A290-F71994A92467";
paths = (
{
closed = 1;
nodes = (
"230 0 LINE",
"230 310 LINE",
"670 310 LINE",
"670 440 LINE",
"230 440 LINE",
"230 620 LINE",
"724 620 LINE",
"724 750 LINE",
"70 750 LINE",
"70 0 LINE"
);
}
);
width = 744;
},
{
associatedMasterId = "6BCBDBF6-8315-4194-A290-F71994A92467";
layerId = "58AA2E78-C827-409E-A00A-3B183D685FA2";
name = foreground;
paths = (
{
closed = 1;
nodes = (
"230 0 LINE",
"230 310 LINE",
"680 310 LINE",
"680 440 LINE",
"230 440 LINE",
"230 620 LINE",
"734 620 LINE",
"734 750 LINE",
"70 750 LINE",
"70 0 LINE"
);
}
);
width = 754;
}
);
leftKerningGroup = H;
leftMetricsKey = E;
rightKerningGroup = F;
unicode = 0046;
},
{
color = 3;
glyphname = G;
lastChange = "2021-05-02 21:54:42 +0000";
layers = (
{
anchors = (
{
name = bottom;
position = "{521, 0}";
},
{
name = top;
position = "{458, 750}";
}
);
layerId = "6BCBDBF6-8315-4194-A290-F71994A92467";
paths = (
{
closed = 1;
nodes = (
"45 132 OFFCURVE",
"226 -18 OFFCURVE",
"523 -18 CURVE SMOOTH",
"656 -18 OFFCURVE",
"778 15 OFFCURVE",
"855 73 CURVE",
"855 425 LINE",
"488 425 LINE",
"488 300 LINE",
"705 300 LINE",
"705 142 LINE",
"653 125 OFFCURVE",
"594 116 OFFCURVE",
"534 116 CURVE SMOOTH",
"318 116 OFFCURVE",
"205 206 OFFCURVE",
"205 376 CURVE SMOOTH",
"205 548 OFFCURVE",
"321 639 OFFCURVE",
"535 639 CURVE SMOOTH",
"652 639 OFFCURVE",
"756 612 OFFCURVE",
"824 576 CURVE",
"813 719 LINE",
"741 747 OFFCURVE",
"641 767 OFFCURVE",
"529 767 CURVE SMOOTH",
"228 767 OFFCURVE",
"45 618 OFFCURVE",
"45 376 CURVE SMOOTH"
);
}
);
width = 905;
},
{
associatedMasterId = "6BCBDBF6-8315-4194-A290-F71994A92467";
layerId = "1197D2B9-ED60-4443-BEE4-5A8BA0AA7117";
name = foreground;
paths = (
{
closed = 1;
nodes = (
"45 129 OFFCURVE",
"226 -21 OFFCURVE",
"523 -21 CURVE SMOOTH",
"648 -21 OFFCURVE",
"773 9 OFFCURVE",
"855 70 CURVE",
"855 425 LINE",
"488 425 LINE",
"488 295 LINE",
"705 295 LINE",
"705 139 LINE",
"656 123 OFFCURVE",
"597 113 OFFCURVE",
"534 113 CURVE SMOOTH",
"330 113 OFFCURVE",
"205 210 OFFCURVE",
"205 376 CURVE SMOOTH",
"205 542 OFFCURVE",
"334 640 OFFCURVE",
"543 640 CURVE SMOOTH",
"649 640 OFFCURVE",
"754 614 OFFCURVE",
"824 567 CURVE",
"813 712 LINE",
"726 757 OFFCURVE",
"618 770 OFFCURVE",
"529 770 CURVE SMOOTH",
"228 770 OFFCURVE",
"45 621 OFFCURVE",
"45 376 CURVE SMOOTH"
);
}
);
width = 895;
}
);
leftKerningGroup = O;
leftMetricsKey = O;
rightKerningGroup = G;
unicode = 0047;
},
{
color = 3;
glyphname = H;
lastChange = "2021-05-09 11:48:39 +0000";
layers = (
{
anchors = (
{
name = bottom;
position = "{466, 0}";
},
{
name = center;
position = "{466, 375}";
},
{
name = top;
position = "{466, 750}";
},
{
name = topleft;
position = "{20, 750}";
}
);
layerId = "6BCBDBF6-8315-4194-A290-F71994A92467";
paths = (
{
closed = 1;
nodes = (
"230 0 LINE",
"230 313 LINE",
"702 313 LINE",
"702 0 LINE",
"862 0 LINE",
"862 750 LINE",
"702 750 LINE",
"702 443 LINE",
"230 443 LINE",
"230 750 LINE",
"70 750 LINE",
"70 0 LINE"
);
}
);
width = 932;
},
{
associatedMasterId = "6BCBDBF6-8315-4194-A290-F71994A92467";
layerId = "455D1B1E-E55D-4C40-90A2-AD581D1E757E";
name = foreground;
paths = (
{
closed = 1;
nodes = (
"230 0 LINE",
"230 313 LINE",
"702 313 LINE",
"702 0 LINE",
"862 0 LINE",
"862 750 LINE",
"702 750 LINE",
"702 443 LINE",
"230 443 LINE",
"230 750 LINE",
"70 750 LINE",
"70 0 LINE"
);
}
);
width = 932;
}
);
leftKerningGroup = H;
rightKerningGroup = H;
unicode = 0048;
},
{
glyphname = Hbar;
lastChange = "2021-05-02 21:54:42 +0000";
layers = (
{
layerId = "6BCBDBF6-8315-4194-A290-F71994A92467";
paths = (
{
closed = 1;
nodes = (
"230 0 LINE",
"230 313 LINE",
"702 313 LINE",
"702 0 LINE",
"862 0 LINE",
"862 750 LINE",
"702 750 LINE",
"702 443 LINE",
"230 443 LINE",
"230 750 LINE",
"70 750 LINE",
"70 0 LINE"
);
},
{
closed = 1;
nodes = (
"937 554 LINE",
"937 663 LINE",
"-5 663 LINE",
"-5 553 LINE"
);
}
);
width = 932;
}
);
leftKerningGroup = H;
rightKerningGroup = H;
unicode = 0126;
},
{
color = 3;
glyphname = I;
lastChange = "2021-05-02 21:54:42 +0000";
layers = (
{
anchors = (
{
name = bottom;
position = "{150, 0}";
},
{
name = ogonek;
position = "{225, 7}";
},
{
name = top;
position = "{150, 750}";
},
{
name = topleft;
position = "{20, 750}";
}
);
layerId = "6BCBDBF6-8315-4194-A290-F71994A92467";
paths = (
{
closed = 1;
nodes = (
"230 0 LINE",
"230 750 LINE",
"70 750 LINE",
"70 0 LINE"
);
}
);
width = 300;
},
{
associatedMasterId = "6BCBDBF6-8315-4194-A290-F71994A92467";
layerId = "5BCDC843-98AD-46E8-9C3C-0E78BE75F217";
name = foreground;
paths = (
{
closed = 1;
nodes = (
"242 0 LINE",
"242 750 LINE",
"82 750 LINE",
"82 0 LINE"
);
}
);
width = 324;
}
);
leftKerningGroup = H;
leftMetricsKey = H;
rightKerningGroup = H;
rightMetricsKey = H;
unicode = 0049;
},
{
color = 3;
glyphname = J;
lastChange = "2021-05-02 21:54:42 +0000";
layers = (
{
anchors = (
{
name = bottom;
position = "{322, 0}";
},
{
name = top;
position = "{435, 750}";
}
);
background = {
paths = (
{
closed = 1;
nodes = (
"78 -9 OFFCURVE",
"145 -21 OFFCURVE",
"227 -21 CURVE SMOOTH",
"465 -21 OFFCURVE",
"609 80 OFFCURVE",
"609 260 CURVE SMOOTH",
"609 750 LINE",
"449 750 LINE",
"449 262 LINE SMOOTH",
"449 166 OFFCURVE",
"345 103 OFFCURVE",
"198 103 CURVE SMOOTH",
"132 103 OFFCURVE",
"64 115 OFFCURVE",
"0 135 CURVE",
"0 15 LINE"
);
}
);
};
layerId = "6BCBDBF6-8315-4194-A290-F71994A92467";
paths = (
{
closed = 1;
nodes = (
"93 -9 OFFCURVE",
"166 -21 OFFCURVE",
"248 -21 CURVE SMOOTH",
"476 -21 OFFCURVE",
"614 69 OFFCURVE",
"614 260 CURVE SMOOTH",
"614 750 LINE",
"454 750 LINE",
"454 264 LINE SMOOTH",
"454 173 OFFCURVE",
"371 115 OFFCURVE",
"213 115 CURVE SMOOTH",
"155 115 OFFCURVE",
"95 123 OFFCURVE",
"35 142 CURVE",
"35 10 LINE"
);
},
{
closed = 1;
nodes = (
"186 625 LINE",
"544 625 LINE",
"544 750 LINE",
"186 750 LINE"
);
}
);
width = 679;
},
{
associatedMasterId = "6BCBDBF6-8315-4194-A290-F71994A92467";
layerId = "E7A2DD3C-444B-4F4D-BBC5-906E1B6D35AC";
name = foreground;
paths = (
{
closed = 1;
nodes = (
"108 -9 OFFCURVE",
"175 -21 OFFCURVE",
"257 -21 CURVE SMOOTH",
"495 -21 OFFCURVE",
"639 80 OFFCURVE",
"639 260 CURVE SMOOTH",
"639 750 LINE",
"479 750 LINE",
"479 268 LINE SMOOTH",
"479 172 OFFCURVE",
"375 109 OFFCURVE",
"228 109 CURVE SMOOTH",
"159 109 OFFCURVE",
"87 120 OFFCURVE",
"20 141 CURVE",
"30 15 LINE"
);
}
);
width = 709;
},
{
anchors = (
{
name = bottom;
position = "{357, 0}";
},
{
name = top;
position = "{572, 750}";
}
);
associatedMasterId = "6BCBDBF6-8315-4194-A290-F71994A92467";
background = {
paths = (
{
closed = 1;
nodes = (
"113 -9 OFFCURVE",
"180 -21 OFFCURVE",
"262 -21 CURVE SMOOTH",
"500 -21 OFFCURVE",
"644 80 OFFCURVE",
"644 260 CURVE SMOOTH",
"644 750 LINE",
"484 750 LINE",
"484 262 LINE SMOOTH",
"484 166 OFFCURVE",
"380 103 OFFCURVE",
"233 103 CURVE SMOOTH",
"167 103 OFFCURVE",
"99 115 OFFCURVE",
"35 135 CURVE",
"35 15 LINE"
);
}
);
};
layerId = "926FFB61-C86A-4F7B-B2AD-EA84D91FDBC5";
name = "3 Feb 21, 13:43";
paths = (
{
closed = 1;
nodes = (
"113 -9 OFFCURVE",
"180 -21 OFFCURVE",
"262 -21 CURVE SMOOTH",
"500 -21 OFFCURVE",
"644 80 OFFCURVE",
"644 260 CURVE SMOOTH",
"644 750 LINE",
"484 750 LINE",
"484 258 LINE SMOOTH",
"484 162 OFFCURVE",
"380 109 OFFCURVE",
"233 109 CURVE SMOOTH",
"164 109 OFFCURVE",
"92 120 OFFCURVE",
"25 147 CURVE",
"35 15 LINE"
);
}
);
width = 714;
}
);
leftKerningGroup = J;
rightKerningGroup = J;
unicode = 004A;
},
{
color = 3;
glyphname = K;
lastChange = "2021-05-02 21:54:42 +0000";
layers = (
{
anchors = (
{
name = bottom;
position = "{433, 0}";
},
{
name = top;
position = "{447, 750}";
}
);
layerId = "6BCBDBF6-8315-4194-A290-F71994A92467";
paths = (
{
closed = 1;
nodes = (
"230 0 LINE",
"230 750 LINE",
"70 750 LINE",
"70 0 LINE"
);
},
{
closed = 1;
nodes = (
"857 0 LINE",
"432 444 LINE",
"412 474 LINE",
"263 412 LINE",
"649 0 LINE"
);
},
{
closed = 1;
nodes = (
"165 385 LINE",
"207 255 LINE",
"362 363 LINE",
"389 387 LINE",
"847 750 LINE",
"638 750 LINE"
);
}
);
width = 877;
},
{
associatedMasterId = "6BCBDBF6-8315-4194-A290-F71994A92467";
layerId = "098440A0-50DD-4A4F-9BA4-6DCF3EFF94F3";
name = foreground;
paths = (
{
closed = 1;
nodes = (
"242 0 LINE",
"242 750 LINE",
"82 750 LINE",
"82 0 LINE"
);
},
{
closed = 1;
nodes = (
"885 0 LINE",
"465 446 LINE",
"299 417 LINE",
"685 0 LINE"
);
},
{
closed = 1;
nodes = (
"148 320 LINE",
"225 219 LINE",
"861 750 LINE",
"661 750 LINE"
);
}
);
width = 931;
}
);
leftKerningGroup = H;
leftMetricsKey = H;
rightKerningGroup = K;
unicode = 004B;
},
{
color = 3;
glyphname = L;
lastChange = "2021-05-02 21:54:42 +0000";
layers = (
{
anchors = (
{
name = bottom;
position = "{375, 0}";
},
{
name = center;
position = "{375, 375}";
},
{
name = top;
position = "{176, 750}";
},
{
name = topright;
position = "{240, 770}";
}
);
layerId = "6BCBDBF6-8315-4194-A290-F71994A92467";
paths = (
{
closed = 1;
nodes = (
"230 0 LINE",
"700 0 LINE",
"700 130 LINE",
"230 130 LINE",
"230 750 LINE",
"70 750 LINE",
"70 0 LINE"
);
}
);
width = 740;
},
{
associatedMasterId = "6BCBDBF6-8315-4194-A290-F71994A92467";
layerId = "48D46DA8-1553-49FB-AFF2-EF46CFB97878";
name = foreground;
paths = (
{
closed = 1;
nodes = (
"230 0 LINE",
"700 0 LINE",
"700 130 LINE",
"230 130 LINE",
"230 750 LINE",
"70 750 LINE",
"70 0 LINE"
);
}
);
width = 750;
}
);
leftKerningGroup = H;
leftMetricsKey = H;
rightKerningGroup = L;
unicode = 004C;
},
{
glyphname = Lslash;
lastChange = "2021-05-02 21:54:42 +0000";
layers = (
{
layerId = "6BCBDBF6-8315-4194-A290-F71994A92467";
paths = (
{
closed = 1;
nodes = (
"230 0 LINE",
"700 0 LINE",
"700 130 LINE",
"230 130 LINE",
"230 750 LINE",
"70 750 LINE",
"70 0 LINE"
);
},
{
closed = 1;
nodes = (
"-5 284 LINE",
"449 469 LINE",
"449 598 LINE",
"-5 414 LINE"
);
}
);
width = 740;
}
);
leftKerningGroup = H;
rightKerningGroup = L;
rightMetricsKey = L;
unicode = 0141;
},
{
color = 3;
glyphname = M;
lastChange = "2021-05-03 00:32:38 +0000";
layers = (
{
anchors = (
{
name = bottom;
position = "{523, 0}";
},
{
name = top;
position = "{523, 750}";
}
);
layerId = "6BCBDBF6-8315-4194-A290-F71994A92467";
paths = (
{
closed = 1;
nodes = (
"225 0 LINE",
"225 590 LINE",
"198 594 LINE",
"450 0 LINE",
"596 0 LINE",
"847 594 LINE",
"821 590 LINE",
"821 0 LINE",
"976 0 LINE",
"976 750 LINE",
"781 750 LINE",
"523 161 LINE",
"264 750 LINE",
"70 750 LINE",
"70 0 LINE"
);
}
);
width = 1046;
},
{
associatedMasterId = "6BCBDBF6-8315-4194-A290-F71994A92467";
layerId = "D7BA5304-6D57-43F6-BDB7-259F1D7C130B";
name = foreground;
paths = (
{
closed = 1;
nodes = (
"225 0 LINE",
"225 513 LINE",
"470 0 LINE",
"616 0 LINE",
"860 513 LINE",
"860 0 LINE",
"1016 0 LINE",
"1016 750 LINE",
"821 750 LINE",
"543 161 LINE",
"264 750 LINE",
"70 750 LINE",
"70 0 LINE"
);
}
);
width = 1086;
},
{
anchors = (
{
name = bottom;
position = "{543, 0}";
},
{
name = top;
position = "{543, 750}";
}
);
associatedMasterId = "6BCBDBF6-8315-4194-A290-F71994A92467";
layerId = "42AADCEC-45AB-4145-A14B-645D538153A9";
name = "9 Feb 21, 22:33";
paths = (
{
closed = 1;
nodes = (
"225 0 LINE",
"225 580 LINE",
"198 574 LINE",
"470 0 LINE",
"616 0 LINE",
"887 574 LINE",
"860 580 LINE",
"860 0 LINE",
"1016 0 LINE",
"1016 750 LINE",
"821 750 LINE",
"543 161 LINE",
"264 750 LINE",
"70 750 LINE",
"70 0 LINE"
);
}
);
width = 1086;
}
);
leftKerningGroup = M;
rightKerningGroup = M;
unicode = 004D;
},
{
color = 3;
glyphname = N;
lastChange = "2021-05-02 21:54:42 +0000";
layers = (
{
anchors = (
{
name = bottom;
position = "{466, 0}";
},
{
name = top;
position = "{476, 750}";
}
);
layerId = "6BCBDBF6-8315-4194-A290-F71994A92467";
paths = (
{
closed = 1;
nodes = (
"230 0 LINE",
"230 546 LINE",
"722 0 LINE",
"882 0 LINE",
"882 750 LINE",
"722 750 LINE",
"722 204 LINE",
"230 750 LINE",
"70 750 LINE",
"70 0 LINE"
);
}
);
width = 952;
},
{
associatedMasterId = "6BCBDBF6-8315-4194-A290-F71994A92467";
layerId = "E4CD88F4-33E6-49EA-A615-963C47427C7C";
name = foreground;
paths = (
{
closed = 1;
nodes = (
"230 0 LINE",
"230 546 LINE",
"722 0 LINE",
"882 0 LINE",
"882 750 LINE",
"722 750 LINE",
"722 204 LINE",
"230 750 LINE",
"70 750 LINE",
"70 0 LINE"
);
}
);
width = 952;
}
);
leftKerningGroup = H;
leftMetricsKey = H;
rightKerningGroup = H;
rightMetricsKey = H;
unicode = 004E;
},
{
color = 3;
glyphname = O;
lastChange = "2021-05-06 19:24:17 +0000";
layers = (
{
anchors = (
{
name = bottom;
position = "{490, 0}";
},
{
name = center;
position = "{490, 375}";
},
{
name = ogonek;
position = "{882, 10}";
},
{
name = top;
position = "{490, 750}";
},
{
name = topleft;
position = "{20, 750}";
},
{
name = topright;
position = "{960, 750}";
}
);
layerId = "6BCBDBF6-8315-4194-A290-F71994A92467";
paths = (
{
closed = 1;
nodes = (
"762 -18 OFFCURVE",
"935 137 OFFCURVE",
"935 375 CURVE SMOOTH",
"935 612 OFFCURVE",
"762 767 OFFCURVE",
"490 767 CURVE SMOOTH",
"218 767 OFFCURVE",
"45 612 OFFCURVE",
"45 375 CURVE SMOOTH",
"45 137 OFFCURVE",
"218 -18 OFFCURVE",
"490 -18 CURVE SMOOTH"
);
},
{
closed = 1;
nodes = (
"317 114 OFFCURVE",
"205 216 OFFCURVE",
"205 375 CURVE SMOOTH",
"205 534 OFFCURVE",
"317 637 OFFCURVE",
"490 637 CURVE SMOOTH",
"663 637 OFFCURVE",
"775 534 OFFCURVE",
"775 375 CURVE SMOOTH",
"775 216 OFFCURVE",
"663 114 OFFCURVE",
"490 114 CURVE SMOOTH"
);
}
);
width = 980;
},
{
associatedMasterId = "6BCBDBF6-8315-4194-A290-F71994A92467";
layerId = "8F811ACE-6062-44A9-8268-CC7A9FE24AA3";
name = foreground;
paths = (
{
closed = 1;
nodes = (
"762 -21 OFFCURVE",
"935 134 OFFCURVE",
"935 375 CURVE SMOOTH",
"935 615 OFFCURVE",
"762 770 OFFCURVE",
"490 770 CURVE SMOOTH",
"218 770 OFFCURVE",
"45 615 OFFCURVE",
"45 375 CURVE SMOOTH",
"45 134 OFFCURVE",
"218 -21 OFFCURVE",
"490 -21 CURVE SMOOTH"
);
},
{
closed = 1;
nodes = (
"323 109 OFFCURVE",
"205 214 OFFCURVE",
"205 375 CURVE SMOOTH",
"205 535 OFFCURVE",
"323 640 OFFCURVE",
"490 640 CURVE SMOOTH",
"657 640 OFFCURVE",
"775 535 OFFCURVE",
"775 375 CURVE SMOOTH",
"775 214 OFFCURVE",
"657 109 OFFCURVE",
"490 109 CURVE SMOOTH"
);
}
);
width = 980;
}
);
leftKerningGroup = O;
locked = 1;
rightKerningGroup = O;
unicode = 004F;
},
{
glyphname = OE;
lastChange = "2021-05-02 21:54:42 +0000";
layers = (
{
anchors = (
{
name = bottom;
position = "{1382, 0}";
},
{
name = center;
position = "{490, 375}";
},
{
name = ogonek;
position = "{1728, 7}";
},
{
name = top;
position = "{1382, 750}";
},
{
name = topleft;
position = "{1000, 750}";
},
{
name = topright;
position = "{960, 750}";
}
);
layerId = "6BCBDBF6-8315-4194-A290-F71994A92467";
paths = (
{
closed = 1;
nodes = (
"691 750 LINE",
"640 760 OFFCURVE",
"570 767 OFFCURVE",
"490 767 CURVE SMOOTH",
"218 767 OFFCURVE",
"45 612 OFFCURVE",
"45 375 CURVE SMOOTH",
"45 137 OFFCURVE",
"218 -18 OFFCURVE",
"490 -18 CURVE SMOOTH",
"570 -18 OFFCURVE",
"641 -9 OFFCURVE",
"692 1 CURVE",
"703 160 LINE",
"653 131 OFFCURVE",
"580 114 OFFCURVE",
"490 114 CURVE SMOOTH",
"317 114 OFFCURVE",
"205 216 OFFCURVE",
"205 375 CURVE SMOOTH",
"205 534 OFFCURVE",
"317 637 OFFCURVE",
"490 637 CURVE SMOOTH",
"580 637 OFFCURVE",
"653 619 OFFCURVE",
"703 591 CURVE"
);
},
{
closed = 1;
nodes = (
"1373 0 LINE",
"1373 130 LINE",
"850 130 LINE",
"850 318 LINE",
"1311 318 LINE",
"1311 444 LINE",
"850 444 LINE",
"850 620 LINE",
"1365 620 LINE",
"1365 750 LINE",
"690 750 LINE",
"690 0 LINE"
);
}
);
width = 1418;
}
);
leftMetricsKey = O;
rightMetricsKey = E;
unicode = 0152;
},
{
color = 3;
glyphname = P;
lastChange = "2021-05-02 21:54:42 +0000";
layers = (
{
anchors = (
{
name = bottom;
position = "{431, 0}";
},
{
name = top;
position = "{431, 750}";
}
);
layerId = "6BCBDBF6-8315-4194-A290-F71994A92467";
paths = (
{
closed = 1;
nodes = (
"230 0 LINE",
"230 280 LINE",
"576 280 LINE SMOOTH",
"702 280 OFFCURVE",
"827 355 OFFCURVE",
"827 515 CURVE SMOOTH",
"827 639 OFFCURVE",
"752 750 OFFCURVE",
"576 750 CURVE SMOOTH",
"70 750 LINE",
"70 0 LINE"
);
},
{
closed = 1;
nodes = (
"230 620 LINE",
"519 620 LINE SMOOTH",
"623 620 OFFCURVE",
"667 589 OFFCURVE",
"667 515 CURVE SMOOTH",
"667 441 OFFCURVE",
"626 410 OFFCURVE",
"526 410 CURVE SMOOTH",
"230 410 LINE"
);
}
);
width = 862;
},
{
associatedMasterId = "6BCBDBF6-8315-4194-A290-F71994A92467";
layerId = "0910EA56-68CF-428B-95E6-80752DD1FB37";
name = foreground;
paths = (
{
closed = 1;
nodes = (
"242 0 LINE",
"242 280 LINE",
"588 280 LINE SMOOTH",
"714 280 OFFCURVE",
"839 355 OFFCURVE",
"839 515 CURVE SMOOTH",
"839 639 OFFCURVE",
"764 750 OFFCURVE",
"588 750 CURVE SMOOTH",
"82 750 LINE",
"82 0 LINE"
);
},
{
closed = 1;
nodes = (
"242 620 LINE",
"531 620 LINE SMOOTH",
"630 620 OFFCURVE",
"679 585 OFFCURVE",
"679 515 CURVE SMOOTH",
"679 447 OFFCURVE",
"632 410 OFFCURVE",
"538 410 CURVE SMOOTH",
"242 410 LINE"
);
}
);
width = 884;
}
);
leftKerningGroup = H;
leftMetricsKey = H;
rightKerningGroup = P;
unicode = 0050;
},
{
glyphname = Thorn;
lastChange = "2021-05-02 21:54:42 +0000";
layers = (
{
layerId = "6BCBDBF6-8315-4194-A290-F71994A92467";
paths = (
{
closed = 1;
nodes = (
"230 0 LINE",
"230 160 LINE",
"576 160 LINE SMOOTH",
"702 160 OFFCURVE",
"827 235 OFFCURVE",
"827 395 CURVE SMOOTH",
"827 519 OFFCURVE",
"752 630 OFFCURVE",
"576 630 CURVE SMOOTH",
"230 630 LINE",
"230 785 LINE",
"70 785 LINE",
"70 0 LINE"
);
},
{
closed = 1;
nodes = (
"230 500 LINE",
"519 500 LINE SMOOTH",
"623 500 OFFCURVE",
"667 469 OFFCURVE",
"667 395 CURVE SMOOTH",
"667 321 OFFCURVE",
"626 290 OFFCURVE",
"526 290 CURVE SMOOTH",
"230 290 LINE"
);
}
);
width = 862;
}
);
rightMetricsKey = P;
unicode = 00DE;
},
{
color = 3;
glyphname = Q;
lastChange = "2021-05-02 21:54:42 +0000";
layers = (
{
associatedMasterId = "6BCBDBF6-8315-4194-A290-F71994A92467";
components = (
{
name = O;
}
);
layerId = "CAD23A4B-9B80-40D7-BDF7-F23787A3978A";
name = foreground;
paths = (
{
closed = 1;
nodes = (
"703 -173 LINE",
"879 -142 LINE",
"663 43 LINE",
"496 -2 LINE"
);
}
);
width = 980;
},
{
anchors = (
{
name = bottom;
position = "{490, 0}";
},
{
name = top;
position = "{490, 750}";
}
);
associatedMasterId = "6BCBDBF6-8315-4194-A290-F71994A92467";
components = (
{
name = O;
}
);
layerId = "CF310807-EDCD-4C18-A71F-3F3A856D9BAB";
name = "7 Feb 21, 13:06";
paths = (
{
closed = 1;
nodes = (
"703 -173 LINE",
"879 -142 LINE",
"663 43 LINE",
"496 -2 LINE"
);
}
);
width = 980;
},
{
anchors = (
{
name = bottom;
position = "{490, 0}";
},
{
name = top;
position = "{490, 750}";
}
);
associatedMasterId = "6BCBDBF6-8315-4194-A290-F71994A92467";
components = (
{
locked = 1;
name = O;
}
);
layerId = "C19714F2-0150-4B73-98E7-90EAAC104FA0";
name = "7 Feb 21, 13:08";
paths = (
{
closed = 1;
nodes = (
"723 -189 LINE",
"867 -78 LINE",
"318 39 LINE",
"254 28 LINE"
);
}
);
width = 980;
},
{
anchors = (
{
name = bottom;
position = "{490, 0}";
},
{
name = center;
position = "{490, 375}";
},
{
name = ogonek;
position = "{882, 10}";
},
{
name = top;
position = "{490, 750}";
},
{
name = topleft;
position = "{20, 750}";
},
{
name = topright;
position = "{960, 750}";
}
);
associatedMasterId = "6BCBDBF6-8315-4194-A290-F71994A92467";
background = {
paths = (
{
closed = 1;
nodes = (
"863 -215 LINE",
"863 -57 LINE",
"594.526 -9.709 LINE",
"805.541 25.345 OFFCURVE",
"935 169.117 OFFCURVE",
"935 375 CURVE SMOOTH",
"935 612 OFFCURVE",
"762 767 OFFCURVE",
"490 767 CURVE SMOOTH",
"218 767 OFFCURVE",
"45 612 OFFCURVE",
"45 375 CURVE SMOOTH",
"45 211.297 OFFCURVE",
"127 87 OFFCURVE",
"266 25 CURVE"
);
},
{
closed = 1;
nodes = (
"205 534 OFFCURVE",
"317 637 OFFCURVE",
"490 637 CURVE SMOOTH",
"663 637 OFFCURVE",
"775 534 OFFCURVE",
"775 375 CURVE SMOOTH",
"775 216 OFFCURVE",
"663 114 OFFCURVE",
"490 114 CURVE SMOOTH",
"317 114 OFFCURVE",
"205 216 OFFCURVE",
"205 375 CURVE SMOOTH"
);
}
);
};
layerId = "6240E5C7-FB9E-430B-9AB5-4873A37998B4";
name = "19 Apr 21, 12:24";
paths = (
{
closed = 1;
nodes = (
"863 -215 CURVE",
"863 -57 LINE",
"415 -10 LINE",
"806 -29 OFFCURVE",
"935 169.117 OFFCURVE",
"935 375 CURVE SMOOTH",
"935 612 OFFCURVE",
"762 767 OFFCURVE",
"490 767 CURVE SMOOTH",
"218 767 OFFCURVE",
"45 612 OFFCURVE",
"45 375 CURVE SMOOTH",
"45 211 OFFCURVE",
"93 -49 OFFCURVE"
);
},
{
closed = 1;
nodes = (
"205 534 OFFCURVE",
"317 637 OFFCURVE",
"490 637 CURVE SMOOTH",
"663 637 OFFCURVE",
"775 534 OFFCURVE",
"775 375 CURVE SMOOTH",
"775 216 OFFCURVE",
"663 114 OFFCURVE",
"490 114 CURVE SMOOTH",
"317 114 OFFCURVE",
"205 216 OFFCURVE",
"205 375 CURVE SMOOTH"
);
}
);
width = 980;
},
{
anchors = (
{
name = bottom;
position = "{490, 0}";
},
{
name = center;
position = "{490, 375}";
},
{
name = ogonek;
position = "{882, 10}";
},
{
name = top;
position = "{490, 750}";
},
{
name = topleft;
position = "{20, 750}";
},
{
name = topright;
position = "{960, 750}";
}
);
layerId = "6BCBDBF6-8315-4194-A290-F71994A92467";
name = "150";
paths = (
{
closed = 1;
nodes = (
"762 -18 OFFCURVE",
"935 137 OFFCURVE",
"935 375 CURVE SMOOTH",
"935 612 OFFCURVE",
"762 767 OFFCURVE",
"490 767 CURVE SMOOTH",
"218 767 OFFCURVE",
"45 612 OFFCURVE",
"45 375 CURVE SMOOTH",
"45 137 OFFCURVE",
"218 -18 OFFCURVE",
"490 -18 CURVE SMOOTH"
);
},
{
closed = 1;
nodes = (
"317 114 OFFCURVE",
"205 216 OFFCURVE",
"205 375 CURVE SMOOTH",
"205 534 OFFCURVE",
"317 637 OFFCURVE",
"490 637 CURVE SMOOTH",
"663 637 OFFCURVE",
"775 534 OFFCURVE",
"775 375 CURVE SMOOTH",
"775 216 OFFCURVE",
"663 114 OFFCURVE",
"490 114 CURVE SMOOTH"
);
},
{
closed = 1;
nodes = (
"655 -215 LINE",
"854 -215 LINE",
"576 94 LINE",
"429 44 LINE"
);
}
);
width = 980;
},
{
anchors = (
{
name = bottom;
position = "{490, 0}";
},
{
name = center;
position = "{490, 375}";
},
{
name = ogonek;
position = "{882, 10}";
},
{
name = top;
position = "{490, 750}";
},
{
name = topleft;
position = "{20, 750}";
},
{
name = topright;
position = "{960, 750}";
}
);
associatedMasterId = "6BCBDBF6-8315-4194-A290-F71994A92467";
layerId = "5C0B9A4A-837E-4967-B473-5C7006288C41";
name = "19 Apr 21, 13:55";
paths = (
{
closed = 1;
nodes = (
"863 -215 LINE",
"863 -57 LINE",
"594.526 -9.709 LINE",
"805.541 25.345 OFFCURVE",
"935 169.117 OFFCURVE",
"935 375 CURVE SMOOTH",
"935 612 OFFCURVE",
"762 767 OFFCURVE",
"490 767 CURVE SMOOTH",
"218 767 OFFCURVE",
"45 612 OFFCURVE",
"45 375 CURVE SMOOTH",
"45 211.297 OFFCURVE",
"127 87 OFFCURVE",
"266.462 25.124 CURVE"
);
},
{
closed = 1;
nodes = (
"205 534 OFFCURVE",
"317 637 OFFCURVE",
"490 637 CURVE SMOOTH",
"663 637 OFFCURVE",
"775 534 OFFCURVE",
"775 375 CURVE SMOOTH",
"775 216 OFFCURVE",
"663 114 OFFCURVE",
"490 114 CURVE SMOOTH",
"317 114 OFFCURVE",
"205 216 OFFCURVE",
"205 375 CURVE SMOOTH"
);
}
);
width = 980;
},
{
anchors = (
{
name = bottom;
position = "{490, 0}";
},
{
name = center;
position = "{490, 375}";
},
{
name = ogonek;
position = "{882, 10}";
},
{
name = top;
position = "{490, 750}";
},
{
name = topleft;
position = "{20, 750}";
},
{
name = topright;
position = "{960, 750}";
}
);
associatedMasterId = "6BCBDBF6-8315-4194-A290-F71994A92467";
layerId = "EBEF4F95-3D2B-47BA-A072-3B17C9607498";
name = "19 Apr 21, 13:58";
paths = (
{
closed = 1;
nodes = (
"762 -18 OFFCURVE",
"935 137 OFFCURVE",
"935 375 CURVE SMOOTH",
"935 612 OFFCURVE",
"762 767 OFFCURVE",
"490 767 CURVE SMOOTH",
"218 767 OFFCURVE",
"45 612 OFFCURVE",
"45 375 CURVE SMOOTH",
"45 137 OFFCURVE",
"218 -18 OFFCURVE",
"490 -18 CURVE SMOOTH"
);
},
{
closed = 1;
nodes = (
"317 114 OFFCURVE",
"205 216 OFFCURVE",
"205 375 CURVE SMOOTH",
"205 534 OFFCURVE",
"317 637 OFFCURVE",
"490 637 CURVE SMOOTH",
"663 637 OFFCURVE",
"775 534 OFFCURVE",
"775 375 CURVE SMOOTH",
"775 216 OFFCURVE",
"663 114 OFFCURVE",
"490 114 CURVE SMOOTH"
);
},
{
closed = 1;
nodes = (
"655 -215 LINE",
"770 -114 LINE",
"586 94 LINE",
"426 44 LINE"
);
}
);
width = 980;
}
);
leftKerningGroup = O;
leftMetricsKey = O;
rightKerningGroup = O;
rightMetricsKey = O;
unicode = 0051;
},
{
color = 3;
glyphname = R;
lastChange = "2021-05-09 12:18:30 +0000";
layers = (
{
anchors = (
{
name = bottom;
position = "{454, 0}";
},
{
name = top;
position = "{433, 750}";
}
);
layerId = "6BCBDBF6-8315-4194-A290-F71994A92467";
paths = (
{
closed = 1;
nodes = (
"230 0 LINE",
"230 295 LINE",
"424 295 LINE",
"652 0 LINE",
"848 0 LINE",
"599 309 LINE",
"748 316 OFFCURVE",
"837 400 OFFCURVE",
"837 523 CURVE SMOOTH",
"837 656 OFFCURVE",
"739 750 OFFCURVE",
"563 750 CURVE SMOOTH",
"70 750 LINE",
"70 0 LINE"
);
},
{
closed = 1;
nodes = (
"230 620 LINE",
"529 620 LINE SMOOTH",
"633 620 OFFCURVE",
"677 591 OFFCURVE",
"677 522 CURVE SMOOTH",
"677 454 OFFCURVE",
"636 425 OFFCURVE",
"536 425 CURVE SMOOTH",
"230 425 LINE"
);
}
);
width = 880;
},
{
associatedMasterId = "6BCBDBF6-8315-4194-A290-F71994A92467";
layerId = "E3849A30-33ED-4573-85C5-33BC44B14189";
name = foreground;
paths = (
{
closed = 1;
nodes = (
"230 0 LINE",
"230 295 LINE",
"436 295 LINE",
"664 0 LINE",
"845 0 LINE",
"596 309 LINE",
"748 316 OFFCURVE",
"837 400 OFFCURVE",
"837 523 CURVE SMOOTH",
"837 656 OFFCURVE",
"739 750 OFFCURVE",
"563 750 CURVE SMOOTH",
"70 750 LINE",
"70 0 LINE"
);
},
{
closed = 1;
nodes = (
"230 620 LINE",
"529 620 LINE SMOOTH",
"627 620 OFFCURVE",
"677 587 OFFCURVE",
"677 522 CURVE SMOOTH",
"677 458 OFFCURVE",
"630 425 OFFCURVE",
"536 425 CURVE SMOOTH",
"230 425 LINE"
);
}
);
width = 865;
}
);
leftKerningGroup = H;
leftMetricsKey = H;
rightKerningGroup = R;
unicode = 0052;
},
{
color = 3;
glyphname = S;
lastChange = "2021-05-06 20:12:02 +0000";
layers = (
{
anchors = (
{
name = bottom;
position = "{422, 0}";
},
{
name = top;
position = "{422, 750}";
}
);
background = {
paths = (
{
closed = 1;
nodes = (
"56 439 OFFCURVE",
"162 364 OFFCURVE",
"390 326 CURVE SMOOTH",
"570 297 OFFCURVE",
"640 262 OFFCURVE",
"640 200 CURVE SMOOTH",
"640 142 OFFCURVE",
"579 116 OFFCURVE",
"442 116 CURVE SMOOTH",
"297 116 OFFCURVE",
"183 145 OFFCURVE",
"52 217 CURVE",
"62 71 LINE",
"175 6 OFFCURVE",
"288 -21 OFFCURVE",
"441 -21 CURVE SMOOTH",
"685 -21 OFFCURVE",
"800 48 OFFCURVE",
"800 192 CURVE SMOOTH",
"800 329 OFFCURVE",
"702 405 OFFCURVE",
"468 452 CURVE SMOOTH",
"290 487 OFFCURVE",
"216 513 OFFCURVE",
"216 565 CURVE SMOOTH",
"216 610 OFFCURVE",
"272 640 OFFCURVE",
"406 640 CURVE SMOOTH",
"546 640 OFFCURVE",
"661 615 OFFCURVE",
"756 562 CURVE",
"746 705 LINE",
"665 748 OFFCURVE",
"550 770 OFFCURVE",
"413 770 CURVE SMOOTH",
"173 770 OFFCURVE",
"56 700 OFFCURVE",
"56 564 CURVE SMOOTH"
);
}
);
};
guideLines = (
{
angle = 90;
position = "{424, 0}";
}
);
layerId = "6BCBDBF6-8315-4194-A290-F71994A92467";
paths = (
{
closed = 1;
nodes = (
"57 245 OFFCURVE",
"634 384 OFFCURVE",
"634 211 CURVE SMOOTH",
"634 153 OFFCURVE",
"573 117 OFFCURVE",
"442 117 CURVE SMOOTH",
"304 117 OFFCURVE",
"190 155 OFFCURVE",
"59 217 CURVE",
"69 64 LINE",
"174 14 OFFCURVE",
"304 -18 OFFCURVE",
"441 -18 CURVE SMOOTH",
"669 -18 OFFCURVE",
"792 65 OFFCURVE",
"792 214 CURVE SMOOTH",
"792 532 OFFCURVE",
"215 401 OFFCURVE",
"215 558 CURVE SMOOTH",
"215 611 OFFCURVE",
"275 640 OFFCURVE",
"420 640 CURVE SMOOTH",
"552 640 OFFCURVE",
"666 614 OFFCURVE",
"756 583 CURVE",
"747 723 LINE",
"666 746 OFFCURVE",
"551 768 OFFCURVE",
"417 768 CURVE SMOOTH",
"176 768 OFFCURVE",
"61 698 OFFCURVE",
"60 561 CURVE SMOOTH"
);
}
);
width = 830;
},
{
associatedMasterId = "6BCBDBF6-8315-4194-A290-F71994A92467";
guideLines = (
{
angle = 90;
position = "{416.5, 0}";
}
);
layerId = "71917E73-C426-482F-A9C4-1499F63BB30D";
name = foreground;
paths = (
{
closed = 1;
nodes = (
"49 258 OFFCURVE",
"633 377 OFFCURVE",
"633 200 CURVE SMOOTH",
"633 141 OFFCURVE",
"564 112 OFFCURVE",
"427 112 CURVE SMOOTH",
"287 112 OFFCURVE",
"173 143 OFFCURVE",
"40 217 CURVE",
"55 67 LINE",
"163 5 OFFCURVE",
"285 -25 OFFCURVE",
"427 -25 CURVE SMOOTH",
"667 -25 OFFCURVE",
"793 52 OFFCURVE",
"793 198 CURVE SMOOTH",
"793 520 OFFCURVE",
"209 420 OFFCURVE",
"209 563 CURVE SMOOTH",
"209 616 OFFCURVE",
"284 645 OFFCURVE",
"419 645 CURVE SMOOTH",
"546 645 OFFCURVE",
"659 618 OFFCURVE",
"750 564 CURVE",
"739 709 LINE",
"660 751 OFFCURVE",
"547 774 OFFCURVE",
"419 774 CURVE SMOOTH",
"178 774 OFFCURVE",
"49 699 OFFCURVE",
"49 559 CURVE SMOOTH"
);
}
);
width = 828;
},
{
anchors = (
{
name = bottom;
position = "{414, 0}";
},
{
name = top;
position = "{414, 750}";
}
);
associatedMasterId = "6BCBDBF6-8315-4194-A290-F71994A92467";
background = {
paths = (
{
closed = 1;
nodes = (
"40 253 OFFCURVE",
"664 372 OFFCURVE",
"664 202 CURVE SMOOTH",
"664 142 OFFCURVE",
"590 112 OFFCURVE",
"438 112 CURVE SMOOTH",
"281 112 OFFCURVE",
"159 145 OFFCURVE",
"46 217 CURVE",
"46 67 LINE",
"155 5 OFFCURVE",
"284 -25 OFFCURVE",
"438 -25 CURVE SMOOTH",
"692 -25 OFFCURVE",
"824 52 OFFCURVE",
"824 201 CURVE SMOOTH",
"824 512 OFFCURVE",
"200 413 OFFCURVE",
"200 552 CURVE SMOOTH",
"200 610 OFFCURVE",
"274 642 OFFCURVE",
"411 642 CURVE SMOOTH",
"545 642 OFFCURVE",
"666 621 OFFCURVE",
"760 563 CURVE",
"760 709 LINE",
"668 758 OFFCURVE",
"543 774 OFFCURVE",
"405 774 CURVE SMOOTH",
"168 774 OFFCURVE",
"40 694 OFFCURVE",
"40 546 CURVE SMOOTH"
);
}
);
};
guideLines = (
{
angle = 90;
position = "{416.5, 0}";
}
);
layerId = "897397F1-D4B6-4CBF-ABD9-A7CE468DE625";
name = "11 Jan 21, 19:26";
paths = (
{
closed = 1;
nodes = (
"49 258 OFFCURVE",
"633 377 OFFCURVE",
"633 200 CURVE SMOOTH",
"633 141 OFFCURVE",
"564 112 OFFCURVE",
"427 112 CURVE SMOOTH",
"287 112 OFFCURVE",
"173 143 OFFCURVE",
"45 213 CURVE",
"55 67 LINE",
"163 5 OFFCURVE",
"285 -25 OFFCURVE",
"427 -25 CURVE SMOOTH",
"667 -25 OFFCURVE",
"793 52 OFFCURVE",
"793 198 CURVE SMOOTH",
"793 520 OFFCURVE",
"209 419 OFFCURVE",
"209 562 CURVE SMOOTH",
"209 613 OFFCURVE",
"286 644 OFFCURVE",
"419 644 CURVE SMOOTH",
"546 644 OFFCURVE",
"659 615 OFFCURVE",
"749 565 CURVE",
"739 709 LINE",
"660 751 OFFCURVE",
"547 774 OFFCURVE",
"419 774 CURVE SMOOTH",
"178 774 OFFCURVE",
"49 699 OFFCURVE",
"49 559 CURVE SMOOTH"
);
}
);
width = 828;
},
{
anchors = (
{
name = bottom;
position = "{414, 0}";
},
{
name = top;
position = "{414, 750}";
}
);
associatedMasterId = "6BCBDBF6-8315-4194-A290-F71994A92467";
background = {
paths = (
{
closed = 1;
nodes = (
"40 253 OFFCURVE",
"664 372 OFFCURVE",
"664 202 CURVE SMOOTH",
"664 142 OFFCURVE",
"590 112 OFFCURVE",
"438 112 CURVE SMOOTH",
"281 112 OFFCURVE",
"159 145 OFFCURVE",
"46 217 CURVE",
"46 67 LINE",
"155 5 OFFCURVE",
"284 -25 OFFCURVE",
"438 -25 CURVE SMOOTH",
"692 -25 OFFCURVE",
"824 52 OFFCURVE",
"824 201 CURVE SMOOTH",
"824 512 OFFCURVE",
"200 413 OFFCURVE",
"200 552 CURVE SMOOTH",
"200 610 OFFCURVE",
"274 642 OFFCURVE",
"411 642 CURVE SMOOTH",
"545 642 OFFCURVE",
"666 621 OFFCURVE",
"760 563 CURVE",
"760 709 LINE",
"668 758 OFFCURVE",
"543 774 OFFCURVE",
"405 774 CURVE SMOOTH",
"168 774 OFFCURVE",
"40 694 OFFCURVE",
"40 546 CURVE SMOOTH"
);
}
);
};
guideLines = (
{
angle = 90;
position = "{416.5, 0}";
}
);
layerId = "5AB75996-ABA0-45B2-BF58-AA25432B0D85";
name = "3 Feb 21, 15:04";
paths = (
{
closed = 1;
nodes = (
"49 429 OFFCURVE",
"148 362 OFFCURVE",
"393 323 CURVE SMOOTH",
"572 293 OFFCURVE",
"633 264 OFFCURVE",
"633 206 CURVE SMOOTH",
"633 146 OFFCURVE",
"565 116 OFFCURVE",
"427 116 CURVE SMOOTH",
"289 116 OFFCURVE",
"175 146 OFFCURVE",
"45 217 CURVE",
"55 71 LINE",
"163 9 OFFCURVE",
"285 -21 OFFCURVE",
"427 -21 CURVE SMOOTH",
"668 -21 OFFCURVE",
"793 57 OFFCURVE",
"793 206 CURVE SMOOTH",
"793 337 OFFCURVE",
"698 403 OFFCURVE",
"431 456 CURVE SMOOTH",
"267 488 OFFCURVE",
"209 515 OFFCURVE",
"209 560 CURVE SMOOTH",
"209 612 OFFCURVE",
"283 640 OFFCURVE",
"419 640 CURVE SMOOTH",
"542 640 OFFCURVE",
"656 613 OFFCURVE",
"749 561 CURVE",
"739 705 LINE",
"660 747 OFFCURVE",
"547 770 OFFCURVE",
"419 770 CURVE SMOOTH",
"178 770 OFFCURVE",
"49 695 OFFCURVE",
"49 555 CURVE SMOOTH"
);
}
);
width = 828;
},
{
anchors = (
{
name = bottom;
position = "{414, 0}";
},
{
name = top;
position = "{414, 750}";
}
);
associatedMasterId = "6BCBDBF6-8315-4194-A290-F71994A92467";
background = {
paths = (
{
closed = 1;
nodes = (
"40 253 OFFCURVE",
"664 372 OFFCURVE",
"664 202 CURVE SMOOTH",
"664 142 OFFCURVE",
"590 112 OFFCURVE",
"438 112 CURVE SMOOTH",
"281 112 OFFCURVE",
"159 145 OFFCURVE",
"46 217 CURVE",
"46 67 LINE",
"155 5 OFFCURVE",
"284 -25 OFFCURVE",
"438 -25 CURVE SMOOTH",
"692 -25 OFFCURVE",
"824 52 OFFCURVE",
"824 201 CURVE SMOOTH",
"824 512 OFFCURVE",
"200 413 OFFCURVE",
"200 552 CURVE SMOOTH",
"200 610 OFFCURVE",
"274 642 OFFCURVE",
"411 642 CURVE SMOOTH",
"545 642 OFFCURVE",
"666 621 OFFCURVE",
"760 563 CURVE",
"760 709 LINE",
"668 758 OFFCURVE",
"543 774 OFFCURVE",
"405 774 CURVE SMOOTH",
"168 774 OFFCURVE",
"40 694 OFFCURVE",
"40 546 CURVE SMOOTH"
);
}
);
};
guideLines = (
{
angle = 90;
position = "{416.5, 0}";
}
);
layerId = "95708926-C0BE-430B-B43F-35104D7E2E5F";
name = "3 Feb 21, 15:14";
paths = (
{
closed = 1;
nodes = (
"49 439 OFFCURVE",
"155 364 OFFCURVE",
"383 326 CURVE SMOOTH",
"563 297 OFFCURVE",
"633 262 OFFCURVE",
"633 200 CURVE SMOOTH",
"633 142 OFFCURVE",
"572 116 OFFCURVE",
"435 116 CURVE SMOOTH",
"290 116 OFFCURVE",
"176 145 OFFCURVE",
"45 217 CURVE",
"55 71 LINE",
"168 6 OFFCURVE",
"281 -21 OFFCURVE",
"434 -21 CURVE SMOOTH",
"678 -21 OFFCURVE",
"793 48 OFFCURVE",
"793 192 CURVE SMOOTH",
"793 329 OFFCURVE",
"695 405 OFFCURVE",
"461 452 CURVE SMOOTH",
"283 487 OFFCURVE",
"209 513 OFFCURVE",
"209 565 CURVE SMOOTH",
"209 610 OFFCURVE",
"265 640 OFFCURVE",
"399 640 CURVE SMOOTH",
"539 640 OFFCURVE",
"654 615 OFFCURVE",
"749 562 CURVE",
"739 705 LINE",
"658 748 OFFCURVE",
"543 770 OFFCURVE",
"406 770 CURVE SMOOTH",
"166 770 OFFCURVE",
"49 700 OFFCURVE",
"49 564 CURVE SMOOTH"
);
}
);
width = 828;
},
{
anchors = (
{
name = bottom;
position = "{414, 0}";
},
{
name = top;
position = "{414, 750}";
}
);
associatedMasterId = "6BCBDBF6-8315-4194-A290-F71994A92467";
background = {
paths = (
{
closed = 1;
nodes = (
"49 439 OFFCURVE",
"155 364 OFFCURVE",
"383 326 CURVE SMOOTH",
"563 297 OFFCURVE",
"633 262 OFFCURVE",
"633 200 CURVE SMOOTH",
"633 142 OFFCURVE",
"572 116 OFFCURVE",
"435 116 CURVE SMOOTH",
"290 116 OFFCURVE",
"176 145 OFFCURVE",
"45 217 CURVE",
"55 71 LINE",
"168 6 OFFCURVE",
"281 -21 OFFCURVE",
"434 -21 CURVE SMOOTH",
"678 -21 OFFCURVE",
"793 48 OFFCURVE",
"793 192 CURVE SMOOTH",
"793 329 OFFCURVE",
"695 405 OFFCURVE",
"461 452 CURVE SMOOTH",
"283 487 OFFCURVE",
"209 513 OFFCURVE",
"209 565 CURVE SMOOTH",
"209 610 OFFCURVE",
"265 640 OFFCURVE",
"399 640 CURVE SMOOTH",
"539 640 OFFCURVE",
"654 615 OFFCURVE",
"749 562 CURVE",
"739 705 LINE",
"658 748 OFFCURVE",
"543 770 OFFCURVE",
"406 770 CURVE SMOOTH",
"166 770 OFFCURVE",
"49 700 OFFCURVE",
"49 564 CURVE SMOOTH"
);
}
);
};
guideLines = (
{
angle = 90;
position = "{416.5, 0}";
}
);
layerId = "986D9277-C63F-493A-BF1A-945B532A6492";
name = "3 Feb 21, 15:21";
paths = (
{
closed = 1;
nodes = (
"49 253 OFFCURVE",
"633 388 OFFCURVE",
"633 202 CURVE SMOOTH",
"633 142 OFFCURVE",
"572 116 OFFCURVE",
"435 116 CURVE SMOOTH",
"290 116 OFFCURVE",
"176 145 OFFCURVE",
"45 217 CURVE",
"55 71 LINE",
"168 6 OFFCURVE",
"281 -21 OFFCURVE",
"434 -21 CURVE SMOOTH",
"678 -21 OFFCURVE",
"793 48 OFFCURVE",
"793 192 CURVE SMOOTH",
"793 522 OFFCURVE",
"209 413 OFFCURVE",
"209 564 CURVE SMOOTH",
"209 611 OFFCURVE",
"265 640 OFFCURVE",
"409 640 CURVE SMOOTH",
"539 640 OFFCURVE",
"654 615 OFFCURVE",
"749 562 CURVE",
"739 705 LINE",
"658 748 OFFCURVE",
"543 770 OFFCURVE",
"406 770 CURVE SMOOTH",
"166 770 OFFCURVE",
"49 700 OFFCURVE",
"49 563 CURVE SMOOTH"
);
}
);
width = 828;
},
{
anchors = (
{
name = bottom;
position = "{414, 0}";
},
{
name = top;
position = "{414, 750}";
}
);
associatedMasterId = "6BCBDBF6-8315-4194-A290-F71994A92467";
background = {
paths = (
{
closed = 1;
nodes = (
"49 439 OFFCURVE",
"155 364 OFFCURVE",
"383 326 CURVE SMOOTH",
"563 297 OFFCURVE",
"633 262 OFFCURVE",
"633 200 CURVE SMOOTH",
"633 142 OFFCURVE",
"572 116 OFFCURVE",
"435 116 CURVE SMOOTH",
"290 116 OFFCURVE",
"176 145 OFFCURVE",
"45 217 CURVE",
"55 71 LINE",
"168 6 OFFCURVE",
"281 -21 OFFCURVE",
"434 -21 CURVE SMOOTH",
"678 -21 OFFCURVE",
"793 48 OFFCURVE",
"793 192 CURVE SMOOTH",
"793 329 OFFCURVE",
"695 405 OFFCURVE",
"461 452 CURVE SMOOTH",
"283 487 OFFCURVE",
"209 513 OFFCURVE",
"209 565 CURVE SMOOTH",
"209 610 OFFCURVE",
"265 640 OFFCURVE",
"399 640 CURVE SMOOTH",
"539 640 OFFCURVE",
"654 615 OFFCURVE",
"749 562 CURVE",
"739 705 LINE",
"658 748 OFFCURVE",
"543 770 OFFCURVE",
"406 770 CURVE SMOOTH",
"166 770 OFFCURVE",
"49 700 OFFCURVE",
"49 564 CURVE SMOOTH"
);
}
);
};
guideLines = (
{
angle = 90;
position = "{416.5, 0}";
}
);
layerId = "82017188-8DE8-4A65-B82E-B297E6AED657";
name = "7 Feb 21, 12:58";
paths = (
{
closed = 1;
nodes = (
"43 253 OFFCURVE",
"633 388 OFFCURVE",
"633 202 CURVE SMOOTH",
"633 142 OFFCURVE",
"572 116 OFFCURVE",
"435 116 CURVE SMOOTH",
"290 116 OFFCURVE",
"176 145 OFFCURVE",
"45 217 CURVE",
"55 71 LINE",
"160 11 OFFCURVE",
"290 -21 OFFCURVE",
"434 -21 CURVE SMOOTH",
"670 -21 OFFCURVE",
"793 52 OFFCURVE",
"793 192 CURVE SMOOTH",
"793 522 OFFCURVE",
"203 413 OFFCURVE",
"203 564 CURVE SMOOTH",
"203 613 OFFCURVE",
"259 642 OFFCURVE",
"409 642 CURVE SMOOTH",
"539 642 OFFCURVE",
"654 617 OFFCURVE",
"749 564 CURVE",
"739 705 LINE",
"658 748 OFFCURVE",
"543 770 OFFCURVE",
"406 770 CURVE SMOOTH",
"160 770 OFFCURVE",
"43 700 OFFCURVE",
"43 563 CURVE SMOOTH"
);
}
);
width = 828;
},
{
anchors = (
{
name = bottom;
position = "{421, 0}";
},
{
name = top;
position = "{421, 750}";
}
);
associatedMasterId = "6BCBDBF6-8315-4194-A290-F71994A92467";
background = {
paths = (
{
closed = 1;
nodes = (
"56 439 OFFCURVE",
"162 364 OFFCURVE",
"390 326 CURVE SMOOTH",
"570 297 OFFCURVE",
"640 262 OFFCURVE",
"640 200 CURVE SMOOTH",
"640 142 OFFCURVE",
"579 116 OFFCURVE",
"442 116 CURVE SMOOTH",
"297 116 OFFCURVE",
"183 145 OFFCURVE",
"52 217 CURVE",
"62 71 LINE",
"175 6 OFFCURVE",
"288 -21 OFFCURVE",
"441 -21 CURVE SMOOTH",
"685 -21 OFFCURVE",
"800 48 OFFCURVE",
"800 192 CURVE SMOOTH",
"800 329 OFFCURVE",
"702 405 OFFCURVE",
"468 452 CURVE SMOOTH",
"290 487 OFFCURVE",
"216 513 OFFCURVE",
"216 565 CURVE SMOOTH",
"216 610 OFFCURVE",
"272 640 OFFCURVE",
"406 640 CURVE SMOOTH",
"546 640 OFFCURVE",
"661 615 OFFCURVE",
"756 562 CURVE",
"746 705 LINE",
"665 748 OFFCURVE",
"550 770 OFFCURVE",
"413 770 CURVE SMOOTH",
"173 770 OFFCURVE",
"56 700 OFFCURVE",
"56 564 CURVE SMOOTH"
);
}
);
};
guideLines = (
{
angle = 90;
position = "{424, 0}";
}
);
layerId = "16C1D393-E431-4201-B012-3FD97D11C5DC";
name = "9 Feb 21, 00:55";
paths = (
{
closed = 1;
nodes = (
"50 253 OFFCURVE",
"640 388 OFFCURVE",
"640 202 CURVE SMOOTH",
"640 142 OFFCURVE",
"579 116 OFFCURVE",
"442 116 CURVE SMOOTH",
"297 116 OFFCURVE",
"183 145 OFFCURVE",
"52 217 CURVE",
"62 71 LINE",
"167 11 OFFCURVE",
"297 -21 OFFCURVE",
"441 -21 CURVE SMOOTH",
"677 -21 OFFCURVE",
"800 52 OFFCURVE",
"800 192 CURVE SMOOTH",
"800 522 OFFCURVE",
"210 413 OFFCURVE",
"210 564 CURVE SMOOTH",
"210 613 OFFCURVE",
"266 642 OFFCURVE",
"416 642 CURVE SMOOTH",
"546 642 OFFCURVE",
"661 617 OFFCURVE",
"756 564 CURVE",
"746 705 LINE",
"665 748 OFFCURVE",
"550 770 OFFCURVE",
"413 770 CURVE SMOOTH",
"167 770 OFFCURVE",
"50 700 OFFCURVE",
"50 563 CURVE SMOOTH"
);
}
);
width = 830;
},
{
anchors = (
{
name = bottom;
position = "{421, 0}";
},
{
name = top;
position = "{421, 750}";
}
);
associatedMasterId = "6BCBDBF6-8315-4194-A290-F71994A92467";
background = {
paths = (
{
closed = 1;
nodes = (
"56 439 OFFCURVE",
"162 364 OFFCURVE",
"390 326 CURVE SMOOTH",
"570 297 OFFCURVE",
"640 262 OFFCURVE",
"640 200 CURVE SMOOTH",
"640 142 OFFCURVE",
"579 116 OFFCURVE",
"442 116 CURVE SMOOTH",
"297 116 OFFCURVE",
"183 145 OFFCURVE",
"52 217 CURVE",
"62 71 LINE",
"175 6 OFFCURVE",
"288 -21 OFFCURVE",
"441 -21 CURVE SMOOTH",
"685 -21 OFFCURVE",
"800 48 OFFCURVE",
"800 192 CURVE SMOOTH",
"800 329 OFFCURVE",
"702 405 OFFCURVE",
"468 452 CURVE SMOOTH",
"290 487 OFFCURVE",
"216 513 OFFCURVE",
"216 565 CURVE SMOOTH",
"216 610 OFFCURVE",
"272 640 OFFCURVE",
"406 640 CURVE SMOOTH",
"546 640 OFFCURVE",
"661 615 OFFCURVE",
"756 562 CURVE",
"746 705 LINE",
"665 748 OFFCURVE",
"550 770 OFFCURVE",
"413 770 CURVE SMOOTH",
"173 770 OFFCURVE",
"56 700 OFFCURVE",
"56 564 CURVE SMOOTH"
);
}
);
};
guideLines = (
{
angle = 90;
position = "{424, 0}";
}
);
layerId = "325E2D89-F194-441F-8CF7-220F342AF744";
name = "22 Feb 21, 19:26";
paths = (
{
closed = 1;
nodes = (
"60 261 OFFCURVE",
"632 400 OFFCURVE",
"632 215 CURVE SMOOTH",
"632 153 OFFCURVE",
"571 117 OFFCURVE",
"442 117 CURVE SMOOTH",
"307 117 OFFCURVE",
"193 155 OFFCURVE",
"62 227 CURVE",
"72 74 LINE",
"177 14 OFFCURVE",
"307 -18 OFFCURVE",
"441 -18 CURVE SMOOTH",
"667 -18 OFFCURVE",
"790 65 OFFCURVE",
"790 214 CURVE SMOOTH",
"790 537 OFFCURVE",
"215 411 OFFCURVE",
"215 562 CURVE SMOOTH",
"215 611 OFFCURVE",
"275 640 OFFCURVE",
"420 640 CURVE SMOOTH",
"552 640 OFFCURVE",
"666 614 OFFCURVE",
"756 573 CURVE",
"747 713 LINE",
"666 746 OFFCURVE",
"551 768 OFFCURVE",
"417 768 CURVE SMOOTH",
"176 768 OFFCURVE",
"60 698 OFFCURVE",
"60 561 CURVE SMOOTH"
);
}
);
width = 830;
},
{
anchors = (
{
name = bottom;
position = "{421, 0}";
},
{
name = top;
position = "{421, 750}";
}
);
associatedMasterId = "6BCBDBF6-8315-4194-A290-F71994A92467";
background = {
paths = (
{
closed = 1;
nodes = (
"56 439 OFFCURVE",
"162 364 OFFCURVE",
"390 326 CURVE SMOOTH",
"570 297 OFFCURVE",
"640 262 OFFCURVE",
"640 200 CURVE SMOOTH",
"640 142 OFFCURVE",
"579 116 OFFCURVE",
"442 116 CURVE SMOOTH",
"297 116 OFFCURVE",
"183 145 OFFCURVE",
"52 217 CURVE",
"62 71 LINE",
"175 6 OFFCURVE",
"288 -21 OFFCURVE",
"441 -21 CURVE SMOOTH",
"685 -21 OFFCURVE",
"800 48 OFFCURVE",
"800 192 CURVE SMOOTH",
"800 329 OFFCURVE",
"702 405 OFFCURVE",
"468 452 CURVE SMOOTH",
"290 487 OFFCURVE",
"216 513 OFFCURVE",
"216 565 CURVE SMOOTH",
"216 610 OFFCURVE",
"272 640 OFFCURVE",
"406 640 CURVE SMOOTH",
"546 640 OFFCURVE",
"661 615 OFFCURVE",
"756 562 CURVE",
"746 705 LINE",
"665 748 OFFCURVE",
"550 770 OFFCURVE",
"413 770 CURVE SMOOTH",
"173 770 OFFCURVE",
"56 700 OFFCURVE",
"56 564 CURVE SMOOTH"
);
}
);
};
guideLines = (
{
angle = 90;
position = "{424, 0}";
}
);
layerId = "2A500F0F-FAAA-4104-B59E-43C4EEDE3244";
name = "11 Apr 21, 22:08";
paths = (
{
closed = 1;
nodes = (
"60 245 OFFCURVE",
"632 384 OFFCURVE",
"632 211 CURVE SMOOTH",
"632 153 OFFCURVE",
"571 117 OFFCURVE",
"442 117 CURVE SMOOTH",
"307 117 OFFCURVE",
"193 155 OFFCURVE",
"62 227 CURVE",
"72 74 LINE",
"177 14 OFFCURVE",
"307 -18 OFFCURVE",
"441 -18 CURVE SMOOTH",
"667 -18 OFFCURVE",
"790 65 OFFCURVE",
"790 214 CURVE SMOOTH",
"790 532 OFFCURVE",
"215 401 OFFCURVE",
"215 558 CURVE SMOOTH",
"215 611 OFFCURVE",
"275 640 OFFCURVE",
"420 640 CURVE SMOOTH",
"552 640 OFFCURVE",
"666 614 OFFCURVE",
"756 573 CURVE",
"747 713 LINE",
"666 746 OFFCURVE",
"551 768 OFFCURVE",
"417 768 CURVE SMOOTH",
"176 768 OFFCURVE",
"60 698 OFFCURVE",
"60 561 CURVE SMOOTH"
);
}
);
width = 830;
},
{
anchors = (
{
name = bottom;
position = "{421, 0}";
},
{
name = top;
position = "{421, 750}";
}
);
associatedMasterId = "6BCBDBF6-8315-4194-A290-F71994A92467";
background = {
paths = (
{
closed = 1;
nodes = (
"56 439 OFFCURVE",
"162 364 OFFCURVE",
"390 326 CURVE SMOOTH",
"570 297 OFFCURVE",
"640 262 OFFCURVE",
"640 200 CURVE SMOOTH",
"640 142 OFFCURVE",
"579 116 OFFCURVE",
"442 116 CURVE SMOOTH",
"297 116 OFFCURVE",
"183 145 OFFCURVE",
"52 217 CURVE",
"62 71 LINE",
"175 6 OFFCURVE",
"288 -21 OFFCURVE",
"441 -21 CURVE SMOOTH",
"685 -21 OFFCURVE",
"800 48 OFFCURVE",
"800 192 CURVE SMOOTH",
"800 329 OFFCURVE",
"702 405 OFFCURVE",
"468 452 CURVE SMOOTH",
"290 487 OFFCURVE",
"216 513 OFFCURVE",
"216 565 CURVE SMOOTH",
"216 610 OFFCURVE",
"272 640 OFFCURVE",
"406 640 CURVE SMOOTH",
"546 640 OFFCURVE",
"661 615 OFFCURVE",
"756 562 CURVE",
"746 705 LINE",
"665 748 OFFCURVE",
"550 770 OFFCURVE",
"413 770 CURVE SMOOTH",
"173 770 OFFCURVE",
"56 700 OFFCURVE",
"56 564 CURVE SMOOTH"
);
}
);
};
guideLines = (
{
angle = 90;
position = "{424, 0}";
}
);
layerId = "5CDC9493-BBC1-4A3F-B4CD-BC7609ABC2EB";
name = "19 Apr 21, 14:02";
paths = (
{
closed = 1;
nodes = (
"57 245 OFFCURVE",
"634 384 OFFCURVE",
"634 211 CURVE SMOOTH",
"634 153 OFFCURVE",
"573 117 OFFCURVE",
"442 117 CURVE SMOOTH",
"304 117 OFFCURVE",
"190 155 OFFCURVE",
"59 227 CURVE",
"69 74 LINE",
"174 14 OFFCURVE",
"304 -18 OFFCURVE",
"441 -18 CURVE SMOOTH",
"669 -18 OFFCURVE",
"792 65 OFFCURVE",
"792 214 CURVE SMOOTH",
"792 532 OFFCURVE",
"215 401 OFFCURVE",
"215 558 CURVE SMOOTH",
"215 611 OFFCURVE",
"275 640 OFFCURVE",
"420 640 CURVE SMOOTH",
"552 640 OFFCURVE",
"666 614 OFFCURVE",
"756 583 CURVE",
"747 723 LINE",
"666 746 OFFCURVE",
"551 768 OFFCURVE",
"417 768 CURVE SMOOTH",
"176 768 OFFCURVE",
"61 698 OFFCURVE",
"60 561 CURVE SMOOTH"
);
}
);
width = 830;
}
);
leftKerningGroup = S;
rightKerningGroup = S;
unicode = 0053;
},
{
glyphname = Germandbls;
lastChange = "2021-05-02 21:54:42 +0000";
layers = (
{
layerId = "6BCBDBF6-8315-4194-A290-F71994A92467";
paths = (
{
closed = 1;
nodes = (
"230 0 LINE",
"230 515 LINE SMOOTH",
"230 587 OFFCURVE",
"277 620 OFFCURVE",
"379 620 CURVE SMOOTH",
"643 620 LINE",
"354 418 LINE",
"354 321 LINE",
"606 321 OFFCURVE",
"703 299 OFFCURVE",
"703 213 CURVE SMOOTH",
"703 150 OFFCURVE",
"652 119 OFFCURVE",
"530 119 CURVE SMOOTH",
"452 119 OFFCURVE",
"380 130 OFFCURVE",
"331 142 CURVE",
"331 22 LINE",
"401 1 OFFCURVE",
"479 -11 OFFCURVE",
"553 -11 CURVE SMOOTH",
"722 -11 OFFCURVE",
"873 50 OFFCURVE",
"873 208 CURVE SMOOTH",
"873 352 OFFCURVE",
"749 423 OFFCURVE",
"542 423 CURVE",
"803 596 LINE",
"803 750 LINE",
"394 750 LINE SMOOTH",
"195 750 OFFCURVE",
"70 669 OFFCURVE",
"70 528 CURVE SMOOTH",
"70 0 LINE"
);
}
);
width = 903;
}
);
leftMetricsKey = H;
unicode = 1E9E;
},
{
glyphname = Schwa;
lastChange = "2021-05-02 21:54:42 +0000";
layers = (
{
layerId = "6BCBDBF6-8315-4194-A290-F71994A92467";
paths = (
{
closed = 1;
nodes = (
"854 615 OFFCURVE",
"683 770 OFFCURVE",
"416 770 CURVE SMOOTH",
"293 770 OFFCURVE",
"213 752 OFFCURVE",
"90 696 CURVE",
"70 564 LINE",
"211 616 OFFCURVE",
"294 632 OFFCURVE",
"413 632 CURVE SMOOTH",
"559 632 OFFCURVE",
"666 553 OFFCURVE",
"689 429 CURVE",
"45 429 LINE",
"45 331 LINE SMOOTH",
"45 120 OFFCURVE",
"199 -17 OFFCURVE",
"437 -17 CURVE SMOOTH",
"691 -17 OFFCURVE",
"854 136 OFFCURVE",
"854 375 CURVE SMOOTH"
);
},
{
closed = 1;
nodes = (
"685 186 OFFCURVE",
"595 114 OFFCURVE",
"438 114 CURVE SMOOTH",
"288 114 OFFCURVE",
"203 186 OFFCURVE",
"198 319 CURVE",
"692 319 LINE"
);
}
);
width = 899;
}
);
leftMetricsKey = O;
rightMetricsKey = O;
unicode = 018F;
},
{
color = 3;
glyphname = T;
lastChange = "2021-05-02 21:54:42 +0000";
layers = (
{
anchors = (
{
name = bottom;
position = "{415, 0}";
},
{
name = center;
position = "{415, 375}";
},
{
name = top;
position = "{415, 750}";
}
);
layerId = "6BCBDBF6-8315-4194-A290-F71994A92467";
paths = (
{
closed = 1;
nodes = (
"335 620 LINE",
"335 0 LINE",
"495 0 LINE",
"495 620 LINE",
"790 620 LINE",
"790 750 LINE",
"40 750 LINE",
"40 620 LINE"
);
}
);
width = 830;
},
{
associatedMasterId = "6BCBDBF6-8315-4194-A290-F71994A92467";
layerId = "05B0A305-5D16-4E10-B86F-2B51F313A355";
name = foreground;
paths = (
{
closed = 1;
nodes = (
"325 620 LINE",
"325 0 LINE",
"485 0 LINE",
"485 620 LINE",
"790 620 LINE",
"790 750 LINE",
"20 750 LINE",
"20 620 LINE"
);
}
);
width = 810;
}
);
leftKerningGroup = T;
rightKerningGroup = T;
unicode = 0054;
},
{
color = 3;
glyphname = U;
lastChange = "2021-05-02 21:54:42 +0000";
layers = (
{
anchors = (
{
name = bottom;
position = "{458, 0}";
},
{
name = ogonek;
position = "{617, 10}";
},
{
name = top;
position = "{458, 750}";
},
{
name = topright;
position = "{896, 750}";
}
);
layerId = "6BCBDBF6-8315-4194-A290-F71994A92467";
paths = (
{
closed = 1;
nodes = (
"70 107 OFFCURVE",
"223 -18 OFFCURVE",
"459 -18 CURVE SMOOTH",
"698 -18 OFFCURVE",
"846 111 OFFCURVE",
"846 319 CURVE SMOOTH",
"846 750 LINE",
"686 750 LINE",
"686 308 LINE SMOOTH",
"686 190 OFFCURVE",
"598 114 OFFCURVE",
"460 114 CURVE SMOOTH",
"320 114 OFFCURVE",
"230 190 OFFCURVE",
"230 308 CURVE SMOOTH",
"230 750 LINE",
"70 750 LINE",
"70 299 LINE SMOOTH"
);
}
);
width = 916;
},
{
associatedMasterId = "6BCBDBF6-8315-4194-A290-F71994A92467";
layerId = "509DC822-697B-43A9-BDCD-D837440A6DB9";
name = foreground;
paths = (
{
closed = 1;
nodes = (
"50 104 OFFCURVE",
"203 -21 OFFCURVE",
"439 -21 CURVE SMOOTH",
"673 -21 OFFCURVE",
"826 104 OFFCURVE",
"826 296 CURVE SMOOTH",
"826 750 LINE",
"666 750 LINE",
"666 305 LINE SMOOTH",
"666 190 OFFCURVE",
"574 111 OFFCURVE",
"440 111 CURVE SMOOTH",
"304 111 OFFCURVE",
"210 190 OFFCURVE",
"210 305 CURVE SMOOTH",
"210 750 LINE",
"50 750 LINE",
"50 296 LINE SMOOTH"
);
}
);
width = 876;
}
);
leftKerningGroup = U;
leftMetricsKey = H;
rightKerningGroup = U;
rightMetricsKey = H;
unicode = 0055;
},
{
glyphname = Uogonek;
lastChange = "2021-05-02 21:54:42 +0000";
layers = (
{
anchors = (
{
name = _ogonek;
position = "{617, 10}";
}
);
components = (
{
name = U;
}
);
layerId = "6BCBDBF6-8315-4194-A290-F71994A92467";
paths = (
{
closed = 1;
nodes = (
"499 24 LINE",
"421 -17 OFFCURVE",
"372 -82 OFFCURVE",
"372 -146 CURVE SMOOTH",
"372 -243 OFFCURVE",
"466 -288 OFFCURVE",
"617 -263 CURVE",
"617 -160 LINE",
"537 -178 OFFCURVE",
"486 -160 OFFCURVE",
"486 -116 CURVE SMOOTH",
"486 -73 OFFCURVE",
"538 -29 OFFCURVE",
"621 7 CURVE"
);
}
);
width = 916;
}
);
leftKerningGroup = U;
rightKerningGroup = U;
unicode = 0172;
},
{
color = 3;
glyphname = V;
lastChange = "2021-05-02 21:54:42 +0000";
layers = (
{
anchors = (
{
name = bottom;
position = "{460, 0}";
},
{
name = top;
position = "{460, 750}";
}
);
background = {
paths = (
{
closed = 1;
nodes = (
"27 750 LINE",
"409 0 LINE",
"587 0 LINE",
"967 750 LINE",
"792 750 LINE",
"500 160 LINE",
"205 750 LINE"
);
}
);
};
layerId = "6BCBDBF6-8315-4194-A290-F71994A92467";
paths = (
{
closed = 1;
nodes = (
"20 750 LINE",
"372 0 LINE",
"550 0 LINE",
"900 750 LINE",
"725 750 LINE",
"463 160 LINE",
"198 750 LINE"
);
}
);
width = 920;
},
{
associatedMasterId = "6BCBDBF6-8315-4194-A290-F71994A92467";
layerId = "A3A62E90-77FF-45C8-9E62-D45AC25026D1";
name = foreground;
paths = (
{
closed = 1;
nodes = (
"20 750 LINE",
"372 0 LINE",
"550 0 LINE",
"900 750 LINE",
"725 750 LINE",
"463 160 LINE",
"198 750 LINE"
);
}
);
width = 920;
}
);
leftKerningGroup = V;
rightKerningGroup = V;
unicode = 0056;
},
{
color = 3;
glyphname = W;
lastChange = "2021-05-02 21:54:42 +0000";
layers = (
{
anchors = (
{
name = bottom;
position = "{650, 0}";
},
{
name = top;
position = "{650, 750}";
}
);
layerId = "6BCBDBF6-8315-4194-A290-F71994A92467";
paths = (
{
closed = 1;
nodes = (
"294 0 LINE",
"482 0 LINE",
"648 577 LINE",
"817 0 LINE",
"1009 0 LINE",
"1272 750 LINE",
"1102 750 LINE",
"920 183 LINE",
"745 750 LINE",
"559 750 LINE",
"385 183 LINE",
"205 750 LINE",
"32 750 LINE"
);
}
);
width = 1299;
},
{
associatedMasterId = "6BCBDBF6-8315-4194-A290-F71994A92467";
layerId = "AAC2F2C2-F94F-4AC4-BCA5-D53F79AED9F4";
name = foreground;
paths = (
{
closed = 1;
nodes = (
"309 0 LINE",
"497 0 LINE",
"646 584 LINE",
"810 0 LINE",
"1002 0 LINE",
"1262 750 LINE",
"1092 750 LINE",
"913 183 LINE",
"743 750 LINE",
"557 750 LINE",
"400 183 LINE",
"210 750 LINE",
"37 750 LINE"
);
}
);
width = 1299;
}
);
leftKerningGroup = W;
rightKerningGroup = W;
unicode = 0057;
},
{
color = 3;
glyphname = X;
lastChange = "2021-05-02 21:54:42 +0000";
layers = (
{
anchors = (
{
name = bottom;
position = "{458, 0}";
},
{
name = top;
position = "{458, 750}";
}
);
background = {
paths = (
{
closed = 1;
nodes = (
"883 750 LINE",
"676 750 LINE",
"449 480 LINE",
"541 359 LINE"
);
},
{
closed = 1;
nodes = (
"896 0 LINE",
"501 442 LINE",
"250 750 LINE",
"41 750 LINE",
"404 324 LINE",
"686 0 LINE"
);
},
{
closed = 1;
nodes = (
"228 0 LINE",
"453 280 LINE",
"358 402 LINE",
"21 0 LINE"
);
}
);
};
layerId = "6BCBDBF6-8315-4194-A290-F71994A92467";
paths = (
{
closed = 1;
nodes = (
"893 0 LINE",
"554 381 LINE",
"883 750 LINE",
"678 750 LINE",
"460 493 LINE",
"249 750 LINE",
"43 750 LINE",
"350 390 LINE",
"22 0 LINE",
"228 0 LINE",
"449 272 LINE",
"686 0 LINE"
);
}
);
width = 916;
},
{
associatedMasterId = "6BCBDBF6-8315-4194-A290-F71994A92467";
layerId = "3F4A420A-AC18-4CFD-AD64-9B8223F66417";
name = foreground;
paths = (
{
closed = 1;
nodes = (
"891 750 LINE",
"672 750 LINE",
"447 480 LINE",
"544 359 LINE"
);
},
{
closed = 1;
nodes = (
"903 0 LINE",
"509 442 LINE",
"258 750 LINE",
"41 750 LINE",
"404 324 LINE",
"686 0 LINE"
);
},
{
closed = 1;
nodes = (
"242 0 LINE",
"464 280 LINE",
"365 402 LINE",
"23 0 LINE"
);
}
);
width = 917;
},
{
anchors = (
{
name = bottom;
position = "{458, 0}";
},
{
name = top;
position = "{458, 750}";
}
);
associatedMasterId = "6BCBDBF6-8315-4194-A290-F71994A92467";
background = {
paths = (
{
closed = 1;
nodes = (
"689 225 LINE",
"207 800 LINE",
"85 697 LINE",
"567 122 LINE"
);
}
);
};
layerId = "677ACC8A-EC48-41A5-AAC2-FAE4644AA7DA";
name = "5 Feb 21, 20:48";
paths = (
{
closed = 1;
nodes = (
"883 750 LINE",
"676 750 LINE",
"449 480 LINE",
"541 359 LINE"
);
},
{
closed = 1;
nodes = (
"896 0 LINE",
"501 442 LINE",
"250 750 LINE",
"41 750 LINE",
"404 324 LINE",
"686 0 LINE"
);
},
{
closed = 1;
nodes = (
"228 0 LINE",
"453 280 LINE",
"358 402 LINE",
"21 0 LINE"
);
}
);
width = 916;
},
{
anchors = (
{
name = bottom;
position = "{458, 0}";
},
{
name = top;
position = "{458, 750}";
}
);
associatedMasterId = "6BCBDBF6-8315-4194-A290-F71994A92467";
background = {
paths = (
{
closed = 1;
nodes = (
"883 750 LINE",
"676 750 LINE",
"449 480 LINE",
"541 359 LINE"
);
},
{
closed = 1;
nodes = (
"896 0 LINE",
"501 442 LINE",
"250 750 LINE",
"41 750 LINE",
"404 324 LINE",
"686 0 LINE"
);
},
{
closed = 1;
nodes = (
"228 0 LINE",
"453 280 LINE",
"358 402 LINE",
"21 0 LINE"
);
}
);
};
layerId = "7396F269-892B-44CB-A28E-FE5F867A94EE";
name = "5 Feb 21, 20:55";
paths = (
{
closed = 1;
nodes = (
"883 750 LINE",
"678 750 LINE",
"449 480 LINE",
"541 360 LINE"
);
},
{
closed = 1;
nodes = (
"896 0 LINE",
"501 442 LINE",
"249 750 LINE",
"41 750 LINE",
"404 324 LINE",
"686 0 LINE"
);
},
{
closed = 1;
nodes = (
"228 0 LINE",
"455 280 LINE",
"358 402 LINE",
"21 0 LINE"
);
}
);
width = 916;
}
);
leftKerningGroup = X;
rightKerningGroup = X;
unicode = 0058;
},
{
color = 3;
glyphname = Y;
lastChange = "2021-05-02 21:54:42 +0000";
layers = (
{
anchors = (
{
name = bottom;
position = "{430, 0}";
},
{
name = top;
position = "{430, 750}";
},
{
name = topleft;
position = "{20, 750}";
}
);
background = {
paths = (
{
closed = 1;
nodes = (
"20 750 LINE",
"372 0 LINE",
"550 0 LINE",
"900 750 LINE",
"725 750 LINE",
"463 160 LINE",
"198 750 LINE"
);
}
);
};
layerId = "6BCBDBF6-8315-4194-A290-F71994A92467";
paths = (
{
closed = 1;
nodes = (
"0 750 LINE",
"354 260 LINE",
"508 260 LINE",
"860 750 LINE",
"675 750 LINE",
"433 408 LINE",
"188 750 LINE"
);
},
{
closed = 1;
nodes = (
"511 0 LINE",
"511 335 LINE",
"351 335 LINE",
"351 0 LINE"
);
}
);
width = 860;
},
{
associatedMasterId = "6BCBDBF6-8315-4194-A290-F71994A92467";
layerId = "8928EF81-19CD-4BBE-B0A2-008CD312208A";
name = foreground;
paths = (
{
closed = 1;
nodes = (
"0 750 LINE",
"352 270 LINE",
"510 270 LINE",
"860 750 LINE",
"675 750 LINE",
"433 410 LINE",
"188 750 LINE"
);
},
{
closed = 1;
nodes = (
"511 0 LINE",
"511 335 LINE",
"351 335 LINE",
"351 0 LINE"
);
}
);
width = 860;
}
);
leftKerningGroup = Y;
rightKerningGroup = Y;
unicode = 0059;
},
{
color = 3;
glyphname = Z;
lastChange = "2021-05-02 21:54:42 +0000";
layers = (
{
anchors = (
{
name = bottom;
position = "{410, 0}";
},
{
name = center;
position = "{410, 375}";
},
{
name = top;
position = "{410, 750}";
}
);
background = {
paths = (
{
closed = 1;
nodes = (
"642 620 LINE",
"642 750 LINE",
"-27 750 LINE",
"-27 620 LINE"
);
},
{
closed = 1;
nodes = (
"662 0 LINE",
"662 130 LINE",
"-7 130 LINE",
"-7 0 LINE"
);
},
{
closed = 1;
nodes = (
"-159 0 LINE",
"45 0 LINE",
"753 750 LINE",
"547 750 LINE"
);
}
);
};
layerId = "6BCBDBF6-8315-4194-A290-F71994A92467";
paths = (
{
closed = 1;
nodes = (
"770 0 LINE",
"770 130 LINE",
"191 129 LINE",
"215 108 LINE",
"767 611 LINE",
"767 750 LINE",
"60 750 LINE",
"60 620 LINE",
"622 620 LINE",
"595 641 LINE",
"40 140 LINE",
"40 0 LINE"
);
}
);
width = 810;
},
{
associatedMasterId = "6BCBDBF6-8315-4194-A290-F71994A92467";
layerId = "AAF52107-A7CB-4BBC-B739-42D6495F491E";
name = foreground;
paths = (
{
closed = 1;
nodes = (
"745 0 LINE",
"745 130 LINE",
"176 129 LINE",
"194 108 LINE",
"736 611 LINE",
"736 750 LINE",
"55 750 LINE",
"55 620 LINE",
"588 620 LINE",
"570 641 LINE",
"25 140 LINE",
"25 0 LINE"
);
}
);
width = 500;
}
);
leftKerningGroup = Z;
rightKerningGroup = Z;
unicode = 005A;
},
{
color = 3;
glyphname = I.ss01;
lastChange = "2021-05-02 21:54:42 +0000";
layers = (
{
anchors = (
{
name = bottom;
position = "{336, 0}";
},
{
name = ogonek;
position = "{605, 10}";
},
{
name = top;
position = "{336, 750}";
},
{
name = topleft;
position = "{20, 750}";
}
);
layerId = "6BCBDBF6-8315-4194-A290-F71994A92467";
paths = (
{
closed = 1;
nodes = (
"414 0 LINE",
"414 750 LINE",
"259 750 LINE",
"259 0 LINE"
);
},
{
closed = 1;
nodes = (
"70 620 LINE",
"602 620 LINE",
"602 750 LINE",
"70 750 LINE"
);
},
{
closed = 1;
nodes = (
"70 0 LINE",
"602 0 LINE",
"602 130 LINE",
"70 130 LINE"
);
}
);
width = 672;
},
{
associatedMasterId = "6BCBDBF6-8315-4194-A290-F71994A92467";
layerId = "5BCDC843-98AD-46E8-9C3C-0E78BE75F217";
name = foreground;
paths = (
{
closed = 1;
nodes = (
"242 0 LINE",
"242 750 LINE",
"82 750 LINE",
"82 0 LINE"
);
}
);
width = 324;
}
);
leftMetricsKey = H;
rightMetricsKey = H;
},
{
glyphname = IJ.ss01;
lastChange = "2021-05-02 21:54:42 +0000";
layers = (
{
layerId = "6BCBDBF6-8315-4194-A290-F71994A92467";
paths = (
{
closed = 1;
nodes = (
"210 230 LINE",
"210 750 LINE",
"50 750 LINE",
"50 230 LINE"
);
},
{
closed = 1;
nodes = (
"93 -9 OFFCURVE",
"166 -21 OFFCURVE",
"248 -21 CURVE SMOOTH",
"476 -21 OFFCURVE",
"614 69 OFFCURVE",
"614 260 CURVE SMOOTH",
"614 750 LINE",
"454 750 LINE",
"454 264 LINE SMOOTH",
"454 173 OFFCURVE",
"371 115 OFFCURVE",
"213 115 CURVE SMOOTH",
"155 115 OFFCURVE",
"95 123 OFFCURVE",
"35 142 CURVE",
"35 10 LINE"
);
},
{
closed = 1;
nodes = (
"326 625 LINE",
"544 625 LINE",
"544 750 LINE",
"326 750 LINE"
);
}
);
width = 679;
}
);
rightMetricsKey = J;
},
{
glyphname = Iogonek.ss01;
lastChange = "2021-05-02 21:54:42 +0000";
layers = (
{
anchors = (
{
name = _ogonek;
position = "{605, 10}";
}
);
components = (
{
name = I.ss01;
}
);
layerId = "6BCBDBF6-8315-4194-A290-F71994A92467";
paths = (
{
closed = 1;
nodes = (
"480 24 LINE",
"402 -17 OFFCURVE",
"353 -82 OFFCURVE",
"353 -146 CURVE SMOOTH",
"353 -243 OFFCURVE",
"447 -288 OFFCURVE",
"598 -263 CURVE",
"598 -160 LINE",
"518 -178 OFFCURVE",
"467 -160 OFFCURVE",
"467 -116 CURVE SMOOTH",
"467 -73 OFFCURVE",
"519 -29 OFFCURVE",
"602 3 CURVE"
);
}
);
width = 672;
}
);
},
{
glyphname = Q.ss01;
lastChange = "2021-05-02 21:54:42 +0000";
layers = (
{
layerId = "6BCBDBF6-8315-4194-A290-F71994A92467";
paths = (
{
closed = 1;
nodes = (
"863 -215 LINE",
"863 -57 LINE",
"594.526 -9.709 LINE",
"805.541 25.345 OFFCURVE",
"935 169.117 OFFCURVE",
"935 375 CURVE SMOOTH",
"935 612 OFFCURVE",
"762 767 OFFCURVE",
"490 767 CURVE SMOOTH",
"218 767 OFFCURVE",
"45 612 OFFCURVE",
"45 375 CURVE SMOOTH",
"45 211.297 OFFCURVE",
"127 87 OFFCURVE",
"266.462 25.124 CURVE"
);
},
{
closed = 1;
nodes = (
"205 534 OFFCURVE",
"317 637 OFFCURVE",
"490 637 CURVE SMOOTH",
"663 637 OFFCURVE",
"775 534 OFFCURVE",
"775 375 CURVE SMOOTH",
"775 216 OFFCURVE",
"663 114 OFFCURVE",
"490 114 CURVE SMOOTH",
"317 114 OFFCURVE",
"205 216 OFFCURVE",
"205 375 CURVE SMOOTH"
);
}
);
width = 980;
}
);
leftMetricsKey = O;
rightMetricsKey = O;
},
{
color = 3;
glyphname = a;
lastChange = "2021-05-09 12:09:31 +0000";
layers = (
{
anchors = (
{
name = bottom;
position = "{331, 0}";
},
{
name = ogonek;
position = "{602, 10}";
},
{
name = top;
position = "{351, 560}";
}
);
background = {
paths = (
{
closed = 1;
nodes = (
"26 36 OFFCURVE",
"102 -21 OFFCURVE",
"225 -21 CURVE SMOOTH",
"328 -21 OFFCURVE",
"414 21 OFFCURVE",
"474 100 CURVE",
"474 0 LINE",
"620 0 LINE",
"620 334 LINE",
"620 494 OFFCURVE",
"520 580 OFFCURVE",
"329 580 CURVE SMOOTH",
"224 580 OFFCURVE",
"130 557 OFFCURVE",
"61 506 CURVE",
"55 386 LINE",
"111 433 OFFCURVE",
"201 465 OFFCURVE",
"300 465 CURVE SMOOTH",
"408 465 OFFCURVE",
"473 427 OFFCURVE",
"473 353 CURVE",
"473 332 LINE",
"436 332 LINE SMOOTH",
"161 332 OFFCURVE",
"26 265 OFFCURVE",
"26 128 CURVE SMOOTH"
);
},
{
closed = 1;
nodes = (
"165 209 OFFCURVE",
"254 236 OFFCURVE",
"440 236 CURVE SMOOTH",
"473 236 LINE",
"473 182 LINE",
"406 120 OFFCURVE",
"343 92 OFFCURVE",
"271 92 CURVE SMOOTH",
"205 92 OFFCURVE",
"165 115 OFFCURVE",
"165 153 CURVE SMOOTH"
);
}
);
};
layerId = "6BCBDBF6-8315-4194-A290-F71994A92467";
paths = (
{
closed = 1;
nodes = (
"35 39 OFFCURVE",
"107 -18 OFFCURVE",
"229 -18 CURVE SMOOTH",
"338 -18 OFFCURVE",
"420 30 OFFCURVE",
"474 100 CURVE",
"474 0 LINE",
"620 0 LINE",
"620 334 LINE SMOOTH",
"620 490 OFFCURVE",
"512 577 OFFCURVE",
"319 577 CURVE SMOOTH",
"228 577 OFFCURVE",
"155 558 OFFCURVE",
"81 523 CURVE",
"81 413 LINE",
"174 448 OFFCURVE",
"235 462 OFFCURVE",
"304 462 CURVE SMOOTH",
"412 462 OFFCURVE",
"473 420 OFFCURVE",
"473 345 CURVE SMOOTH",
"473 326 LINE",
"436 326 LINE SMOOTH",
"166 326 OFFCURVE",
"35 263 OFFCURVE",
"35 134 CURVE SMOOTH"
);
},
{
closed = 1;
nodes = (
"178 208 OFFCURVE",
"245 236 OFFCURVE",
"440 236 CURVE SMOOTH",
"473 236 LINE",
"473 167 LINE",
"407 117 OFFCURVE",
"340 91 OFFCURVE",
"276 91 CURVE SMOOTH",
"216 91 OFFCURVE",
"178 115 OFFCURVE",
"178 155 CURVE SMOOTH"
);
}
);
width = 670;
},
{
associatedMasterId = "6BCBDBF6-8315-4194-A290-F71994A92467";
layerId = "7A8026EB-D1BC-4FB2-807E-549008A4621F";
name = foreground;
paths = (
{
closed = 1;
nodes = (
"30 36 OFFCURVE",
"106 -21 OFFCURVE",
"229 -21 CURVE SMOOTH",
"332 -21 OFFCURVE",
"418 21 OFFCURVE",
"478 100 CURVE",
"478 0 LINE",
"624 0 LINE",
"624 334 LINE",
"624 494 OFFCURVE",
"524 580 OFFCURVE",
"333 580 CURVE SMOOTH",
"231.918 580 OFFCURVE",
"142.346 555.778 OFFCURVE",
"75 506 CURVE",
"62 386 LINE",
"123 432 OFFCURVE",
"209 465 OFFCURVE",
"307 465 CURVE SMOOTH",
"412 465 OFFCURVE",
"477 427 OFFCURVE",
"477 353 CURVE",
"477 332 LINE",
"440 332 LINE SMOOTH",
"165 332 OFFCURVE",
"30 265 OFFCURVE",
"30 128 CURVE SMOOTH"
);
},
{
closed = 1;
nodes = (
"169 209 OFFCURVE",
"258 236 OFFCURVE",
"444 236 CURVE SMOOTH",
"477 236 LINE",
"477 167 LINE",
"410 120 OFFCURVE",
"347 92 OFFCURVE",
"275 92 CURVE SMOOTH",
"209 92 OFFCURVE",
"169 115 OFFCURVE",
"169 153 CURVE SMOOTH"
);
}
);
width = 674;
},
{
anchors = (
{
name = bottom;
position = "{340, 0}";
},
{
name = ogonek;
position = "{611, 10}";
},
{
name = top;
position = "{350, 560}";
}
);
associatedMasterId = "6BCBDBF6-8315-4194-A290-F71994A92467";
background = {
paths = (
{
closed = 1;
nodes = (
"35 36 OFFCURVE",
"111 -21 OFFCURVE",
"234 -21 CURVE SMOOTH",
"337 -21 OFFCURVE",
"423 21 OFFCURVE",
"483 100 CURVE",
"483 0 LINE",
"629 0 LINE",
"629 334 LINE",
"629 494 OFFCURVE",
"529 580 OFFCURVE",
"338 580 CURVE SMOOTH",
"233 580 OFFCURVE",
"139 557 OFFCURVE",
"70 506 CURVE",
"64 386 LINE",
"120 433 OFFCURVE",
"210 465 OFFCURVE",
"309 465 CURVE SMOOTH",
"417 465 OFFCURVE",
"482 427 OFFCURVE",
"482 353 CURVE",
"482 332 LINE",
"445 332 LINE SMOOTH",
"170 332 OFFCURVE",
"35 265 OFFCURVE",
"35 128 CURVE SMOOTH"
);
},
{
closed = 1;
nodes = (
"174 209 OFFCURVE",
"263 236 OFFCURVE",
"449 236 CURVE SMOOTH",
"482 236 LINE",
"482 182 LINE",
"415 120 OFFCURVE",
"352 92 OFFCURVE",
"280 92 CURVE SMOOTH",
"214 92 OFFCURVE",
"174 115 OFFCURVE",
"174 153 CURVE SMOOTH"
);
}
);
};
layerId = "370C5AEF-266A-453E-966C-B6C91ADFBF5B";
name = "11 Jan 21, 18:01";
paths = (
{
closed = 1;
nodes = (
"35 36 OFFCURVE",
"111 -21 OFFCURVE",
"234 -21 CURVE SMOOTH",
"337 -21 OFFCURVE",
"423 21 OFFCURVE",
"483 100 CURVE",
"483 0 LINE",
"629 0 LINE",
"629 334 LINE",
"629 494 OFFCURVE",
"519 580 OFFCURVE",
"328 580 CURVE SMOOTH",
"227 580 OFFCURVE",
"147 556 OFFCURVE",
"80 506 CURVE",
"80 394 LINE",
"152 437 OFFCURVE",
"227 463 OFFCURVE",
"313 463 CURVE SMOOTH",
"417 463 OFFCURVE",
"482 425 OFFCURVE",
"482 345 CURVE",
"482 332 LINE",
"445 332 LINE SMOOTH",
"170 332 OFFCURVE",
"35 265 OFFCURVE",
"35 134 CURVE SMOOTH"
);
},
{
closed = 1;
nodes = (
"174 208 OFFCURVE",
"263 236 OFFCURVE",
"449 236 CURVE SMOOTH",
"482 236 LINE",
"482 167 LINE",
"408 115 OFFCURVE",
"346 92 OFFCURVE",
"280 92 CURVE SMOOTH",
"214 92 OFFCURVE",
"174 115 OFFCURVE",
"174 152 CURVE SMOOTH"
);
}
);
width = 679;
},
{
anchors = (
{
name = bottom;
position = "{331, 0}";
},
{
name = ogonek;
position = "{602, 10}";
},
{
name = top;
position = "{351, 560}";
}
);
associatedMasterId = "6BCBDBF6-8315-4194-A290-F71994A92467";
background = {
paths = (
{
closed = 1;
nodes = (
"26 36 OFFCURVE",
"102 -21 OFFCURVE",
"225 -21 CURVE SMOOTH",
"328 -21 OFFCURVE",
"414 21 OFFCURVE",
"474 100 CURVE",
"474 0 LINE",
"620 0 LINE",
"620 334 LINE",
"620 494 OFFCURVE",
"520 580 OFFCURVE",
"329 580 CURVE SMOOTH",
"224 580 OFFCURVE",
"130 557 OFFCURVE",
"61 506 CURVE",
"55 386 LINE",
"111 433 OFFCURVE",
"201 465 OFFCURVE",
"300 465 CURVE SMOOTH",
"408 465 OFFCURVE",
"473 427 OFFCURVE",
"473 353 CURVE",
"473 332 LINE",
"436 332 LINE SMOOTH",
"161 332 OFFCURVE",
"26 265 OFFCURVE",
"26 128 CURVE SMOOTH"
);
},
{
closed = 1;
nodes = (
"165 209 OFFCURVE",
"254 236 OFFCURVE",
"440 236 CURVE SMOOTH",
"473 236 LINE",
"473 182 LINE",
"406 120 OFFCURVE",
"343 92 OFFCURVE",
"271 92 CURVE SMOOTH",
"205 92 OFFCURVE",
"165 115 OFFCURVE",
"165 153 CURVE SMOOTH"
);
}
);
};
layerId = "F083FBB3-296E-4777-8981-D0C795E5C1F1";
name = "27 Mar 21, 02:48";
paths = (
{
closed = 1;
nodes = (
"35 37 OFFCURVE",
"109 -21 OFFCURVE",
"233 -21 CURVE SMOOTH",
"334 -21 OFFCURVE",
"412 18 OFFCURVE",
"474 100 CURVE",
"474 0 LINE",
"620 0 LINE",
"620 334 LINE",
"620 496 OFFCURVE",
"510 582 OFFCURVE",
"319 582 CURVE SMOOTH",
"218 582 OFFCURVE",
"138 558 OFFCURVE",
"71 508 CURVE",
"71 396 LINE",
"143 439 OFFCURVE",
"218 465 OFFCURVE",
"304 465 CURVE SMOOTH",
"408 465 OFFCURVE",
"473 427 OFFCURVE",
"473 345 CURVE",
"473 332 LINE",
"436 332 LINE SMOOTH",
"170 332 OFFCURVE",
"35 265 OFFCURVE",
"35 134 CURVE SMOOTH"
);
},
{
closed = 1;
nodes = (
"174 208 OFFCURVE",
"254 236 OFFCURVE",
"440 236 CURVE SMOOTH",
"473 236 LINE",
"473 167 LINE",
"404 115 OFFCURVE",
"337 92 OFFCURVE",
"275 92 CURVE SMOOTH",
"212 92 OFFCURVE",
"174 115 OFFCURVE",
"174 153 CURVE SMOOTH"
);
}
);
width = 670;
},
{
anchors = (
{
name = bottom;
position = "{331, 0}";
},
{
name = ogonek;
position = "{602, 10}";
},
{
name = top;
position = "{351, 560}";
}
);
associatedMasterId = "6BCBDBF6-8315-4194-A290-F71994A92467";
background = {
paths = (
{
closed = 1;
nodes = (
"26 36 OFFCURVE",
"102 -21 OFFCURVE",
"225 -21 CURVE SMOOTH",
"328 -21 OFFCURVE",
"414 21 OFFCURVE",
"474 100 CURVE",
"474 0 LINE",
"620 0 LINE",
"620 334 LINE",
"620 494 OFFCURVE",
"520 580 OFFCURVE",
"329 580 CURVE SMOOTH",
"224 580 OFFCURVE",
"130 557 OFFCURVE",
"61 506 CURVE",
"55 386 LINE",
"111 433 OFFCURVE",
"201 465 OFFCURVE",
"300 465 CURVE SMOOTH",
"408 465 OFFCURVE",
"473 427 OFFCURVE",
"473 353 CURVE",
"473 332 LINE",
"436 332 LINE SMOOTH",
"161 332 OFFCURVE",
"26 265 OFFCURVE",
"26 128 CURVE SMOOTH"
);
},
{
closed = 1;
nodes = (
"165 209 OFFCURVE",
"254 236 OFFCURVE",
"440 236 CURVE SMOOTH",
"473 236 LINE",
"473 182 LINE",
"406 120 OFFCURVE",
"343 92 OFFCURVE",
"271 92 CURVE SMOOTH",
"205 92 OFFCURVE",
"165 115 OFFCURVE",
"165 153 CURVE SMOOTH"
);
}
);
};
layerId = "0DD919BB-6D65-4C42-BDF4-8755C9D67F66";
name = "27 Mar 21, 14:14";
paths = (
{
closed = 1;
nodes = (
"35 37 OFFCURVE",
"109 -21 OFFCURVE",
"233 -21 CURVE SMOOTH",
"334 -21 OFFCURVE",
"412 18 OFFCURVE",
"474 100 CURVE",
"474 0 LINE",
"620 0 LINE",
"620 334 LINE",
"620 496 OFFCURVE",
"510 582 OFFCURVE",
"319 582 CURVE SMOOTH",
"225 582 OFFCURVE",
"143 561 OFFCURVE",
"71 518 CURVE",
"71 406 LINE",
"160 447 OFFCURVE",
"232 465 OFFCURVE",
"304 465 CURVE SMOOTH",
"408 465 OFFCURVE",
"473 427 OFFCURVE",
"473 345 CURVE",
"473 332 LINE",
"436 332 LINE SMOOTH",
"170 332 OFFCURVE",
"35 265 OFFCURVE",
"35 134 CURVE SMOOTH"
);
},
{
closed = 1;
nodes = (
"174 208 OFFCURVE",
"254 236 OFFCURVE",
"440 236 CURVE SMOOTH",
"473 236 LINE",
"473 167 LINE",
"404 115 OFFCURVE",
"337 92 OFFCURVE",
"275 92 CURVE SMOOTH",
"212 92 OFFCURVE",
"174 115 OFFCURVE",
"174 153 CURVE SMOOTH"
);
}
);
width = 670;
},
{
anchors = (
{
name = bottom;
position = "{331, 0}";
},
{
name = ogonek;
position = "{602, 10}";
},
{
name = top;
position = "{351, 560}";
}
);
associatedMasterId = "6BCBDBF6-8315-4194-A290-F71994A92467";
background = {
paths = (
{
closed = 1;
nodes = (
"26 36 OFFCURVE",
"102 -21 OFFCURVE",
"225 -21 CURVE SMOOTH",
"328 -21 OFFCURVE",
"414 21 OFFCURVE",
"474 100 CURVE",
"474 0 LINE",
"620 0 LINE",
"620 334 LINE",
"620 494 OFFCURVE",
"520 580 OFFCURVE",
"329 580 CURVE SMOOTH",
"224 580 OFFCURVE",
"130 557 OFFCURVE",
"61 506 CURVE",
"55 386 LINE",
"111 433 OFFCURVE",
"201 465 OFFCURVE",
"300 465 CURVE SMOOTH",
"408 465 OFFCURVE",
"473 427 OFFCURVE",
"473 353 CURVE",
"473 332 LINE",
"436 332 LINE SMOOTH",
"161 332 OFFCURVE",
"26 265 OFFCURVE",
"26 128 CURVE SMOOTH"
);
},
{
closed = 1;
nodes = (
"165 209 OFFCURVE",
"254 236 OFFCURVE",
"440 236 CURVE SMOOTH",
"473 236 LINE",
"473 182 LINE",
"406 120 OFFCURVE",
"343 92 OFFCURVE",
"271 92 CURVE SMOOTH",
"205 92 OFFCURVE",
"165 115 OFFCURVE",
"165 153 CURVE SMOOTH"
);
}
);
};
layerId = "3D7FFDC9-36A3-4558-8D8B-5B659A54364B";
name = "9 May 21, 13:57";
paths = (
{
closed = 1;
nodes = (
"35 39 OFFCURVE",
"107 -16 OFFCURVE",
"233 -16 CURVE SMOOTH",
"338 -16 OFFCURVE",
"414 21 OFFCURVE",
"474 100 CURVE",
"474 0 LINE",
"620 0 LINE",
"620 334 LINE SMOOTH",
"620 490 OFFCURVE",
"512 577 OFFCURVE",
"319 577 CURVE SMOOTH",
"228 577 OFFCURVE",
"155 557 OFFCURVE",
"81 513 CURVE",
"81 403 LINE",
"174 446 OFFCURVE",
"235 462 OFFCURVE",
"304 462 CURVE SMOOTH",
"412 462 OFFCURVE",
"473 420 OFFCURVE",
"473 345 CURVE SMOOTH",
"473 326 LINE",
"436 326 LINE SMOOTH",
"166 326 OFFCURVE",
"35 263 OFFCURVE",
"35 134 CURVE SMOOTH"
);
},
{
closed = 1;
nodes = (
"178 208 OFFCURVE",
"245 236 OFFCURVE",
"440 236 CURVE SMOOTH",
"473 236 LINE",
"473 167 LINE",
"407 117 OFFCURVE",
"340 92 OFFCURVE",
"275 92 CURVE SMOOTH",
"216 92 OFFCURVE",
"178 115 OFFCURVE",
"178 153 CURVE SMOOTH"
);
}
);
width = 670;
}
);
leftKerningGroup = a;
rightKerningGroup = n;
unicode = 0061;
},
{
glyphname = aogonek;
lastChange = "2021-05-02 21:54:42 +0000";
layers = (
{
anchors = (
{
name = _ogonek;
position = "{611, 10}";
}
);
components = (
{
name = a;
}
);
layerId = "6BCBDBF6-8315-4194-A290-F71994A92467";
paths = (
{
closed = 1;
nodes = (
"493 24 LINE",
"415 -17 OFFCURVE",
"366 -82 OFFCURVE",
"366 -146 CURVE SMOOTH",
"366 -243 OFFCURVE",
"460 -288 OFFCURVE",
"611 -263 CURVE",
"611 -160 LINE",
"531 -178 OFFCURVE",
"480 -160 OFFCURVE",
"480 -116 CURVE SMOOTH",
"480 -73 OFFCURVE",
"526 -22 OFFCURVE",
"620 0 CURVE"
);
}
);
width = 679;
}
);
leftKerningGroup = a;
rightKerningGroup = n;
unicode = 0105;
},
{
glyphname = ae;
lastChange = "2021-05-02 21:54:42 +0000";
layers = (
{
anchors = (
{
name = bottom;
position = "{774, 0}";
},
{
name = ogonek;
position = "{1042, 10}";
},
{
name = top;
position = "{774, 560}";
}
);
layerId = "6BCBDBF6-8315-4194-A290-F71994A92467";
paths = (
{
closed = 1;
nodes = (
"35 37 OFFCURVE",
"109 -21 OFFCURVE",
"233 -21 CURVE SMOOTH",
"342 -21 OFFCURVE",
"426 10 OFFCURVE",
"532 106 CURVE",
"600 200 LINE",
"600 334 LINE SMOOTH",
"600 492 OFFCURVE",
"510 577 OFFCURVE",
"319 577 CURVE SMOOTH",
"225 577 OFFCURVE",
"153 556 OFFCURVE",
"81 513 CURVE",
"81 401 LINE",
"170 442 OFFCURVE",
"232 460 OFFCURVE",
"304 460 CURVE SMOOTH",
"408 460 OFFCURVE",
"473 421 OFFCURVE",
"473 345 CURVE SMOOTH",
"473 326 LINE",
"436 326 LINE SMOOTH",
"170 326 OFFCURVE",
"35 265 OFFCURVE",
"35 134 CURVE SMOOTH"
);
},
{
closed = 1;
nodes = (
"174 208 OFFCURVE",
"254 236 OFFCURVE",
"440 236 CURVE SMOOTH",
"473 236 LINE",
"473 167 LINE",
"404 115 OFFCURVE",
"337 92 OFFCURVE",
"275 92 CURVE SMOOTH",
"212 92 OFFCURVE",
"174 115 OFFCURVE",
"174 153 CURVE SMOOTH"
);
},
{
closed = 1;
nodes = (
"474 97 OFFCURVE",
"598 -21 OFFCURVE",
"819 -21 CURVE SMOOTH",
"911 -21 OFFCURVE",
"990 -3 OFFCURVE",
"1053 33 CURVE",
"1068 149 LINE",
"987 114 OFFCURVE",
"914 99 OFFCURVE",
"829 99 CURVE SMOOTH",
"705 99 OFFCURVE",
"622 150 OFFCURVE",
"602 242 CURVE",
"1069 242 LINE",
"1069 314 LINE SMOOTH",
"1069 472 OFFCURVE",
"950 577 OFFCURVE",
"771 577 CURVE SMOOTH",
"578 577 OFFCURVE",
"474 461 OFFCURVE",
"474 279 CURVE SMOOTH"
);
},
{
closed = 1;
nodes = (
"606 417 OFFCURVE",
"666 462 OFFCURVE",
"770 462 CURVE SMOOTH",
"871 462 OFFCURVE",
"926 419 OFFCURVE",
"930 332 CURVE",
"600 332 LINE"
);
}
);
width = 1104;
}
);
leftKerningGroup = a;
leftMetricsKey = a;
rightKerningGroup = e;
rightMetricsKey = e;
unicode = 00E6;
},
{
color = 3;
glyphname = b;
lastChange = "2021-05-09 11:46:37 +0000";
layers = (
{
anchors = (
{
name = bottom;
position = "{378, 0}";
},
{
name = top;
position = "{378, 785}";
}
);
background = {
paths = (
{
closed = 1;
nodes = (
"248 35 OFFCURVE",
"337 -21 OFFCURVE",
"444 -21 CURVE SMOOTH",
"604 -21 OFFCURVE",
"715 101 OFFCURVE",
"715 276 CURVE SMOOTH",
"715 451 OFFCURVE",
"601 577 OFFCURVE",
"443 577 CURVE SMOOTH",
"335 577 OFFCURVE",
"240 518 OFFCURVE",
"187 415 CURVE",
"193 355 LINE",
"243 425 OFFCURVE",
"305 458 OFFCURVE",
"379 458 CURVE SMOOTH",
"488 458 OFFCURVE",
"561 387 OFFCURVE",
"561 279 CURVE SMOOTH",
"561 172 OFFCURVE",
"487 98 OFFCURVE",
"379 98 CURVE SMOOTH",
"298 98 OFFCURVE",
"235 140 OFFCURVE",
"194 223 CURVE",
"174 149 LINE"
);
},
{
closed = 1;
nodes = (
"61 785 LINE",
"61 0 LINE",
"211 0 LINE",
"211 785 LINE"
);
}
);
};
layerId = "6BCBDBF6-8315-4194-A290-F71994A92467";
paths = (
{
closed = 1;
nodes = (
"350 577 OFFCURVE",
"262 531 OFFCURVE",
"211 451 CURVE",
"211 785 LINE",
"61 785 LINE",
"61 0 LINE",
"211 0 LINE",
"211 101 LINE",
"267 24 OFFCURVE",
"348 -21 OFFCURVE",
"446 -21 CURVE SMOOTH",
"608 -21 OFFCURVE",
"720 102 OFFCURVE",
"720 276 CURVE SMOOTH",
"720 459 OFFCURVE",
"597 577 OFFCURVE",
"445 577 CURVE SMOOTH"
);
},
{
closed = 1;
nodes = (
"497 458 OFFCURVE",
"566 386 OFFCURVE",
"566 278 CURVE SMOOTH",
"566 170 OFFCURVE",
"496 98 OFFCURVE",
"388 98 CURVE SMOOTH",
"280 98 OFFCURVE",
"206 169 OFFCURVE",
"206 275 CURVE SMOOTH",
"206 285 LINE SMOOTH",
"206 389 OFFCURVE",
"281 458 OFFCURVE",
"388 458 CURVE SMOOTH"
);
}
);
width = 755;
},
{
associatedMasterId = "6BCBDBF6-8315-4194-A290-F71994A92467";
layerId = "0B1A8D80-A616-4F1F-8F4E-5466CEE0D393";
name = foreground;
paths = (
{
closed = 1;
nodes = (
"366 577 OFFCURVE",
"278 531 OFFCURVE",
"227 451 CURVE",
"227 785 LINE",
"77 785 LINE",
"77 0 LINE",
"227 0 LINE",
"227 101 LINE",
"283 24 OFFCURVE",
"364 -21 OFFCURVE",
"462 -21 CURVE SMOOTH",
"624 -21 OFFCURVE",
"736 102 OFFCURVE",
"736 276 CURVE SMOOTH",
"736 459 OFFCURVE",
"613 577 OFFCURVE",
"461 577 CURVE SMOOTH"
);
},
{
closed = 1;
nodes = (
"513 458 OFFCURVE",
"582 386 OFFCURVE",
"582 278 CURVE SMOOTH",
"582 170 OFFCURVE",
"512 98 OFFCURVE",
"404 98 CURVE SMOOTH",
"296 98 OFFCURVE",
"222 169 OFFCURVE",
"222 275 CURVE SMOOTH",
"222 285 LINE SMOOTH",
"222 389 OFFCURVE",
"297 458 OFFCURVE",
"404 458 CURVE SMOOTH"
);
}
);
width = 781;
}
);
leftMetricsKey = n;
rightMetricsKey = o;
unicode = 0062;
},
{
color = 3;
glyphname = c;
lastChange = "2021-05-09 12:03:26 +0000";
layers = (
{
anchors = (
{
name = bottom;
position = "{321, 0}";
},
{
name = top;
position = "{351, 560}";
}
);
background = {
paths = (
{
closed = 1;
nodes = (
"169 577 OFFCURVE",
"39 464 OFFCURVE",
"39 279 CURVE SMOOTH",
"39 92 OFFCURVE",
"172 -21 OFFCURVE",
"374 -21 CURVE SMOOTH",
"465 -21 OFFCURVE",
"548 2 OFFCURVE",
"608 39 CURVE",
"608 176 LINE",
"556 130 OFFCURVE",
"474 99 OFFCURVE",
"391 99 CURVE SMOOTH",
"270 99 OFFCURVE",
"189 166 OFFCURVE",
"189 281 CURVE SMOOTH",
"189 392 OFFCURVE",
"266 457 OFFCURVE",
"392 457 CURVE SMOOTH",
"481 457 OFFCURVE",
"548 425 OFFCURVE",
"599 383 CURVE",
"599 521 LINE",
"548 556 OFFCURVE",
"468 577 OFFCURVE",
"381 577 CURVE SMOOTH"
);
}
);
};
guideLines = (
{
angle = 180;
position = "{526, 150}";
showMeasurement = 1;
}
);
layerId = "6BCBDBF6-8315-4194-A290-F71994A92467";
paths = (
{
closed = 1;
nodes = (
"164 577 OFFCURVE",
"35 463 OFFCURVE",
"35 279 CURVE SMOOTH",
"35 94 OFFCURVE",
"165 -21 OFFCURVE",
"374 -21 CURVE SMOOTH",
"464 -21 OFFCURVE",
"536 -4 OFFCURVE",
"598 31 CURVE",
"608 155 LINE",
"555 122 OFFCURVE",
"474 103 OFFCURVE",
"404 103 CURVE SMOOTH",
"267 103 OFFCURVE",
"189 173 OFFCURVE",
"189 281 CURVE SMOOTH",
"189 391 OFFCURVE",
"265 457 OFFCURVE",
"392 457 CURVE SMOOTH",
"456 457 OFFCURVE",
"519 441 OFFCURVE",
"597 403 CURVE",
"592 528 LINE",
"518 562 OFFCURVE",
"450 577 OFFCURVE",
"373 577 CURVE SMOOTH"
);
}
);
width = 638;
},
{
associatedMasterId = "6BCBDBF6-8315-4194-A290-F71994A92467";
layerId = "25EFDEB6-5390-4959-815F-01C5FCEC485A";
name = foreground;
paths = (
{
closed = 1;
nodes = (
"175 577 OFFCURVE",
"45 464 OFFCURVE",
"45 279 CURVE SMOOTH",
"45 92 OFFCURVE",
"178 -21 OFFCURVE",
"380 -21 CURVE SMOOTH",
"471 -21 OFFCURVE",
"544 2 OFFCURVE",
"604 39 CURVE",
"614 166 LINE",
"562 130 OFFCURVE",
"480 99 OFFCURVE",
"397 99 CURVE SMOOTH",
"276 99 OFFCURVE",
"195 166 OFFCURVE",
"195 281 CURVE SMOOTH",
"195 392 OFFCURVE",
"272 457 OFFCURVE",
"398 457 CURVE SMOOTH",
"487 457 OFFCURVE",
"554 425 OFFCURVE",
"605 383 CURVE",
"596 516 LINE",
"545 551 OFFCURVE",
"474 577 OFFCURVE",
"377 577 CURVE SMOOTH"
);
}
);
width = 644;
},
{
anchors = (
{
name = bottom;
position = "{321, 0}";
},
{
name = top;
position = "{351, 560}";
}
);
associatedMasterId = "6BCBDBF6-8315-4194-A290-F71994A92467";
background = {
paths = (
{
closed = 1;
nodes = (
"169 577 OFFCURVE",
"39 464 OFFCURVE",
"39 279 CURVE SMOOTH",
"39 92 OFFCURVE",
"172 -21 OFFCURVE",
"374 -21 CURVE SMOOTH",
"465 -21 OFFCURVE",
"548 2 OFFCURVE",
"608 39 CURVE",
"608 176 LINE",
"556 130 OFFCURVE",
"474 99 OFFCURVE",
"391 99 CURVE SMOOTH",
"270 99 OFFCURVE",
"189 166 OFFCURVE",
"189 281 CURVE SMOOTH",
"189 392 OFFCURVE",
"266 457 OFFCURVE",
"392 457 CURVE SMOOTH",
"481 457 OFFCURVE",
"548 425 OFFCURVE",
"599 383 CURVE",
"599 521 LINE",
"548 556 OFFCURVE",
"468 577 OFFCURVE",
"381 577 CURVE SMOOTH"
);
}
);
};
layerId = "DC93612F-0771-4A8A-978E-DE25D1AF7339";
name = "11 Apr 21, 22:10";
paths = (
{
closed = 1;
nodes = (
"164 577 OFFCURVE",
"35 463 OFFCURVE",
"35 279 CURVE SMOOTH",
"35 94 OFFCURVE",
"165 -21 OFFCURVE",
"374 -21 CURVE SMOOTH",
"459 -21 OFFCURVE",
"533 -1 OFFCURVE",
"598 39 CURVE",
"608 166 LINE",
"549 125 OFFCURVE",
"465 99 OFFCURVE",
"391 99 CURVE SMOOTH",
"267 99 OFFCURVE",
"189 169 OFFCURVE",
"189 281 CURVE SMOOTH",
"189 391 OFFCURVE",
"265 457 OFFCURVE",
"392 457 CURVE SMOOTH",
"463 457 OFFCURVE",
"530 436 OFFCURVE",
"599 393 CURVE",
"590 516 LINE",
"531 556 OFFCURVE",
"457 577 OFFCURVE",
"371 577 CURVE SMOOTH"
);
}
);
width = 638;
},
{
anchors = (
{
name = bottom;
position = "{321, 0}";
},
{
name = top;
position = "{351, 560}";
}
);
associatedMasterId = "6BCBDBF6-8315-4194-A290-F71994A92467";
background = {
paths = (
{
closed = 1;
nodes = (
"169 577 OFFCURVE",
"39 464 OFFCURVE",
"39 279 CURVE SMOOTH",
"39 92 OFFCURVE",
"172 -21 OFFCURVE",
"374 -21 CURVE SMOOTH",
"465 -21 OFFCURVE",
"548 2 OFFCURVE",
"608 39 CURVE",
"608 176 LINE",
"556 130 OFFCURVE",
"474 99 OFFCURVE",
"391 99 CURVE SMOOTH",
"270 99 OFFCURVE",
"189 166 OFFCURVE",
"189 281 CURVE SMOOTH",
"189 392 OFFCURVE",
"266 457 OFFCURVE",
"392 457 CURVE SMOOTH",
"481 457 OFFCURVE",
"548 425 OFFCURVE",
"599 383 CURVE",
"599 521 LINE",
"548 556 OFFCURVE",
"468 577 OFFCURVE",
"381 577 CURVE SMOOTH"
);
}
);
};
layerId = "D424775A-6410-48E0-B20F-8CA08212824B";
name = "19 Apr 21, 14:22";
paths = (
{
closed = 1;
nodes = (
"164 577 OFFCURVE",
"35 463 OFFCURVE",
"35 279 CURVE SMOOTH",
"35 94 OFFCURVE",
"165 -21 OFFCURVE",
"374 -21 CURVE SMOOTH",
"459 -21 OFFCURVE",
"533 -1 OFFCURVE",
"598 39 CURVE",
"608 166 LINE",
"549 125 OFFCURVE",
"465 99 OFFCURVE",
"391 99 CURVE SMOOTH",
"267 99 OFFCURVE",
"189 169 OFFCURVE",
"189 281 CURVE SMOOTH",
"189 391 OFFCURVE",
"265 457 OFFCURVE",
"392 457 CURVE SMOOTH",
"459 457 OFFCURVE",
"522 439 OFFCURVE",
"597 403 CURVE",
"592 528 LINE",
"524 559 OFFCURVE",
"457 577 OFFCURVE",
"373 577 CURVE SMOOTH"
);
}
);
width = 638;
}
);
leftKerningGroup = o;
leftMetricsKey = o;
rightKerningGroup = c;
unicode = 0063;
},
{
color = 3;
glyphname = d;
lastChange = "2021-05-02 21:54:42 +0000";
layers = (
{
anchors = (
{
name = bottom;
position = "{382, 0}";
},
{
name = center;
position = "{382, 280}";
},
{
name = top;
position = "{382, 785}";
},
{
name = topright;
position = "{673, 785}";
}
);
layerId = "6BCBDBF6-8315-4194-A290-F71994A92467";
paths = (
{
closed = 1;
nodes = (
"154 577 OFFCURVE",
"35 459 OFFCURVE",
"35 280 CURVE SMOOTH",
"35 103 OFFCURVE",
"155 -21 OFFCURVE",
"315 -21 CURVE SMOOTH",
"411 -21 OFFCURVE",
"491 24 OFFCURVE",
"544 111 CURVE",
"544 0 LINE",
"694 0 LINE",
"694 785 LINE",
"544 785 LINE",
"544 456 LINE",
"498 533 OFFCURVE",
"413 577 OFFCURVE",
"315 577 CURVE SMOOTH"
);
},
{
closed = 1;
nodes = (
"476 458 OFFCURVE",
"549 389 OFFCURVE",
"549 285 CURVE SMOOTH",
"549 275 LINE SMOOTH",
"549 169 OFFCURVE",
"477 98 OFFCURVE",
"369 98 CURVE SMOOTH",
"260 98 OFFCURVE",
"189 170 OFFCURVE",
"189 278 CURVE SMOOTH",
"189 386 OFFCURVE",
"260 458 OFFCURVE",
"369 458 CURVE SMOOTH"
);
}
);
width = 764;
},
{
associatedMasterId = "6BCBDBF6-8315-4194-A290-F71994A92467";
layerId = "80F3C2C6-F840-408D-B691-497C6895E5B2";
name = foreground;
paths = (
{
closed = 1;
nodes = (
"154 572 OFFCURVE",
"35 454 OFFCURVE",
"35 280 CURVE SMOOTH",
"35 103 OFFCURVE",
"155 -21 OFFCURVE",
"315 -21 CURVE SMOOTH",
"411 -21 OFFCURVE",
"491 24 OFFCURVE",
"544 111 CURVE",
"544 0 LINE",
"694 0 LINE",
"694 785 LINE",
"544 785 LINE",
"544 456 LINE",
"498 528 OFFCURVE",
"413 572 OFFCURVE",
"315 572 CURVE SMOOTH"
);
},
{
closed = 1;
nodes = (
"476 458 OFFCURVE",
"549 389 OFFCURVE",
"549 285 CURVE SMOOTH",
"549 275 LINE SMOOTH",
"549 169 OFFCURVE",
"477 98 OFFCURVE",
"369 98 CURVE SMOOTH",
"260 98 OFFCURVE",
"189 170 OFFCURVE",
"189 278 CURVE SMOOTH",
"189 386 OFFCURVE",
"260 458 OFFCURVE",
"369 458 CURVE SMOOTH"
);
}
);
width = 764;
}
);
leftMetricsKey = o;
unicode = 0064;
},
{
glyphname = eth;
lastChange = "2021-05-02 21:54:42 +0000";
layers = (
{
layerId = "6BCBDBF6-8315-4194-A290-F71994A92467";
paths = (
{
closed = 1;
nodes = (
"35 449 OFFCURVE",
"35 276 CURVE SMOOTH",
"35 93 OFFCURVE",
"157 -23 OFFCURVE",
"349 -23 CURVE SMOOTH",
"556 -23 OFFCURVE",
"689 107 OFFCURVE",
"689 310 CURVE SMOOTH",
"689 547 OFFCURVE",
"550 741 OFFCURVE",
"338 798 CURVE",
"187 746 LINE",
"348 703 OFFCURVE",
"474 598 OFFCURVE",
"510 477 CURVE",
"469 530 OFFCURVE",
"408 558 OFFCURVE",
"324 558 CURVE SMOOTH",
"157 558 OFFCURVE"
);
},
{
closed = 1;
nodes = (
"261 451 OFFCURVE",
"370 451 CURVE SMOOTH",
"480 451 OFFCURVE",
"550 384 OFFCURVE",
"550 279 CURVE SMOOTH",
"550 176 OFFCURVE",
"478 108 OFFCURVE",
"370 108 CURVE SMOOTH",
"258 108 OFFCURVE",
"189 174 OFFCURVE",
"189 279 CURVE SMOOTH",
"189 382 OFFCURVE"
);
},
{
closed = 1;
nodes = (
"135 587 LINE",
"517 658 LINE",
"528 662 LINE",
"699 694 LINE",
"678 760 LINE",
"114 656 LINE"
);
}
);
width = 729;
},
{
associatedMasterId = "6BCBDBF6-8315-4194-A290-F71994A92467";
layerId = "23034B76-0AA5-406E-BD98-F8ADBF514EED";
name = "27 Mar 21, 14:11";
paths = (
{
closed = 1;
nodes = (
"154 567 OFFCURVE",
"35 449 OFFCURVE",
"35 280 CURVE SMOOTH",
"35 103 OFFCURVE",
"165 -21 OFFCURVE",
"363 -21 CURVE SMOOTH",
"573 -21 OFFCURVE",
"696 111 OFFCURVE",
"696 339 CURVE SMOOTH",
"696 551 OFFCURVE",
"604 711 OFFCURVE",
"435 793 CURVE",
"277 770 LINE",
"452 686 OFFCURVE",
"529 591 OFFCURVE",
"544 446 CURVE",
"498 533 OFFCURVE",
"413 567 OFFCURVE",
"322 567 CURVE SMOOTH"
);
},
{
closed = 1;
nodes = (
"476 448 OFFCURVE",
"549 379 OFFCURVE",
"549 285 CURVE SMOOTH",
"549 275 LINE SMOOTH",
"549 179 OFFCURVE",
"477 108 OFFCURVE",
"369 108 CURVE SMOOTH",
"260 108 OFFCURVE",
"189 180 OFFCURVE",
"189 278 CURVE SMOOTH",
"189 376 OFFCURVE",
"260 448 OFFCURVE",
"369 448 CURVE SMOOTH"
);
},
{
closed = 1;
nodes = (
"135 587 LINE",
"517 658 LINE",
"528 662 LINE",
"699 694 LINE",
"678 780 LINE",
"114 676 LINE"
);
}
);
width = 729;
},
{
associatedMasterId = "6BCBDBF6-8315-4194-A290-F71994A92467";
layerId = "BDB93156-3DDD-4BCE-A721-670BA33AB712";
name = "11 Apr 21, 22:13";
paths = (
{
closed = 1;
nodes = (
"35 449 OFFCURVE",
"35 276 CURVE SMOOTH",
"35 93 OFFCURVE",
"157 -23 OFFCURVE",
"349 -23 CURVE SMOOTH",
"556 -23 OFFCURVE",
"689 107 OFFCURVE",
"689 310 CURVE SMOOTH",
"689 547 OFFCURVE",
"550 741 OFFCURVE",
"338 798 CURVE",
"187 746 LINE",
"348 703 OFFCURVE",
"474 598 OFFCURVE",
"510 477 CURVE",
"469 530 OFFCURVE",
"398 561 OFFCURVE",
"320 561 CURVE SMOOTH",
"147 561 OFFCURVE"
);
},
{
closed = 1;
nodes = (
"261 451 OFFCURVE",
"370 451 CURVE SMOOTH",
"480 451 OFFCURVE",
"550 384 OFFCURVE",
"550 279 CURVE SMOOTH",
"550 176 OFFCURVE",
"478 108 OFFCURVE",
"370 108 CURVE SMOOTH",
"258 108 OFFCURVE",
"189 174 OFFCURVE",
"189 279 CURVE SMOOTH",
"189 382 OFFCURVE"
);
},
{
closed = 1;
nodes = (
"135 587 LINE",
"517 658 LINE",
"528 662 LINE",
"699 694 LINE",
"678 760 LINE",
"114 656 LINE"
);
}
);
width = 729;
}
);
leftKerningGroup = eth;
rightKerningGroup = eth;
unicode = 00F0;
},
{
glyphname = dcroat;
lastChange = "2021-05-02 21:54:42 +0000";
layers = (
{
anchors = (
{
name = bottom;
position = "{382, 0}";
},
{
name = center;
position = "{382, 280}";
},
{
name = top;
position = "{382, 785}";
},
{
name = topright;
position = "{744, 893}";
}
);
layerId = "6BCBDBF6-8315-4194-A290-F71994A92467";
paths = (
{
closed = 1;
nodes = (
"154 577 OFFCURVE",
"35 459 OFFCURVE",
"35 280 CURVE SMOOTH",
"35 103 OFFCURVE",
"155 -21 OFFCURVE",
"315 -21 CURVE SMOOTH",
"411 -21 OFFCURVE",
"491 24 OFFCURVE",
"544 111 CURVE",
"544 0 LINE",
"694 0 LINE",
"694 785 LINE",
"544 785 LINE",
"544 456 LINE",
"498 533 OFFCURVE",
"413 577 OFFCURVE",
"315 577 CURVE SMOOTH"
);
},
{
closed = 1;
nodes = (
"476 458 OFFCURVE",
"549 389 OFFCURVE",
"549 285 CURVE SMOOTH",
"549 275 LINE SMOOTH",
"549 169 OFFCURVE",
"477 98 OFFCURVE",
"369 98 CURVE SMOOTH",
"260 98 OFFCURVE",
"189 170 OFFCURVE",
"189 278 CURVE SMOOTH",
"189 386 OFFCURVE",
"260 458 OFFCURVE",
"369 458 CURVE SMOOTH"
);
}
);
width = 764;
}
);
leftKerningGroup = o;
rightKerningGroup = l;
rightMetricsKey = d;
unicode = 0111;
},
{
color = 3;
glyphname = e;
lastChange = "2021-05-09 12:00:46 +0000";
layers = (
{
anchors = (
{
name = bottom;
position = "{335, 0}";
},
{
name = ogonek;
position = "{603, 10}";
},
{
name = top;
position = "{345, 560}";
}
);
layerId = "6BCBDBF6-8315-4194-A290-F71994A92467";
paths = (
{
closed = 1;
nodes = (
"35 97 OFFCURVE",
"179 -21 OFFCURVE",
"400 -21 CURVE SMOOTH",
"492 -21 OFFCURVE",
"571 -3 OFFCURVE",
"634 23 CURVE",
"649 139 LINE",
"568 114 OFFCURVE",
"495 99 OFFCURVE",
"420 99 CURVE SMOOTH",
"286 99 OFFCURVE",
"203 153 OFFCURVE",
"183 245 CURVE",
"650 245 LINE",
"650 317 LINE SMOOTH",
"650 475 OFFCURVE",
"531 577 OFFCURVE",
"352 577 CURVE SMOOTH",
"159 577 OFFCURVE",
"35 461 OFFCURVE",
"35 279 CURVE SMOOTH"
);
},
{
closed = 1;
nodes = (
"187 420 OFFCURVE",
"247 465 OFFCURVE",
"351 465 CURVE SMOOTH",
"452 465 OFFCURVE",
"507 422 OFFCURVE",
"511 335 CURVE",
"181 335 LINE"
);
}
);
width = 685;
},
{
associatedMasterId = "6BCBDBF6-8315-4194-A290-F71994A92467";
layerId = "4E793C8F-AF5B-4DC9-921F-1BAA3FE47215";
name = foreground;
paths = (
{
closed = 1;
nodes = (
"35 101 OFFCURVE",
"174 -21 OFFCURVE",
"386 -21 CURVE SMOOTH",
"477 -21 OFFCURVE",
"561 2 OFFCURVE",
"634 43 CURVE",
"649 164 LINE",
"550 119 OFFCURVE",
"474 99 OFFCURVE",
"396 99 CURVE SMOOTH",
"277 99 OFFCURVE",
"203.1 145.559 OFFCURVE",
"183 234 CURVE",
"650 234 LINE",
"650 309 LINE SMOOTH",
"650 475 OFFCURVE",
"521 577 OFFCURVE",
"352 577 CURVE SMOOTH",
"165 577 OFFCURVE",
"35 467 OFFCURVE",
"35 279 CURVE SMOOTH"
);
},
{
closed = 1;
nodes = (
"187 419 OFFCURVE",
"255 462 OFFCURVE",
"351 462 CURVE SMOOTH",
"453 462 OFFCURVE",
"507 413 OFFCURVE",
"511 331 CURVE",
"181 331 LINE"
);
}
);
width = 694;
}
);
leftKerningGroup = o;
leftMetricsKey = o;
rightKerningGroup = e;
unicode = 0065;
},
{
glyphname = eogonek;
lastChange = "2021-05-02 21:54:42 +0000";
layers = (
{
anchors = (
{
name = _ogonek;
position = "{603, 10}";
}
);
components = (
{
name = e;
}
);
layerId = "6BCBDBF6-8315-4194-A290-F71994A92467";
paths = (
{
closed = 1;
nodes = (
"485 24 LINE",
"407 -17 OFFCURVE",
"358 -82 OFFCURVE",
"358 -146 CURVE SMOOTH",
"358 -243 OFFCURVE",
"452 -288 OFFCURVE",
"603 -263 CURVE",
"603 -160 LINE",
"523 -178 OFFCURVE",
"472 -160 OFFCURVE",
"472 -116 CURVE SMOOTH",
"472 -73 OFFCURVE",
"523 -13 OFFCURVE",
"606 29 CURVE"
);
}
);
width = 670;
}
);
leftKerningGroup = o;
rightKerningGroup = e;
unicode = 0119;
},
{
glyphname = schwa;
lastChange = "2021-05-02 21:54:42 +0000";
layers = (
{
anchors = (
{
name = bottom;
position = "{340, 0}";
},
{
name = ogonek;
position = "{82, 550}";
},
{
name = top;
position = "{350, 560}";
}
);
layerId = "6BCBDBF6-8315-4194-A290-F71994A92467";
paths = (
{
closed = 1;
nodes = (
"650 459 OFFCURVE",
"519 581 OFFCURVE",
"317 581 CURVE SMOOTH",
"226 581 OFFCURVE",
"142 558 OFFCURVE",
"69 517 CURVE",
"54 402 LINE",
"153 447 OFFCURVE",
"229 461 OFFCURVE",
"307 461 CURVE SMOOTH",
"416 461 OFFCURVE",
"482 414 OFFCURVE",
"502 326 CURVE",
"35 326 LINE",
"35 251 LINE SMOOTH",
"35 85 OFFCURVE",
"164 -17 OFFCURVE",
"333 -17 CURVE SMOOTH",
"520 -17 OFFCURVE",
"650 93 OFFCURVE",
"650 281 CURVE SMOOTH"
);
},
{
closed = 1;
nodes = (
"498 141 OFFCURVE",
"430 98 OFFCURVE",
"334 98 CURVE SMOOTH",
"232 98 OFFCURVE",
"178 147 OFFCURVE",
"174 229 CURVE",
"504 229 LINE"
);
}
);
width = 685;
}
);
leftKerningGroup = o;
rightKerningGroup = o;
unicode = 0259;
},
{
color = 3;
glyphname = f;
lastChange = "2021-05-06 19:58:29 +0000";
layers = (
{
anchors = (
{
name = bottom;
position = "{290, 0}";
},
{
name = top;
position = "{290, 785}";
}
);
background = {
paths = (
{
closed = 1;
nodes = (
"138 445 LINE",
"138 0 LINE",
"288 0 LINE",
"288 445 LINE",
"541 445 LINE",
"541 560 LINE",
"288 560 LINE",
"288 565 LINE SMOOTH",
"288 639 OFFCURVE",
"329 670 OFFCURVE",
"431 670 CURVE",
"497 670 OFFCURVE",
"549 657 OFFCURVE",
"593 629 CURVE",
"593 746 LINE",
"542 774 OFFCURVE",
"490 790 OFFCURVE",
"413 790 CURVE SMOOTH",
"238 790 OFFCURVE",
"138 706 OFFCURVE",
"138 568 CURVE SMOOTH",
"138 560 LINE",
"11 560 LINE",
"11 445 LINE"
);
}
);
};
layerId = "6BCBDBF6-8315-4194-A290-F71994A92467";
paths = (
{
closed = 1;
nodes = (
"127 445 LINE",
"127 0 LINE",
"277 0 LINE",
"277 445 LINE",
"530 445 LINE",
"530 560 LINE",
"277 560 LINE",
"277 565 LINE SMOOTH",
"277 639 OFFCURVE",
"329 670 OFFCURVE",
"430 670 CURVE SMOOTH",
"487 670 OFFCURVE",
"539 663 OFFCURVE",
"592 644 CURVE",
"587 763 LINE",
"528 781 OFFCURVE",
"470 790 OFFCURVE",
"402 790 CURVE SMOOTH",
"229 790 OFFCURVE",
"127 708 OFFCURVE",
"127 568 CURVE SMOOTH",
"127 560 LINE",
"10 560 LINE",
"10 445 LINE"
);
}
);
width = 588;
},
{
associatedMasterId = "6BCBDBF6-8315-4194-A290-F71994A92467";
layerId = "303B6ABA-5B31-4D9C-966E-80765D3CD197";
name = foreground;
paths = (
{
closed = 1;
nodes = (
"136 445 LINE",
"136 0 LINE",
"286 0 LINE",
"286 445 LINE",
"539 445 LINE",
"539 560 LINE",
"286 560 LINE",
"286 565 LINE SMOOTH",
"286 639 OFFCURVE",
"327 670 OFFCURVE",
"429 670 CURVE SMOOTH",
"490 670 OFFCURVE",
"549 659 OFFCURVE",
"597 641 CURVE",
"591 746 LINE",
"540 774 OFFCURVE",
"488 790 OFFCURVE",
"411 790 CURVE SMOOTH",
"236 790 OFFCURVE",
"136 706 OFFCURVE",
"136 568 CURVE SMOOTH",
"136 560 LINE",
"9 560 LINE",
"9 445 LINE"
);
}
);
width = 597;
},
{
anchors = (
{
name = bottom;
position = "{290, 0}";
},
{
name = top;
position = "{290, 785}";
}
);
associatedMasterId = "6BCBDBF6-8315-4194-A290-F71994A92467";
background = {
paths = (
{
closed = 1;
nodes = (
"138 445 LINE",
"138 0 LINE",
"288 0 LINE",
"288 445 LINE",
"541 445 LINE",
"541 560 LINE",
"288 560 LINE",
"288 565 LINE SMOOTH",
"288 639 OFFCURVE",
"329 670 OFFCURVE",
"431 670 CURVE",
"497 670 OFFCURVE",
"549 657 OFFCURVE",
"593 629 CURVE",
"593 746 LINE",
"542 774 OFFCURVE",
"490 790 OFFCURVE",
"413 790 CURVE SMOOTH",
"238 790 OFFCURVE",
"138 706 OFFCURVE",
"138 568 CURVE SMOOTH",
"138 560 LINE",
"11 560 LINE",
"11 445 LINE"
);
}
);
};
layerId = "80A3AD76-FB68-4875-A10F-AFA7CAD016D7";
name = "19 Apr 21, 12:08";
paths = (
{
closed = 1;
nodes = (
"127 445 LINE",
"127 0 LINE",
"277 0 LINE",
"277 445 LINE",
"530 445 LINE",
"530 560 LINE",
"277 560 LINE",
"277 565 LINE SMOOTH",
"277 639 OFFCURVE",
"329 670 OFFCURVE",
"430 670 CURVE SMOOTH",
"498 670 OFFCURVE",
"549 656 OFFCURVE",
"592 631 CURVE",
"587 750 LINE",
"529 777 OFFCURVE",
"470 790 OFFCURVE",
"402 790 CURVE SMOOTH",
"229 790 OFFCURVE",
"127 708 OFFCURVE",
"127 568 CURVE SMOOTH",
"127 560 LINE",
"10 560 LINE",
"10 445 LINE"
);
}
);
width = 588;
}
);
leftKerningGroup = f;
rightKerningGroup = f;
unicode = 0066;
},
{
color = 3;
glyphname = g;
lastChange = "2021-05-09 12:08:03 +0000";
layers = (
{
anchors = (
{
name = bottom;
position = "{382, -215}";
},
{
name = top;
position = "{382, 560}";
}
);
background = {
paths = (
{
closed = 1;
nodes = (
"40 131 OFFCURVE",
"160 8 OFFCURVE",
"314 8 CURVE SMOOTH",
"406 8 OFFCURVE",
"491 52 OFFCURVE",
"539 140 CURVE",
"539 72 LINE SMOOTH",
"539 -39 OFFCURVE",
"438 -93 OFFCURVE",
"322 -93 CURVE SMOOTH",
"213 -93 OFFCURVE",
"127 -47 OFFCURVE",
"70 0 CURVE",
"70 -135 LINE",
"123 -173 OFFCURVE",
"211 -214 OFFCURVE",
"335 -214 CURVE SMOOTH",
"502 -214 OFFCURVE",
"689 -141 OFFCURVE",
"689 92 CURVE SMOOTH",
"689 570 LINE",
"539 570 LINE",
"539 471 LINE",
"493 543 OFFCURVE",
"408 587 OFFCURVE",
"314 587 CURVE SMOOTH",
"159 587 OFFCURVE",
"40 468 OFFCURVE",
"40 299 CURVE SMOOTH"
);
},
{
closed = 1;
nodes = (
"194 395 OFFCURVE",
"265 469 OFFCURVE",
"370 469 CURVE SMOOTH",
"471 469 OFFCURVE",
"544 400 OFFCURVE",
"544 291 CURVE SMOOTH",
"544 281 LINE SMOOTH",
"544 186 OFFCURVE",
"470 123 OFFCURVE",
"370 123 CURVE SMOOTH",
"263 123 OFFCURVE",
"194 194 OFFCURVE",
"194 294 CURVE SMOOTH"
);
}
);
};
layerId = "6BCBDBF6-8315-4194-A290-F71994A92467";
paths = (
{
closed = 1;
nodes = (
"40 138 OFFCURVE",
"160 15 OFFCURVE",
"314 15 CURVE SMOOTH",
"406 15 OFFCURVE",
"491 59 OFFCURVE",
"539 140 CURVE",
"539 72 LINE SMOOTH",
"539 -50 OFFCURVE",
"445 -104 OFFCURVE",
"308 -104 CURVE SMOOTH",
"230 -104 OFFCURVE",
"152 -87 OFFCURVE",
"74 -53 CURVE",
"90 -180 LINE",
"158 -210 OFFCURVE",
"239 -225 OFFCURVE",
"323 -225 CURVE SMOOTH",
"509 -225 OFFCURVE",
"689 -152 OFFCURVE",
"689 82 CURVE SMOOTH",
"689 560 LINE",
"539 560 LINE",
"539 471 LINE",
"493 533 OFFCURVE",
"408 577 OFFCURVE",
"314 577 CURVE SMOOTH",
"159 577 OFFCURVE",
"40 458 OFFCURVE",
"40 299 CURVE SMOOTH"
);
},
{
closed = 1;
nodes = (
"194 395 OFFCURVE",
"265 469 OFFCURVE",
"370 469 CURVE SMOOTH",
"471 469 OFFCURVE",
"544 400 OFFCURVE",
"544 291 CURVE SMOOTH",
"544 281 LINE SMOOTH",
"544 186 OFFCURVE",
"470 123 OFFCURVE",
"370 123 CURVE SMOOTH",
"263 123 OFFCURVE",
"194 194 OFFCURVE",
"194 294 CURVE SMOOTH"
);
}
);
width = 759;
},
{
associatedMasterId = "6BCBDBF6-8315-4194-A290-F71994A92467";
layerId = "F3D38E0C-FE9D-46C2-AE9C-47AD6BD068E3";
name = foreground;
paths = (
{
closed = 1;
nodes = (
"52 131 OFFCURVE",
"172 8 OFFCURVE",
"326 8 CURVE SMOOTH",
"418 8 OFFCURVE",
"503 52 OFFCURVE",
"551 140 CURVE",
"551 62 LINE SMOOTH",
"551 -49 OFFCURVE",
"450 -103 OFFCURVE",
"331 -103 CURVE SMOOTH",
"222 -103 OFFCURVE",
"134 -58 OFFCURVE",
"76 -10 CURVE",
"82 -145 LINE",
"135 -183 OFFCURVE",
"223 -224 OFFCURVE",
"347 -224 CURVE SMOOTH",
"514 -224 OFFCURVE",
"701 -151 OFFCURVE",
"701 82 CURVE SMOOTH",
"701 560 LINE",
"551 560 LINE",
"551 471 LINE",
"505 543 OFFCURVE",
"420 587 OFFCURVE",
"326 587 CURVE SMOOTH",
"171 587 OFFCURVE",
"52 468 OFFCURVE",
"52 299 CURVE SMOOTH"
);
},
{
closed = 1;
nodes = (
"206 395 OFFCURVE",
"277 469 OFFCURVE",
"382 469 CURVE SMOOTH",
"483 469 OFFCURVE",
"556 400 OFFCURVE",
"556 291 CURVE SMOOTH",
"556 281 LINE SMOOTH",
"556 186 OFFCURVE",
"482 123 OFFCURVE",
"382 123 CURVE SMOOTH",
"275 123 OFFCURVE",
"206 194 OFFCURVE",
"206 294 CURVE SMOOTH"
);
}
);
width = 778;
},
{
anchors = (
{
name = bottom;
position = "{377, -215}";
},
{
name = top;
position = "{377, 560}";
}
);
associatedMasterId = "6BCBDBF6-8315-4194-A290-F71994A92467";
background = {
paths = (
{
closed = 1;
nodes = (
"35 131 OFFCURVE",
"155 8 OFFCURVE",
"309 8 CURVE SMOOTH",
"401 8 OFFCURVE",
"486 52 OFFCURVE",
"534 140 CURVE",
"534 72 LINE SMOOTH",
"534 -39 OFFCURVE",
"433 -93 OFFCURVE",
"317 -93 CURVE SMOOTH",
"208 -93 OFFCURVE",
"122 -47 OFFCURVE",
"65 0 CURVE",
"65 -135 LINE",
"118 -173 OFFCURVE",
"206 -214 OFFCURVE",
"330 -214 CURVE SMOOTH",
"497 -214 OFFCURVE",
"684 -141 OFFCURVE",
"684 92 CURVE SMOOTH",
"684 570 LINE",
"534 570 LINE",
"534 471 LINE",
"488 543 OFFCURVE",
"403 587 OFFCURVE",
"309 587 CURVE SMOOTH",
"154 587 OFFCURVE",
"35 468 OFFCURVE",
"35 299 CURVE SMOOTH"
);
},
{
closed = 1;
nodes = (
"189 395 OFFCURVE",
"260 469 OFFCURVE",
"365 469 CURVE SMOOTH",
"466 469 OFFCURVE",
"539 400 OFFCURVE",
"539 291 CURVE SMOOTH",
"539 281 LINE SMOOTH",
"539 186 OFFCURVE",
"465 123 OFFCURVE",
"365 123 CURVE SMOOTH",
"258 123 OFFCURVE",
"189 194 OFFCURVE",
"189 294 CURVE SMOOTH"
);
}
);
};
layerId = "E7E53C21-0AF5-4F48-AF9D-DE8F0733A689";
name = "3 Feb 21, 17:42";
paths = (
{
closed = 1;
nodes = (
"35 138 OFFCURVE",
"155 15 OFFCURVE",
"309 15 CURVE SMOOTH",
"401 15 OFFCURVE",
"486 59 OFFCURVE",
"534 140 CURVE",
"534 62 LINE SMOOTH",
"534 -50 OFFCURVE",
"433 -104 OFFCURVE",
"314 -104 CURVE SMOOTH",
"223 -104 OFFCURVE",
"131 -71 OFFCURVE",
"59 -11 CURVE",
"65 -146 LINE",
"136 -197 OFFCURVE",
"231 -225 OFFCURVE",
"330 -225 CURVE SMOOTH",
"497 -225 OFFCURVE",
"684 -152 OFFCURVE",
"684 82 CURVE SMOOTH",
"684 560 LINE",
"534 560 LINE",
"534 471 LINE",
"488 533 OFFCURVE",
"403 577 OFFCURVE",
"309 577 CURVE SMOOTH",
"154 577 OFFCURVE",
"35 458 OFFCURVE",
"35 299 CURVE SMOOTH"
);
},
{
closed = 1;
nodes = (
"189 395 OFFCURVE",
"260 469 OFFCURVE",
"365 469 CURVE SMOOTH",
"466 469 OFFCURVE",
"539 400 OFFCURVE",
"539 291 CURVE SMOOTH",
"539 281 LINE SMOOTH",
"539 186 OFFCURVE",
"465 123 OFFCURVE",
"365 123 CURVE SMOOTH",
"258 123 OFFCURVE",
"189 194 OFFCURVE",
"189 294 CURVE SMOOTH"
);
}
);
width = 754;
},
{
anchors = (
{
name = bottom;
position = "{382, -215}";
},
{
name = top;
position = "{382, 560}";
}
);
associatedMasterId = "6BCBDBF6-8315-4194-A290-F71994A92467";
background = {
paths = (
{
closed = 1;
nodes = (
"40 131 OFFCURVE",
"160 8 OFFCURVE",
"314 8 CURVE SMOOTH",
"406 8 OFFCURVE",
"491 52 OFFCURVE",
"539 140 CURVE",
"539 72 LINE SMOOTH",
"539 -39 OFFCURVE",
"438 -93 OFFCURVE",
"322 -93 CURVE SMOOTH",
"213 -93 OFFCURVE",
"127 -47 OFFCURVE",
"70 0 CURVE",
"70 -135 LINE",
"123 -173 OFFCURVE",
"211 -214 OFFCURVE",
"335 -214 CURVE SMOOTH",
"502 -214 OFFCURVE",
"689 -141 OFFCURVE",
"689 92 CURVE SMOOTH",
"689 570 LINE",
"539 570 LINE",
"539 471 LINE",
"493 543 OFFCURVE",
"408 587 OFFCURVE",
"314 587 CURVE SMOOTH",
"159 587 OFFCURVE",
"40 468 OFFCURVE",
"40 299 CURVE SMOOTH"
);
},
{
closed = 1;
nodes = (
"194 395 OFFCURVE",
"265 469 OFFCURVE",
"370 469 CURVE SMOOTH",
"471 469 OFFCURVE",
"544 400 OFFCURVE",
"544 291 CURVE SMOOTH",
"544 281 LINE SMOOTH",
"544 186 OFFCURVE",
"470 123 OFFCURVE",
"370 123 CURVE SMOOTH",
"263 123 OFFCURVE",
"194 194 OFFCURVE",
"194 294 CURVE SMOOTH"
);
}
);
};
layerId = "6F2BE418-8606-431D-88FD-BA3E0E7550FC";
name = "22 Feb 21, 19:27";
paths = (
{
closed = 1;
nodes = (
"40 138 OFFCURVE",
"160 15 OFFCURVE",
"314 15 CURVE SMOOTH",
"406 15 OFFCURVE",
"491 59 OFFCURVE",
"539 140 CURVE",
"539 62 LINE SMOOTH",
"539 -50 OFFCURVE",
"438 -104 OFFCURVE",
"319 -104 CURVE SMOOTH",
"228 -104 OFFCURVE",
"136 -78 OFFCURVE",
"54 -32 CURVE",
"70 -159 LINE",
"141 -200 OFFCURVE",
"236 -225 OFFCURVE",
"335 -225 CURVE SMOOTH",
"502 -225 OFFCURVE",
"689 -152 OFFCURVE",
"689 82 CURVE SMOOTH",
"689 560 LINE",
"539 560 LINE",
"539 471 LINE",
"493 533 OFFCURVE",
"408 577 OFFCURVE",
"314 577 CURVE SMOOTH",
"159 577 OFFCURVE",
"40 458 OFFCURVE",
"40 299 CURVE SMOOTH"
);
},
{
closed = 1;
nodes = (
"194 395 OFFCURVE",
"265 469 OFFCURVE",
"370 469 CURVE SMOOTH",
"471 469 OFFCURVE",
"544 400 OFFCURVE",
"544 291 CURVE SMOOTH",
"544 281 LINE SMOOTH",
"544 186 OFFCURVE",
"470 123 OFFCURVE",
"370 123 CURVE SMOOTH",
"263 123 OFFCURVE",
"194 194 OFFCURVE",
"194 294 CURVE SMOOTH"
);
}
);
width = 759;
},
{
anchors = (
{
name = bottom;
position = "{382, -215}";
},
{
name = top;
position = "{382, 560}";
}
);
associatedMasterId = "6BCBDBF6-8315-4194-A290-F71994A92467";
background = {
paths = (
{
closed = 1;
nodes = (
"40 131 OFFCURVE",
"160 8 OFFCURVE",
"314 8 CURVE SMOOTH",
"406 8 OFFCURVE",
"491 52 OFFCURVE",
"539 140 CURVE",
"539 72 LINE SMOOTH",
"539 -39 OFFCURVE",
"438 -93 OFFCURVE",
"322 -93 CURVE SMOOTH",
"213 -93 OFFCURVE",
"127 -47 OFFCURVE",
"70 0 CURVE",
"70 -135 LINE",
"123 -173 OFFCURVE",
"211 -214 OFFCURVE",
"335 -214 CURVE SMOOTH",
"502 -214 OFFCURVE",
"689 -141 OFFCURVE",
"689 92 CURVE SMOOTH",
"689 570 LINE",
"539 570 LINE",
"539 471 LINE",
"493 543 OFFCURVE",
"408 587 OFFCURVE",
"314 587 CURVE SMOOTH",
"159 587 OFFCURVE",
"40 468 OFFCURVE",
"40 299 CURVE SMOOTH"
);
},
{
closed = 1;
nodes = (
"194 395 OFFCURVE",
"265 469 OFFCURVE",
"370 469 CURVE SMOOTH",
"471 469 OFFCURVE",
"544 400 OFFCURVE",
"544 291 CURVE SMOOTH",
"544 281 LINE SMOOTH",
"544 186 OFFCURVE",
"470 123 OFFCURVE",
"370 123 CURVE SMOOTH",
"263 123 OFFCURVE",
"194 194 OFFCURVE",
"194 294 CURVE SMOOTH"
);
}
);
};
layerId = "65761CEB-A02C-4A1E-8BBC-7EBC01DD13EE";
name = "27 Mar 21, 02:42";
paths = (
{
closed = 1;
nodes = (
"40 138 OFFCURVE",
"160 15 OFFCURVE",
"314 15 CURVE SMOOTH",
"406 15 OFFCURVE",
"491 59 OFFCURVE",
"539 140 CURVE",
"539 62 LINE SMOOTH",
"539 -50 OFFCURVE",
"445 -104 OFFCURVE",
"321 -104 CURVE SMOOTH",
"235 -104 OFFCURVE",
"143 -78 OFFCURVE",
"61 -32 CURVE",
"77 -159 LINE",
"148 -200 OFFCURVE",
"243 -225 OFFCURVE",
"342 -225 CURVE SMOOTH",
"509 -225 OFFCURVE",
"689 -152 OFFCURVE",
"689 82 CURVE SMOOTH",
"689 560 LINE",
"539 560 LINE",
"539 471 LINE",
"493 533 OFFCURVE",
"408 577 OFFCURVE",
"314 577 CURVE SMOOTH",
"159 577 OFFCURVE",
"40 458 OFFCURVE",
"40 299 CURVE SMOOTH"
);
},
{
closed = 1;
nodes = (
"194 395 OFFCURVE",
"265 469 OFFCURVE",
"370 469 CURVE SMOOTH",
"471 469 OFFCURVE",
"544 400 OFFCURVE",
"544 291 CURVE SMOOTH",
"544 281 LINE SMOOTH",
"544 186 OFFCURVE",
"470 123 OFFCURVE",
"370 123 CURVE SMOOTH",
"263 123 OFFCURVE",
"194 194 OFFCURVE",
"194 294 CURVE SMOOTH"
);
}
);
width = 759;
},
{
anchors = (
{
name = bottom;
position = "{382, -215}";
},
{
name = top;
position = "{382, 560}";
}
);
associatedMasterId = "6BCBDBF6-8315-4194-A290-F71994A92467";
background = {
paths = (
{
closed = 1;
nodes = (
"40 131 OFFCURVE",
"160 8 OFFCURVE",
"314 8 CURVE SMOOTH",
"406 8 OFFCURVE",
"491 52 OFFCURVE",
"539 140 CURVE",
"539 72 LINE SMOOTH",
"539 -39 OFFCURVE",
"438 -93 OFFCURVE",
"322 -93 CURVE SMOOTH",
"213 -93 OFFCURVE",
"127 -47 OFFCURVE",
"70 0 CURVE",
"70 -135 LINE",
"123 -173 OFFCURVE",
"211 -214 OFFCURVE",
"335 -214 CURVE SMOOTH",
"502 -214 OFFCURVE",
"689 -141 OFFCURVE",
"689 92 CURVE SMOOTH",
"689 570 LINE",
"539 570 LINE",
"539 471 LINE",
"493 543 OFFCURVE",
"408 587 OFFCURVE",
"314 587 CURVE SMOOTH",
"159 587 OFFCURVE",
"40 468 OFFCURVE",
"40 299 CURVE SMOOTH"
);
},
{
closed = 1;
nodes = (
"194 395 OFFCURVE",
"265 469 OFFCURVE",
"370 469 CURVE SMOOTH",
"471 469 OFFCURVE",
"544 400 OFFCURVE",
"544 291 CURVE SMOOTH",
"544 281 LINE SMOOTH",
"544 186 OFFCURVE",
"470 123 OFFCURVE",
"370 123 CURVE SMOOTH",
"263 123 OFFCURVE",
"194 194 OFFCURVE",
"194 294 CURVE SMOOTH"
);
}
);
};
layerId = "CB048D54-B4EC-463E-9B1D-3CA6769ECBBD";
name = "23 Apr 21, 11:49";
paths = (
{
closed = 1;
nodes = (
"40 138 OFFCURVE",
"160 15 OFFCURVE",
"314 15 CURVE SMOOTH",
"406 15 OFFCURVE",
"491 59 OFFCURVE",
"539 140 CURVE",
"539 72 LINE SMOOTH",
"539 -50 OFFCURVE",
"445 -104 OFFCURVE",
"315 -104 CURVE SMOOTH",
"230 -104 OFFCURVE",
"144 -82 OFFCURVE",
"66 -48 CURVE",
"82 -175 LINE",
"150 -205 OFFCURVE",
"239 -225 OFFCURVE",
"336 -225 CURVE SMOOTH",
"509 -225 OFFCURVE",
"689 -152 OFFCURVE",
"689 82 CURVE SMOOTH",
"689 560 LINE",
"539 560 LINE",
"539 471 LINE",
"493 533 OFFCURVE",
"408 577 OFFCURVE",
"314 577 CURVE SMOOTH",
"159 577 OFFCURVE",
"40 458 OFFCURVE",
"40 299 CURVE SMOOTH"
);
},
{
closed = 1;
nodes = (
"194 395 OFFCURVE",
"265 469 OFFCURVE",
"370 469 CURVE SMOOTH",
"471 469 OFFCURVE",
"544 400 OFFCURVE",
"544 291 CURVE SMOOTH",
"544 281 LINE SMOOTH",
"544 186 OFFCURVE",
"470 123 OFFCURVE",
"370 123 CURVE SMOOTH",
"263 123 OFFCURVE",
"194 194 OFFCURVE",
"194 294 CURVE SMOOTH"
);
}
);
width = 759;
}
);
leftKerningGroup = o;
rightMetricsKey = d;
unicode = 0067;
},
{
color = 3;
glyphname = h;
lastChange = "2021-05-02 21:54:42 +0000";
layers = (
{
anchors = (
{
name = bottom;
position = "{360, 0}";
},
{
name = center;
position = "{360, 393}";
},
{
name = top;
position = "{360, 785}";
}
);
layerId = "6BCBDBF6-8315-4194-A290-F71994A92467";
paths = (
{
closed = 1;
nodes = (
"211 0 LINE",
"211 785 LINE",
"61 785 LINE",
"61 0 LINE"
);
},
{
closed = 1;
nodes = (
"237 417 OFFCURVE",
"295 460 OFFCURVE",
"374 460 CURVE SMOOTH",
"459 460 OFFCURVE",
"511 410 OFFCURVE",
"511 328 CURVE SMOOTH",
"511 0 LINE",
"661 0 LINE",
"661 358 LINE SMOOTH",
"661 498 OFFCURVE",
"581 577 OFFCURVE",
"438 577 CURVE SMOOTH",
"316 577 OFFCURVE",
"237 520 OFFCURVE",
"196 402 CURVE",
"198 329 LINE"
);
}
);
width = 718;
},
{
associatedMasterId = "6BCBDBF6-8315-4194-A290-F71994A92467";
layerId = "F923F4E0-4D11-4909-AC27-1C106E8A0A39";
name = foreground;
paths = (
{
closed = 1;
nodes = (
"210 0 LINE",
"210 785 LINE",
"60 785 LINE",
"60 0 LINE"
);
},
{
closed = 1;
nodes = (
"234 412 OFFCURVE",
"290 460 OFFCURVE",
"373 460 CURVE SMOOTH",
"451 460 OFFCURVE",
"510 417 OFFCURVE",
"510 328 CURVE SMOOTH",
"510 0 LINE",
"660 0 LINE",
"660 358 LINE SMOOTH",
"660 496 OFFCURVE",
"582 577 OFFCURVE",
"437 577 CURVE SMOOTH",
"315 577 OFFCURVE",
"236 520 OFFCURVE",
"195 402 CURVE",
"197 329 LINE"
);
}
);
width = 749;
}
);
leftKerningGroup = h;
leftMetricsKey = n;
rightKerningGroup = n;
rightMetricsKey = "=n";
unicode = 0068;
},
{
glyphname = hbar;
lastChange = "2021-05-02 21:54:42 +0000";
layers = (
{
layerId = "6BCBDBF6-8315-4194-A290-F71994A92467";
paths = (
{
closed = 1;
nodes = (
"210 0 LINE",
"210 785 LINE",
"60 785 LINE",
"60 0 LINE"
);
},
{
closed = 1;
nodes = (
"234 412 OFFCURVE",
"290 460 OFFCURVE",
"373 460 CURVE SMOOTH",
"451 460 OFFCURVE",
"510 417 OFFCURVE",
"510 328 CURVE SMOOTH",
"510 0 LINE",
"660 0 LINE",
"660 358 LINE SMOOTH",
"660 496 OFFCURVE",
"582 577 OFFCURVE",
"437 577 CURVE SMOOTH",
"315 577 OFFCURVE",
"236 520 OFFCURVE",
"195 402 CURVE",
"197 329 LINE"
);
},
{
closed = 1;
nodes = (
"-20 635 LINE",
"518 635 LINE",
"518 730 LINE",
"-20 730 LINE"
);
}
);
width = 717;
}
);
leftKerningGroup = h;
rightKerningGroup = n;
rightMetricsKey = h;
unicode = 0127;
},
{
color = 3;
glyphname = i;
lastChange = "2021-05-02 21:54:42 +0000";
layers = (
{
anchors = (
{
name = bottom;
position = "{148, 0}";
}
);
layerId = "6BCBDBF6-8315-4194-A290-F71994A92467";
paths = (
{
closed = 1;
nodes = (
"63 0 LINE",
"213 0 LINE",
"213 560 LINE",
"63 560 LINE"
);
},
{
closed = 1;
nodes = (
"61 632 LINE",
"214 632 LINE",
"214 785 LINE",
"61 785 LINE"
);
}
);
width = 274;
},
{
associatedMasterId = "6BCBDBF6-8315-4194-A290-F71994A92467";
layerId = "2E2D0FC4-7E1A-4D9F-A9BD-0F238EA00546";
name = foreground;
paths = (
{
closed = 1;
nodes = (
"79 0 LINE",
"229 0 LINE",
"229 560 LINE",
"79 560 LINE"
);
},
{
closed = 1;
nodes = (
"77 632 LINE",
"230 632 LINE",
"230 785 LINE",
"77 785 LINE"
);
}
);
width = 311;
}
);
leftKerningGroup = i;
leftMetricsKey = n;
rightKerningGroup = i;
unicode = 0069;
},
{
color = 3;
glyphname = idotless;
lastChange = "2021-05-02 21:54:42 +0000";
layers = (
{
anchors = (
{
name = bottom;
position = "{138, 0}";
},
{
name = ogonek;
position = "{210, 7}";
},
{
name = top;
position = "{138, 560}";
}
);
layerId = "6BCBDBF6-8315-4194-A290-F71994A92467";
paths = (
{
closed = 1;
nodes = (
"61 0 LINE",
"214 0 LINE",
"214 560 LINE",
"61 560 LINE"
);
}
);
width = 274;
},
{
associatedMasterId = "6BCBDBF6-8315-4194-A290-F71994A92467";
layerId = "29E3CD0F-E30F-4FC0-9417-EE4B21FB5092";
name = foreground;
paths = (
{
closed = 1;
nodes = (
"230 0 LINE",
"383 0 LINE",
"383 560 LINE",
"230 560 LINE"
);
}
);
width = 614;
}
);
leftKerningGroup = idotless;
leftMetricsKey = i;
rightKerningGroup = idotless;
rightMetricsKey = i;
unicode = 0131;
},
{
color = 3;
glyphname = j;
lastChange = "2021-05-02 21:54:42 +0000";
layers = (
{
layerId = "6BCBDBF6-8315-4194-A290-F71994A92467";
paths = (
{
closed = 1;
nodes = (
"112 560 LINE",
"112 51 LINE SMOOTH",
"112 -55 OFFCURVE",
"47 -100 OFFCURVE",
"-67 -100 CURVE SMOOTH",
"-102 -100 OFFCURVE",
"-142 -96 OFFCURVE",
"-178 -87 CURVE",
"-158 -206 LINE",
"-116 -218 OFFCURVE",
"-65 -225 OFFCURVE",
"-15 -225 CURVE SMOOTH",
"158 -225 OFFCURVE",
"262 -125 OFFCURVE",
"262 56 CURVE SMOOTH",
"262 560 LINE"
);
},
{
closed = 1;
nodes = (
"110 632 LINE",
"263 632 LINE",
"263 785 LINE",
"110 785 LINE"
);
}
);
width = 333;
},
{
associatedMasterId = "6BCBDBF6-8315-4194-A290-F71994A92467";
layerId = "FDA96D34-3BB1-46B0-87EC-6020D66C7D52";
name = foreground;
paths = (
{
closed = 1;
nodes = (
"182 560 LINE",
"182 62 LINE SMOOTH",
"182 -44 OFFCURVE",
"117 -99 OFFCURVE",
"-9 -99 CURVE SMOOTH",
"-51 -99 OFFCURVE",
"-94 -93 OFFCURVE",
"-130 -81 CURVE",
"-110 -200 LINE",
"-68 -216 OFFCURVE",
"-17 -224 OFFCURVE",
"38 -224 CURVE SMOOTH",
"228 -224 OFFCURVE",
"332 -124 OFFCURVE",
"332 57 CURVE SMOOTH",
"332 560 LINE"
);
},
{
closed = 1;
nodes = (
"180 632 LINE",
"333 632 LINE",
"333 785 LINE",
"180 785 LINE"
);
}
);
width = 413;
}
);
leftKerningGroup = j;
rightKerningGroup = j;
unicode = 006A;
},
{
glyphname = jdotless;
lastChange = "2021-05-02 21:54:42 +0000";
layers = (
{
layerId = "6BCBDBF6-8315-4194-A290-F71994A92467";
paths = (
{
closed = 1;
nodes = (
"112 560 LINE",
"112 51 LINE SMOOTH",
"112 -55 OFFCURVE",
"47 -100 OFFCURVE",
"-63 -100 CURVE SMOOTH",
"-99 -100 OFFCURVE",
"-142 -95 OFFCURVE",
"-178 -83 CURVE",
"-158 -202 LINE",
"-116 -217 OFFCURVE",
"-65 -225 OFFCURVE",
"-15 -225 CURVE SMOOTH",
"158 -225 OFFCURVE",
"262 -125 OFFCURVE",
"262 56 CURVE SMOOTH",
"262 560 LINE"
);
}
);
width = 332;
}
);
leftKerningGroup = j;
leftMetricsKey = j;
rightKerningGroup = j;
rightMetricsKey = j;
unicode = 0237;
},
{
color = 3;
glyphname = k;
lastChange = "2021-05-02 21:54:42 +0000";
layers = (
{
anchors = (
{
name = bottom;
position = "{352, 0}";
},
{
name = top;
position = "{359, 785}";
}
);
layerId = "6BCBDBF6-8315-4194-A290-F71994A92467";
paths = (
{
closed = 1;
nodes = (
"519 0 LINE",
"701 0 LINE",
"371 381 LINE",
"267 296 LINE"
);
},
{
closed = 1;
nodes = (
"673 560 LINE",
"465 560 LINE",
"176 328 LINE",
"187 177 LINE"
);
},
{
closed = 1;
nodes = (
"65 0 LINE",
"215 0 LINE",
"215 785 LINE",
"65 785 LINE"
);
}
);
width = 712;
},
{
associatedMasterId = "6BCBDBF6-8315-4194-A290-F71994A92467";
layerId = "CCBDCEAE-D11D-4F36-B4EC-B248A9C83C4B";
name = foreground;
paths = (
{
closed = 1;
nodes = (
"521 0 LINE",
"700 0 LINE",
"370 381 LINE",
"269 296 LINE"
);
},
{
closed = 1;
nodes = (
"675 560 LINE",
"482 560 LINE",
"193 328 LINE",
"190 177 LINE"
);
},
{
closed = 1;
nodes = (
"74 0 LINE",
"218 0 LINE",
"218 785 LINE",
"74 785 LINE"
);
}
);
width = 715;
}
);
leftKerningGroup = h;
rightKerningGroup = k;
unicode = 006B;
},
{
color = 3;
glyphname = l;
lastChange = "2021-05-02 21:54:42 +0000";
layers = (
{
anchors = (
{
name = bottom;
position = "{138, 0}";
},
{
name = center;
position = "{135, 393}";
},
{
name = top;
position = "{155, 785}";
},
{
name = topright;
position = "{210, 785}";
}
);
layerId = "6BCBDBF6-8315-4194-A290-F71994A92467";
paths = (
{
closed = 1;
nodes = (
"60 0 LINE",
"210 0 LINE",
"210 785 LINE",
"60 785 LINE"
);
}
);
width = 270;
},
{
associatedMasterId = "6BCBDBF6-8315-4194-A290-F71994A92467";
layerId = "E7622B1A-A7CF-4A31-9292-6C6B7BD97724";
name = foreground;
paths = (
{
closed = 1;
nodes = (
"77 0 LINE",
"227 0 LINE",
"227 785 LINE",
"77 785 LINE"
);
}
);
width = 308;
}
);
leftKerningGroup = h;
rightKerningGroup = l;
unicode = 006C;
},
{
glyphname = lslash;
lastChange = "2021-05-02 21:54:42 +0000";
layers = (
{
components = (
{
name = l;
transform = "{1, 0, 0, 1, 88, 0}";
}
);
layerId = "6BCBDBF6-8315-4194-A290-F71994A92467";
paths = (
{
closed = 1;
nodes = (
"20 280 LINE",
"435 485 LINE",
"435 614 LINE",
"20 410 LINE"
);
}
);
width = 435;
}
);
leftKerningGroup = lslash;
rightKerningGroup = lslash;
unicode = 0142;
},
{
color = 3;
glyphname = m;
lastChange = "2021-05-02 21:54:42 +0000";
layers = (
{
anchors = (
{
name = bottom;
position = "{555, 0}";
},
{
name = top;
position = "{555, 560}";
}
);
layerId = "6BCBDBF6-8315-4194-A290-F71994A92467";
paths = (
{
closed = 1;
nodes = (
"239 422 OFFCURVE",
"284 460 OFFCURVE",
"351 460 CURVE SMOOTH",
"430 460 OFFCURVE",
"481 409 OFFCURVE",
"481 328 CURVE SMOOTH",
"481 0 LINE",
"631 0 LINE",
"631 358 LINE SMOOTH",
"631 497 OFFCURVE",
"553 577 OFFCURVE",
"417 577 CURVE SMOOTH",
"307 577 OFFCURVE",
"239 523 OFFCURVE",
"196 402 CURVE",
"198 329 LINE"
);
},
{
closed = 1;
nodes = (
"211 0 LINE",
"211 560 LINE",
"61 560 LINE",
"61 0 LINE"
);
},
{
closed = 1;
nodes = (
"659 422 OFFCURVE",
"704 460 OFFCURVE",
"771 460 CURVE SMOOTH",
"850 460 OFFCURVE",
"901 409 OFFCURVE",
"901 328 CURVE SMOOTH",
"901 0 LINE",
"1051 0 LINE",
"1051 358 LINE SMOOTH",
"1051 497 OFFCURVE",
"973 577 OFFCURVE",
"837 577 CURVE SMOOTH",
"729 577 OFFCURVE",
"660 525 OFFCURVE",
"616 413 CURVE",
"618 329 LINE"
);
}
);
width = 1108;
},
{
associatedMasterId = "6BCBDBF6-8315-4194-A290-F71994A92467";
layerId = "97B8DC42-6646-42EC-8801-61DBBF0AD42F";
name = foreground;
paths = (
{
closed = 1;
nodes = (
"248 422 OFFCURVE",
"293 460 OFFCURVE",
"360 460 CURVE SMOOTH",
"439 460 OFFCURVE",
"490 409 OFFCURVE",
"490 328 CURVE SMOOTH",
"490 0 LINE",
"640 0 LINE",
"640 358 LINE SMOOTH",
"640 497 OFFCURVE",
"562 577 OFFCURVE",
"426 577 CURVE SMOOTH",
"316 577 OFFCURVE",
"248 523 OFFCURVE",
"205 402 CURVE",
"207 329 LINE"
);
},
{
closed = 1;
nodes = (
"220 0 LINE",
"220 560 LINE",
"70 560 LINE",
"70 0 LINE"
);
},
{
closed = 1;
nodes = (
"668 422 OFFCURVE",
"713 460 OFFCURVE",
"780 460 CURVE SMOOTH",
"859 460 OFFCURVE",
"910 409 OFFCURVE",
"910 328 CURVE SMOOTH",
"910 0 LINE",
"1060 0 LINE",
"1060 358 LINE SMOOTH",
"1060 497 OFFCURVE",
"982 577 OFFCURVE",
"846 577 CURVE SMOOTH",
"736 577 OFFCURVE",
"668 523 OFFCURVE",
"625 402 CURVE",
"627 329 LINE"
);
}
);
width = 1105;
}
);
leftKerningGroup = n;
leftMetricsKey = "=n";
rightKerningGroup = n;
rightMetricsKey = "=n";
unicode = 006D;
},
{
color = 3;
glyphname = n;
lastChange = "2021-05-06 19:54:15 +0000";
layers = (
{
anchors = (
{
name = bottom;
position = "{360, 0}";
},
{
name = top;
position = "{360, 560}";
}
);
background = {
paths = (
{
closed = 1;
nodes = (
"228 0 LINE",
"229 351 LINE",
"262 408 OFFCURVE",
"306 460 OFFCURVE",
"397 460 CURVE SMOOTH",
"480 460 OFFCURVE",
"528 417 OFFCURVE",
"528 348 CURVE SMOOTH",
"528 0 LINE",
"678 0 LINE",
"678 378 LINE SMOOTH",
"678 496 OFFCURVE",
"600 577 OFFCURVE",
"457 577 CURVE SMOOTH",
"339 577 OFFCURVE",
"262 522 OFFCURVE",
"229 433 CURVE",
"228 433 LINE",
"228 560 LINE",
"78 560 LINE",
"78 0 LINE"
);
}
);
};
layerId = "6BCBDBF6-8315-4194-A290-F71994A92467";
paths = (
{
closed = 1;
nodes = (
"237 417 OFFCURVE",
"295 460 OFFCURVE",
"374 460 CURVE SMOOTH",
"459 460 OFFCURVE",
"511 410 OFFCURVE",
"511 328 CURVE SMOOTH",
"511 0 LINE",
"661 0 LINE",
"661 358 LINE SMOOTH",
"661 498 OFFCURVE",
"581 577 OFFCURVE",
"438 577 CURVE SMOOTH",
"316 577 OFFCURVE",
"237 520 OFFCURVE",
"196 402 CURVE",
"198 329 LINE"
);
},
{
closed = 1;
nodes = (
"211 0 LINE",
"211 424 LINE",
"211 433 LINE",
"211 560 LINE",
"61 560 LINE",
"61 0 LINE"
);
}
);
width = 718;
},
{
associatedMasterId = "6BCBDBF6-8315-4194-A290-F71994A92467";
layerId = "0D2269CB-5CBE-4D05-9E62-3F74BB4BB3CA";
name = foreground;
paths = (
{
closed = 1;
nodes = (
"234 412 OFFCURVE",
"290 460 OFFCURVE",
"373 460 CURVE SMOOTH",
"451 460 OFFCURVE",
"510 417 OFFCURVE",
"510 328 CURVE SMOOTH",
"510 0 LINE",
"660 0 LINE",
"660 358 LINE SMOOTH",
"660 496 OFFCURVE",
"582 577 OFFCURVE",
"437 577 CURVE SMOOTH",
"315 577 OFFCURVE",
"236 520 OFFCURVE",
"195 402 CURVE",
"197 329 LINE"
);
},
{
closed = 1;
nodes = (
"210 0 LINE",
"210 560 LINE",
"60 560 LINE",
"60 0 LINE"
);
}
);
width = 717;
},
{
anchors = (
{
name = bottom;
position = "{360, 0}";
},
{
name = top;
position = "{360, 560}";
}
);
associatedMasterId = "6BCBDBF6-8315-4194-A290-F71994A92467";
background = {
paths = (
{
closed = 1;
nodes = (
"228 0 LINE",
"229 351 LINE",
"262 408 OFFCURVE",
"306 460 OFFCURVE",
"397 460 CURVE SMOOTH",
"480 460 OFFCURVE",
"528 417 OFFCURVE",
"528 348 CURVE SMOOTH",
"528 0 LINE",
"678 0 LINE",
"678 378 LINE SMOOTH",
"678 496 OFFCURVE",
"600 577 OFFCURVE",
"457 577 CURVE SMOOTH",
"339 577 OFFCURVE",
"262 522 OFFCURVE",
"229 433 CURVE",
"228 433 LINE",
"228 560 LINE",
"78 560 LINE",
"78 0 LINE"
);
}
);
};
layerId = "CC34766A-576C-4AD9-ABED-3F47E726CCC9";
name = "24 Feb 21, 19:13";
paths = (
{
closed = 1;
nodes = (
"235 412 OFFCURVE",
"291 460 OFFCURVE",
"374 460 CURVE SMOOTH",
"459 460 OFFCURVE",
"511 410 OFFCURVE",
"511 328 CURVE SMOOTH",
"511 0 LINE",
"661 0 LINE",
"661 358 LINE SMOOTH",
"661 496 OFFCURVE",
"583 577 OFFCURVE",
"438 577 CURVE SMOOTH",
"316 577 OFFCURVE",
"237 520 OFFCURVE",
"196 402 CURVE",
"198 329 LINE"
);
},
{
closed = 1;
nodes = (
"211 0 LINE",
"211 560 LINE",
"61 560 LINE",
"61 0 LINE"
);
}
);
width = 718;
}
);
leftKerningGroup = n;
rightKerningGroup = n;
unicode = 006E;
},
{
color = 3;
glyphname = o;
lastChange = "2021-05-06 19:52:41 +0000";
layers = (
{
anchors = (
{
name = bottom;
position = "{370, 0}";
},
{
name = center;
position = "{370, 280}";
},
{
name = ogonek;
position = "{666, 10}";
},
{
name = top;
position = "{370, 560}";
},
{
name = topright;
position = "{720, 560}";
}
);
layerId = "6BCBDBF6-8315-4194-A290-F71994A92467";
paths = (
{
closed = 1;
nodes = (
"574 -21 OFFCURVE",
"705 99 OFFCURVE",
"705 277 CURVE SMOOTH",
"705 458 OFFCURVE",
"574 577 OFFCURVE",
"370 577 CURVE SMOOTH",
"167 577 OFFCURVE",
"35 458 OFFCURVE",
"35 277 CURVE SMOOTH",
"35 99 OFFCURVE",
"166 -21 OFFCURVE",
"370 -21 CURVE SMOOTH"
);
},
{
closed = 1;
nodes = (
"263 100 OFFCURVE",
"189 169 OFFCURVE",
"189 277 CURVE SMOOTH",
"189 387 OFFCURVE",
"263 457 OFFCURVE",
"370 457 CURVE SMOOTH",
"477 457 OFFCURVE",
"551 387 OFFCURVE",
"551 277 CURVE SMOOTH",
"551 169 OFFCURVE",
"477 100 OFFCURVE",
"370 100 CURVE SMOOTH"
);
}
);
width = 740;
},
{
associatedMasterId = "6BCBDBF6-8315-4194-A290-F71994A92467";
layerId = "33C7952E-B253-4866-85CF-B7A8D476FA46";
name = foreground;
paths = (
{
closed = 1;
nodes = (
"574 -21 OFFCURVE",
"705 99 OFFCURVE",
"705 277 CURVE SMOOTH",
"705 458 OFFCURVE",
"574 577 OFFCURVE",
"370 577 CURVE SMOOTH",
"167 577 OFFCURVE",
"35 458 OFFCURVE",
"35 277 CURVE SMOOTH",
"35 99 OFFCURVE",
"166 -21 OFFCURVE",
"370 -21 CURVE SMOOTH"
);
},
{
closed = 1;
nodes = (
"263 100 OFFCURVE",
"189 169 OFFCURVE",
"189 277 CURVE SMOOTH",
"189 387 OFFCURVE",
"263 457 OFFCURVE",
"370 457 CURVE SMOOTH",
"477 457 OFFCURVE",
"551 387 OFFCURVE",
"551 277 CURVE SMOOTH",
"551 169 OFFCURVE",
"477 100 OFFCURVE",
"370 100 CURVE SMOOTH"
);
}
);
width = 740;
}
);
leftKerningGroup = o;
note = "\012t\012";
rightKerningGroup = o;
unicode = 006F;
},
{
glyphname = oe;
lastChange = "2021-05-02 21:54:42 +0000";
layers = (
{
anchors = (
{
name = bottom;
position = "{447, 0}";
},
{
name = center;
position = "{447, 280}";
},
{
name = ogonek;
position = "{743, 10}";
},
{
name = top;
position = "{447, 560}";
},
{
name = topright;
position = "{797, 560}";
}
);
layerId = "6BCBDBF6-8315-4194-A290-F71994A92467";
paths = (
{
closed = 1;
nodes = (
"551 97 OFFCURVE",
"675 -21 OFFCURVE",
"896 -21 CURVE SMOOTH",
"988 -21 OFFCURVE",
"1067 -3 OFFCURVE",
"1130 33 CURVE",
"1145 149 LINE",
"1064 114 OFFCURVE",
"991 99 OFFCURVE",
"906 99 CURVE SMOOTH",
"782 99 OFFCURVE",
"699 150 OFFCURVE",
"679 242 CURVE",
"1146 242 LINE",
"1146 314 LINE SMOOTH",
"1146 472 OFFCURVE",
"1027 577 OFFCURVE",
"848 577 CURVE SMOOTH",
"655 577 OFFCURVE",
"551 461 OFFCURVE",
"551 279 CURVE SMOOTH"
);
},
{
closed = 1;
nodes = (
"683 417 OFFCURVE",
"743 462 OFFCURVE",
"847 462 CURVE SMOOTH",
"948 462 OFFCURVE",
"1003 419 OFFCURVE",
"1007 332 CURVE",
"677 332 LINE"
);
},
{
closed = 1;
nodes = (
"574 -21 OFFCURVE",
"675 99 OFFCURVE",
"675 277 CURVE SMOOTH",
"675 458 OFFCURVE",
"574 577 OFFCURVE",
"370 577 CURVE SMOOTH",
"167 577 OFFCURVE",
"35 458 OFFCURVE",
"35 277 CURVE SMOOTH",
"35 99 OFFCURVE",
"166 -21 OFFCURVE",
"370 -21 CURVE SMOOTH"
);
},
{
closed = 1;
nodes = (
"263 100 OFFCURVE",
"189 169 OFFCURVE",
"189 277 CURVE SMOOTH",
"189 387 OFFCURVE",
"263 457 OFFCURVE",
"370 457 CURVE SMOOTH",
"477 457 OFFCURVE",
"551 387 OFFCURVE",
"551 277 CURVE SMOOTH",
"551 169 OFFCURVE",
"477 100 OFFCURVE",
"370 100 CURVE SMOOTH"
);
}
);
width = 1181;
}
);
leftKerningGroup = o;
leftMetricsKey = o;
rightKerningGroup = e;
rightMetricsKey = e;
unicode = 0153;
},
{
color = 3;
glyphname = p;
lastChange = "2021-05-06 19:59:08 +0000";
layers = (
{
anchors = (
{
name = bottom;
position = "{369, 0}";
},
{
name = top;
position = "{369, 560}";
}
);
layerId = "6BCBDBF6-8315-4194-A290-F71994A92467";
paths = (
{
closed = 1;
nodes = (
"601 -21 OFFCURVE",
"720 97 OFFCURVE",
"720 276 CURVE SMOOTH",
"720 453 OFFCURVE",
"600 577 OFFCURVE",
"440 577 CURVE SMOOTH",
"344 577 OFFCURVE",
"264 532 OFFCURVE",
"211 445 CURVE",
"211 560 LINE",
"61 560 LINE",
"61 -215 LINE",
"211 -215 LINE",
"211 100 LINE",
"257 23 OFFCURVE",
"342 -21 OFFCURVE",
"440 -21 CURVE SMOOTH"
);
},
{
closed = 1;
nodes = (
"279 98 OFFCURVE",
"206 167 OFFCURVE",
"206 271 CURVE SMOOTH",
"206 281 LINE SMOOTH",
"206 387 OFFCURVE",
"278 458 OFFCURVE",
"386 458 CURVE SMOOTH",
"495 458 OFFCURVE",
"566 386 OFFCURVE",
"566 278 CURVE SMOOTH",
"566 170 OFFCURVE",
"495 98 OFFCURVE",
"386 98 CURVE SMOOTH"
);
}
);
width = 755;
},
{
associatedMasterId = "6BCBDBF6-8315-4194-A290-F71994A92467";
layerId = "063FBBF9-AA71-4833-A30A-A19DBE1EBE4C";
name = foreground;
paths = (
{
closed = 1;
nodes = (
"600 -21 OFFCURVE",
"719 97 OFFCURVE",
"719 271 CURVE SMOOTH",
"719 448 OFFCURVE",
"599 572 OFFCURVE",
"439 572 CURVE SMOOTH",
"343 572 OFFCURVE",
"263 527 OFFCURVE",
"210 440 CURVE",
"210 560 LINE",
"60 560 LINE",
"60 -200 LINE",
"210 -200 LINE",
"210 95 LINE",
"256 23 OFFCURVE",
"340 -21 OFFCURVE",
"438 -21 CURVE SMOOTH"
);
},
{
closed = 1;
nodes = (
"278 93 OFFCURVE",
"205 162 OFFCURVE",
"205 266 CURVE SMOOTH",
"205 276 LINE SMOOTH",
"205 382 OFFCURVE",
"277 453 OFFCURVE",
"385 453 CURVE SMOOTH",
"494 453 OFFCURVE",
"565 381 OFFCURVE",
"565 273 CURVE SMOOTH",
"565 165 OFFCURVE",
"494 93 OFFCURVE",
"385 93 CURVE SMOOTH"
);
}
);
width = 754;
}
);
leftMetricsKey = b;
rightMetricsKey = b;
unicode = 0070;
},
{
glyphname = thorn;
lastChange = "2021-05-02 21:54:42 +0000";
layers = (
{
layerId = "6BCBDBF6-8315-4194-A290-F71994A92467";
paths = (
{
closed = 1;
nodes = (
"600 -21 OFFCURVE",
"719 97 OFFCURVE",
"719 276 CURVE SMOOTH",
"719 453 OFFCURVE",
"599 577 OFFCURVE",
"439 577 CURVE SMOOTH",
"343 577 OFFCURVE",
"263 532 OFFCURVE",
"210 445 CURVE",
"210 785 LINE",
"60 785 LINE",
"60 -215 LINE",
"210 -215 LINE",
"210 100 LINE",
"256 23 OFFCURVE",
"341 -21 OFFCURVE",
"439 -21 CURVE SMOOTH"
);
},
{
closed = 1;
nodes = (
"278 98 OFFCURVE",
"205 167 OFFCURVE",
"205 271 CURVE SMOOTH",
"205 281 LINE SMOOTH",
"205 387 OFFCURVE",
"277 458 OFFCURVE",
"385 458 CURVE SMOOTH",
"494 458 OFFCURVE",
"565 386 OFFCURVE",
"565 278 CURVE SMOOTH",
"565 170 OFFCURVE",
"494 98 OFFCURVE",
"385 98 CURVE SMOOTH"
);
}
);
width = 754;
}
);
leftKerningGroup = h;
rightKerningGroup = o;
rightMetricsKey = p;
unicode = 00FE;
},
{
color = 3;
glyphname = q;
lastChange = "2021-05-02 21:54:42 +0000";
layers = (
{
anchors = (
{
name = bottom;
position = "{382, 0}";
},
{
name = top;
position = "{382, 560}";
}
);
background = {
paths = (
{
closed = 1;
nodes = (
"405 -26 OFFCURVE",
"493 20 OFFCURVE",
"544 100 CURVE",
"544 -210 LINE",
"694 -210 LINE",
"694 560 LINE",
"544 560 LINE",
"544 450 LINE",
"488 527 OFFCURVE",
"407 572 OFFCURVE",
"309 572 CURVE SMOOTH",
"147 572 OFFCURVE",
"35 449 OFFCURVE",
"35 275 CURVE SMOOTH",
"35 92 OFFCURVE",
"158 -26 OFFCURVE",
"310 -26 CURVE SMOOTH"
);
},
{
closed = 1;
nodes = (
"258 93 OFFCURVE",
"189 165 OFFCURVE",
"189 273 CURVE SMOOTH",
"189 381 OFFCURVE",
"259 453 OFFCURVE",
"367 453 CURVE SMOOTH",
"475 453 OFFCURVE",
"549 382 OFFCURVE",
"549 276 CURVE SMOOTH",
"549 266 LINE SMOOTH",
"549 162 OFFCURVE",
"474 93 OFFCURVE",
"367 93 CURVE SMOOTH"
);
}
);
};
layerId = "6BCBDBF6-8315-4194-A290-F71994A92467";
paths = (
{
closed = 1;
nodes = (
"405 -21 OFFCURVE",
"493 25 OFFCURVE",
"544 105 CURVE",
"544 -215 LINE",
"694 -215 LINE",
"694 560 LINE",
"544 560 LINE",
"544 455 LINE",
"488 532 OFFCURVE",
"407 577 OFFCURVE",
"309 577 CURVE SMOOTH",
"147 577 OFFCURVE",
"35 454 OFFCURVE",
"35 280 CURVE SMOOTH",
"35 97 OFFCURVE",
"158 -21 OFFCURVE",
"310 -21 CURVE SMOOTH"
);
},
{
closed = 1;
nodes = (
"258 98 OFFCURVE",
"189 170 OFFCURVE",
"189 278 CURVE SMOOTH",
"189 386 OFFCURVE",
"259 458 OFFCURVE",
"367 458 CURVE SMOOTH",
"475 458 OFFCURVE",
"549 387 OFFCURVE",
"549 281 CURVE SMOOTH",
"549 271 LINE SMOOTH",
"549 167 OFFCURVE",
"474 98 OFFCURVE",
"367 98 CURVE SMOOTH"
);
}
);
width = 764;
},
{
associatedMasterId = "6BCBDBF6-8315-4194-A290-F71994A92467";
layerId = "EA6C9805-BDE1-4741-A9A4-6DF2A9EB26B6";
name = foreground;
paths = (
{
closed = 1;
nodes = (
"422 -26 OFFCURVE",
"510 20 OFFCURVE",
"561 100 CURVE",
"561 -210 LINE",
"711 -210 LINE",
"711 560 LINE",
"561 560 LINE",
"561 450 LINE",
"505 527 OFFCURVE",
"424 572 OFFCURVE",
"326 572 CURVE SMOOTH",
"164 572 OFFCURVE",
"52 449 OFFCURVE",
"52 275 CURVE SMOOTH",
"52 92 OFFCURVE",
"175 -26 OFFCURVE",
"327 -26 CURVE SMOOTH"
);
},
{
closed = 1;
nodes = (
"275 93 OFFCURVE",
"206 165 OFFCURVE",
"206 273 CURVE SMOOTH",
"206 381 OFFCURVE",
"276 453 OFFCURVE",
"384 453 CURVE SMOOTH",
"492 453 OFFCURVE",
"566 382 OFFCURVE",
"566 276 CURVE SMOOTH",
"566 266 LINE SMOOTH",
"566 162 OFFCURVE",
"491 93 OFFCURVE",
"384 93 CURVE SMOOTH"
);
}
);
width = 788;
}
);
leftKerningGroup = o;
leftMetricsKey = d;
rightKerningGroup = d;
rightMetricsKey = d;
unicode = 0071;
},
{
color = 3;
glyphname = r;
lastChange = "2021-05-09 11:31:35 +0000";
layers = (
{
anchors = (
{
name = bottom;
position = "{158, 0}";
},
{
name = top;
position = "{248, 560}";
}
);
layerId = "6BCBDBF6-8315-4194-A290-F71994A92467";
paths = (
{
closed = 1;
nodes = (
"211 0 LINE",
"211 366 LINE",
"253 408 OFFCURVE",
"311 430 OFFCURVE",
"378 430 CURVE SMOOTH",
"408 430 OFFCURVE",
"440 426 OFFCURVE",
"474 417 CURVE",
"474 565 LINE",
"460 567 OFFCURVE",
"446 568 OFFCURVE",
"432 568 CURVE SMOOTH",
"341 568 OFFCURVE",
"252 524 OFFCURVE",
"207 429 CURVE",
"207 560 LINE",
"61 560 LINE",
"61 0 LINE"
);
}
);
width = 494;
},
{
associatedMasterId = "6BCBDBF6-8315-4194-A290-F71994A92467";
layerId = "D0FF9CF2-91C5-48A6-9879-57B30D7213DD";
name = foreground;
paths = (
{
closed = 1;
nodes = (
"227 0 LINE",
"227 366 LINE",
"288 427 OFFCURVE",
"381 445 OFFCURVE",
"490 417 CURVE",
"490 565 LINE",
"386 581 OFFCURVE",
"275 539 OFFCURVE",
"223 429 CURVE",
"223 560 LINE",
"77 560 LINE",
"77 0 LINE"
);
}
);
width = 510;
}
);
leftKerningGroup = n;
leftMetricsKey = n;
rightKerningGroup = r;
unicode = 0072;
},
{
color = 3;
glyphname = s;
lastChange = "2021-05-09 11:21:03 +0000";
layers = (
{
anchors = (
{
name = bottom;
position = "{317, 0}";
},
{
name = top;
position = "{320, 560}";
}
);
background = {
paths = (
{
closed = 1;
nodes = (
"50 188 OFFCURVE",
"496 269 OFFCURVE",
"496 158 CURVE SMOOTH",
"496 116 OFFCURVE",
"441 93 OFFCURVE",
"337 93 CURVE SMOOTH",
"241 93 OFFCURVE",
"166 113 OFFCURVE",
"57 170 CURVE",
"57 45 LINE",
"150 0 OFFCURVE",
"242 -21 OFFCURVE",
"352 -21 CURVE SMOOTH",
"534 -21 OFFCURVE",
"637 37 OFFCURVE",
"637 155 CURVE SMOOTH",
"637 398 OFFCURVE",
"191 311 OFFCURVE",
"191 404 CURVE SMOOTH",
"191 444 OFFCURVE",
"243 464 OFFCURVE",
"343 464 CURVE SMOOTH",
"455 464 OFFCURVE",
"519 449 OFFCURVE",
"593 416 CURVE",
"593 535 LINE",
"518 566 OFFCURVE",
"445 577 OFFCURVE",
"348 577 CURVE SMOOTH",
"161 577 OFFCURVE",
"50 519 OFFCURVE",
"50 400 CURVE SMOOTH"
);
}
);
};
layerId = "6BCBDBF6-8315-4194-A290-F71994A92467";
paths = (
{
closed = 1;
nodes = (
"43 183 OFFCURVE",
"474 269 OFFCURVE",
"474 156 CURVE SMOOTH",
"474 116 OFFCURVE",
"420 93 OFFCURVE",
"317 93 CURVE SMOOTH",
"230 93 OFFCURVE",
"151 111 OFFCURVE",
"50 156 CURVE",
"59 32 LINE",
"143 -7 OFFCURVE",
"231 -21 OFFCURVE",
"332 -21 CURVE SMOOTH",
"513 -21 OFFCURVE",
"615 37 OFFCURVE",
"615 155 CURVE SMOOTH",
"615 398 OFFCURVE",
"181 307 OFFCURVE",
"181 409 CURVE SMOOTH",
"181 444 OFFCURVE",
"230 464 OFFCURVE",
"334 464 CURVE SMOOTH",
"428 464 OFFCURVE",
"503 446 OFFCURVE",
"577 413 CURVE",
"571 535 LINE",
"497 566 OFFCURVE",
"418 577 OFFCURVE",
"339 577 CURVE SMOOTH",
"147 577 OFFCURVE",
"43 519 OFFCURVE",
"43 411 CURVE SMOOTH"
);
}
);
width = 650;
},
{
associatedMasterId = "6BCBDBF6-8315-4194-A290-F71994A92467";
layerId = "5C3E432C-D29B-46A5-8E56-B797E9351750";
name = foreground;
paths = (
{
closed = 1;
nodes = (
"40 188 OFFCURVE",
"474 269 OFFCURVE",
"474 158 CURVE SMOOTH",
"474 116 OFFCURVE",
"420 93 OFFCURVE",
"317 93 CURVE SMOOTH",
"228 93 OFFCURVE",
"158 111 OFFCURVE",
"57 155 CURVE",
"57 32 LINE",
"143 -2 OFFCURVE",
"229 -21 OFFCURVE",
"332 -21 CURVE SMOOTH",
"513 -21 OFFCURVE",
"615 37 OFFCURVE",
"615 155 CURVE SMOOTH",
"615 398 OFFCURVE",
"181 311 OFFCURVE",
"181 404 CURVE SMOOTH",
"181 444 OFFCURVE",
"230 464 OFFCURVE",
"323 464 CURVE SMOOTH",
"434 464 OFFCURVE",
"497 449 OFFCURVE",
"571 416 CURVE",
"571 535 LINE",
"497 566 OFFCURVE",
"424 577 OFFCURVE",
"328 577 CURVE SMOOTH",
"147 577 OFFCURVE",
"40 519 OFFCURVE",
"40 400 CURVE SMOOTH"
);
}
);
width = 640;
},
{
anchors = (
{
name = bottom;
position = "{317, 0}";
},
{
name = top;
position = "{320, 560}";
}
);
associatedMasterId = "6BCBDBF6-8315-4194-A290-F71994A92467";
background = {
paths = (
{
closed = 1;
nodes = (
"50 188 OFFCURVE",
"496 269 OFFCURVE",
"496 158 CURVE SMOOTH",
"496 116 OFFCURVE",
"441 93 OFFCURVE",
"337 93 CURVE SMOOTH",
"241 93 OFFCURVE",
"166 113 OFFCURVE",
"57 170 CURVE",
"57 45 LINE",
"150 0 OFFCURVE",
"242 -21 OFFCURVE",
"352 -21 CURVE SMOOTH",
"534 -21 OFFCURVE",
"637 37 OFFCURVE",
"637 155 CURVE SMOOTH",
"637 398 OFFCURVE",
"191 311 OFFCURVE",
"191 404 CURVE SMOOTH",
"191 444 OFFCURVE",
"243 464 OFFCURVE",
"343 464 CURVE SMOOTH",
"455 464 OFFCURVE",
"519 449 OFFCURVE",
"593 416 CURVE",
"593 535 LINE",
"518 566 OFFCURVE",
"445 577 OFFCURVE",
"348 577 CURVE SMOOTH",
"161 577 OFFCURVE",
"50 519 OFFCURVE",
"50 400 CURVE SMOOTH"
);
}
);
};
layerId = "99EC8D6D-99C4-414A-AD90-E344F1D3F0A9";
name = "19 Apr 21, 13:59";
paths = (
{
closed = 1;
nodes = (
"41 183 OFFCURVE",
"474 269 OFFCURVE",
"474 156 CURVE SMOOTH",
"474 116 OFFCURVE",
"420 93 OFFCURVE",
"317 93 CURVE SMOOTH",
"230 93 OFFCURVE",
"151 111 OFFCURVE",
"50 155 CURVE",
"59 32 LINE",
"145 -2 OFFCURVE",
"231 -21 OFFCURVE",
"332 -21 CURVE SMOOTH",
"513 -21 OFFCURVE",
"615 37 OFFCURVE",
"615 155 CURVE SMOOTH",
"615 398 OFFCURVE",
"182 307 OFFCURVE",
"182 409 CURVE SMOOTH",
"182 444 OFFCURVE",
"231 464 OFFCURVE",
"334 464 CURVE SMOOTH",
"428 464 OFFCURVE",
"503 446 OFFCURVE",
"577 413 CURVE",
"571 535 LINE",
"497 566 OFFCURVE",
"418 577 OFFCURVE",
"339 577 CURVE SMOOTH",
"148 577 OFFCURVE",
"41 519 OFFCURVE",
"41 411 CURVE SMOOTH"
);
}
);
width = 650;
}
);
leftKerningGroup = s;
rightKerningGroup = s;
unicode = 0073;
},
{
color = 3;
glyphname = germandbls;
lastChange = "2021-05-02 21:54:42 +0000";
layers = (
{
anchors = (
{
name = bottom;
position = "{456, 0}";
},
{
name = top;
position = "{456, 560}";
}
);
layerId = "6BCBDBF6-8315-4194-A290-F71994A92467";
paths = (
{
closed = 1;
nodes = (
"287 0 LINE",
"287 565 LINE SMOOTH",
"287 642 OFFCURVE",
"344 675 OFFCURVE",
"466 675 CURVE SMOOTH",
"579 675 OFFCURVE",
"640 653 OFFCURVE",
"640 606 CURVE SMOOTH",
"640 520 OFFCURVE",
"381 560 OFFCURVE",
"381 388 CURVE SMOOTH",
"381 188 OFFCURVE",
"736 269 OFFCURVE",
"736 162 CURVE SMOOTH",
"736 115 OFFCURVE",
"668 93 OFFCURVE",
"591 93 CURVE SMOOTH",
"526 93 OFFCURVE",
"448 109 OFFCURVE",
"378 140 CURVE",
"378 22 LINE",
"447 -1 OFFCURVE",
"536 -21 OFFCURVE",
"622 -21 CURVE SMOOTH",
"770 -21 OFFCURVE",
"886 37 OFFCURVE",
"886 162 CURVE SMOOTH",
"886 398 OFFCURVE",
"531 285 OFFCURVE",
"531 393 CURVE SMOOTH",
"531 484 OFFCURVE",
"790 419 OFFCURVE",
"790 612 CURVE SMOOTH",
"790 730 OFFCURVE",
"696 790 OFFCURVE",
"471 790 CURVE SMOOTH",
"257 790 OFFCURVE",
"137 706 OFFCURVE",
"137 568 CURVE SMOOTH",
"137 0 LINE"
);
},
{
closed = 1;
nodes = (
"157 560 LINE",
"10 560 LINE",
"10 445 LINE",
"157 445 LINE"
);
}
);
width = 921;
},
{
associatedMasterId = "6BCBDBF6-8315-4194-A290-F71994A92467";
layerId = "578FCA1A-77AF-4F03-9790-B667237A42DB";
name = foreground;
width = 614;
}
);
leftKerningGroup = h;
leftMetricsKey = f;
rightKerningGroup = germandbls;
rightMetricsKey = s;
unicode = 00DF;
},
{
color = 3;
glyphname = t;
lastChange = "2021-05-03 00:48:05 +0000";
layers = (
{
anchors = (
{
name = bottom;
position = "{332, 0}";
},
{
name = center;
position = "{299, 280}";
},
{
name = top;
position = "{299, 560}";
},
{
name = topright;
position = "{281, 905}";
}
);
background = {
paths = (
{
closed = 1;
nodes = (
"148 63 OFFCURVE",
"247 -21 OFFCURVE",
"399 -21 CURVE SMOOTH",
"457 -21 OFFCURVE",
"514 -9 OFFCURVE",
"569 14 CURVE",
"569 130 LINE",
"517 111 OFFCURVE",
"471 103 OFFCURVE",
"434 103 CURVE",
"350 103 OFFCURVE",
"298 144 OFFCURVE",
"298 213 CURVE SMOOTH",
"298 750 LINE",
"148 650 LINE",
"148 173 LINE SMOOTH"
);
},
{
closed = 1;
nodes = (
"27 445 LINE",
"565 445 LINE",
"565 560 LINE",
"27 560 LINE"
);
}
);
};
layerId = "6BCBDBF6-8315-4194-A290-F71994A92467";
paths = (
{
closed = 1;
nodes = (
"131 63 OFFCURVE",
"230 -21 OFFCURVE",
"382 -21 CURVE SMOOTH",
"440 -21 OFFCURVE",
"497 -9 OFFCURVE",
"552 14 CURVE",
"572 130 LINE",
"513 108 OFFCURVE",
"462 103 OFFCURVE",
"428 103 CURVE SMOOTH",
"333 103 OFFCURVE",
"281 144 OFFCURVE",
"281 223 CURVE SMOOTH",
"281 750 LINE",
"134 648 LINE",
"134 518 LINE",
"131 503 LINE",
"131 173 LINE SMOOTH"
);
},
{
closed = 1;
nodes = (
"10 445 LINE",
"548 445 LINE",
"548 560 LINE",
"10 560 LINE"
);
}
);
width = 607;
},
{
associatedMasterId = "6BCBDBF6-8315-4194-A290-F71994A92467";
layerId = "2F553518-E301-436D-9E41-55FC22FE61FC";
name = foreground;
paths = (
{
closed = 1;
nodes = (
"141 63 OFFCURVE",
"240 -21 OFFCURVE",
"392 -21 CURVE SMOOTH",
"450 -21 OFFCURVE",
"507 -9 OFFCURVE",
"562 14 CURVE",
"582 130 LINE",
"523 108 OFFCURVE",
"472 103 OFFCURVE",
"438 103 CURVE SMOOTH",
"343 103 OFFCURVE",
"291 144 OFFCURVE",
"291 213 CURVE SMOOTH",
"291 750 LINE",
"144 648 LINE",
"144 518 LINE",
"141 503 LINE",
"141 173 LINE SMOOTH"
);
},
{
closed = 1;
nodes = (
"20 445 LINE",
"558 445 LINE",
"558 560 LINE",
"20 560 LINE"
);
}
);
width = 617;
},
{
anchors = (
{
name = bottom;
position = "{332, 0}";
},
{
name = center;
position = "{299, 280}";
},
{
name = top;
position = "{299, 560}";
},
{
name = topright;
position = "{281, 905}";
}
);
associatedMasterId = "6BCBDBF6-8315-4194-A290-F71994A92467";
background = {
paths = (
{
closed = 1;
nodes = (
"148 63 OFFCURVE",
"247 -21 OFFCURVE",
"399 -21 CURVE SMOOTH",
"457 -21 OFFCURVE",
"514 -9 OFFCURVE",
"569 14 CURVE",
"569 130 LINE",
"517 111 OFFCURVE",
"471 103 OFFCURVE",
"434 103 CURVE",
"350 103 OFFCURVE",
"298 144 OFFCURVE",
"298 213 CURVE SMOOTH",
"298 750 LINE",
"148 650 LINE",
"148 173 LINE SMOOTH"
);
},
{
closed = 1;
nodes = (
"27 445 LINE",
"565 445 LINE",
"565 560 LINE",
"27 560 LINE"
);
}
);
};
layerId = "ECD50FF1-246B-42D6-B35A-022422623E04";
name = "19 Apr 21, 14:22";
paths = (
{
closed = 1;
nodes = (
"131 63 OFFCURVE",
"230 -21 OFFCURVE",
"382 -21 CURVE SMOOTH",
"440 -21 OFFCURVE",
"497 -9 OFFCURVE",
"552 14 CURVE",
"572 130 LINE",
"513 108 OFFCURVE",
"462 103 OFFCURVE",
"428 103 CURVE SMOOTH",
"333 103 OFFCURVE",
"281 144 OFFCURVE",
"281 213 CURVE SMOOTH",
"281 750 LINE",
"134 648 LINE",
"134 518 LINE",
"131 503 LINE",
"131 173 LINE SMOOTH"
);
},
{
closed = 1;
nodes = (
"10 445 LINE",
"548 445 LINE",
"548 560 LINE",
"10 560 LINE"
);
}
);
width = 607;
}
);
leftKerningGroup = t;
rightKerningGroup = t;
unicode = 0074;
},
{
color = 3;
glyphname = u;
lastChange = "2021-05-02 21:54:42 +0000";
layers = (
{
anchors = (
{
name = bottom;
position = "{356, 0}";
},
{
name = ogonek;
position = "{640, 10}";
},
{
name = top;
position = "{356, 560}";
},
{
name = topright;
position = "{691, 560}";
}
);
layerId = "6BCBDBF6-8315-4194-A290-F71994A92467";
paths = (
{
closed = 1;
nodes = (
"475 139 OFFCURVE",
"419 96 OFFCURVE",
"344 96 CURVE SMOOTH",
"259 96 OFFCURVE",
"207 146 OFFCURVE",
"207 228 CURVE SMOOTH",
"207 560 LINE",
"57 560 LINE",
"57 198 LINE SMOOTH",
"57 58 OFFCURVE",
"137 -21 OFFCURVE",
"280 -21 CURVE SMOOTH",
"399 -21 OFFCURVE",
"475 36 OFFCURVE",
"516 154 CURVE",
"514 227 LINE"
);
},
{
closed = 1;
nodes = (
"501 560 LINE",
"501 0 LINE",
"651 0 LINE",
"651 560 LINE"
);
}
);
width = 711;
},
{
associatedMasterId = "6BCBDBF6-8315-4194-A290-F71994A92467";
layerId = "930B487C-4D62-4CFA-82A5-159D76FAB179";
name = foreground;
paths = (
{
closed = 1;
nodes = (
"485 144 OFFCURVE",
"432 96 OFFCURVE",
"352 96 CURVE SMOOTH",
"274 96 OFFCURVE",
"215 139 OFFCURVE",
"215 228 CURVE SMOOTH",
"215 560 LINE",
"65 560 LINE",
"65 198 LINE SMOOTH",
"65 60 OFFCURVE",
"143 -21 OFFCURVE",
"288 -21 CURVE SMOOTH",
"407 -21 OFFCURVE",
"483 36 OFFCURVE",
"524 154 CURVE",
"522 227 LINE"
);
},
{
closed = 1;
nodes = (
"509 560 LINE",
"509 0 LINE",
"659 0 LINE",
"659 560 LINE"
);
}
);
width = 729;
}
);
leftKerningGroup = u;
rightKerningGroup = u;
unicode = 0075;
},
{
glyphname = uogonek;
lastChange = "2021-05-02 21:54:42 +0000";
layers = (
{
anchors = (
{
name = _ogonek;
position = "{640, 10}";
}
);
components = (
{
name = u;
}
);
layerId = "6BCBDBF6-8315-4194-A290-F71994A92467";
paths = (
{
closed = 1;
nodes = (
"529 21 LINE",
"451 -20 OFFCURVE",
"402 -85 OFFCURVE",
"402 -149 CURVE SMOOTH",
"402 -246 OFFCURVE",
"496 -291 OFFCURVE",
"647 -266 CURVE",
"647 -163 LINE",
"567 -181 OFFCURVE",
"516 -163 OFFCURVE",
"516 -119 CURVE SMOOTH",
"516 -76 OFFCURVE",
"568 -32 OFFCURVE",
"651 0 CURVE"
);
}
);
width = 711;
}
);
leftKerningGroup = u;
rightKerningGroup = u;
unicode = 0173;
},
{
color = 3;
glyphname = v;
lastChange = "2021-05-02 21:54:42 +0000";
layers = (
{
anchors = (
{
name = bottom;
position = "{363, 0}";
},
{
name = top;
position = "{363, 560}";
}
);
background = {
paths = (
{
closed = 1;
nodes = (
"302 0 LINE",
"481 0 LINE",
"757 560 LINE",
"596 560 LINE",
"393 134 LINE",
"189 560 LINE",
"26 560 LINE"
);
}
);
};
layerId = "6BCBDBF6-8315-4194-A290-F71994A92467";
paths = (
{
closed = 1;
nodes = (
"272 0 LINE",
"453 0 LINE",
"705 559 LINE",
"538 560 LINE",
"365 132 LINE",
"191 560 LINE",
"20 560 LINE"
);
}
);
width = 725;
},
{
associatedMasterId = "6BCBDBF6-8315-4194-A290-F71994A92467";
layerId = "AA5975C9-C7F0-458D-81EF-1907BD294273";
name = foreground;
paths = (
{
closed = 1;
nodes = (
"272 0 LINE",
"453 0 LINE",
"705 559 LINE",
"538 560 LINE",
"365 132 LINE",
"191 560 LINE",
"20 560 LINE"
);
}
);
width = 725;
}
);
leftKerningGroup = v;
rightKerningGroup = v;
unicode = 0076;
},
{
color = 3;
glyphname = w;
lastChange = "2021-05-02 21:54:42 +0000";
layers = (
{
anchors = (
{
name = bottom;
position = "{529, 0}";
},
{
name = top;
position = "{529, 560}";
}
);
layerId = "6BCBDBF6-8315-4194-A290-F71994A92467";
paths = (
{
closed = 1;
nodes = (
"206 0 LINE",
"403 0 LINE",
"525 379 LINE",
"651 0 LINE",
"851 0 LINE",
"1037 560 LINE",
"889 560 LINE",
"751 122 LINE",
"604 560 LINE",
"446 560 LINE",
"302 124 LINE",
"171 560 LINE",
"20 560 LINE"
);
}
);
width = 1057;
},
{
associatedMasterId = "6BCBDBF6-8315-4194-A290-F71994A92467";
layerId = "3A40BD5D-E816-4F56-B44D-C955E73F64D8";
name = foreground;
paths = (
{
closed = 1;
nodes = (
"222 0 LINE",
"419 0 LINE",
"541 379 LINE",
"667 0 LINE",
"867 0 LINE",
"1053 560 LINE",
"905 560 LINE",
"767 118 LINE",
"620 560 LINE",
"462 560 LINE",
"318 120 LINE",
"187 560 LINE",
"36 560 LINE"
);
}
);
width = 1085;
}
);
leftKerningGroup = w;
leftMetricsKey = v;
rightKerningGroup = w;
rightMetricsKey = v;
unicode = 0077;
},
{
color = 3;
glyphname = x;
lastChange = "2021-05-09 11:41:57 +0000";
layers = (
{
anchors = (
{
name = bottom;
position = "{357, 0}";
},
{
name = top;
position = "{357, 560}";
}
);
background = {
paths = (
{
closed = 1;
nodes = (
"228 0 LINE",
"391 180 LINE",
"560 0 LINE",
"751 0 LINE",
"487 282 LINE",
"744 560 LINE",
"553 560 LINE",
"397 386 LINE",
"235 560 LINE",
"44 560 LINE",
"301 284 LINE",
"37 0 LINE"
);
}
);
};
layerId = "6BCBDBF6-8315-4194-A290-F71994A92467";
paths = (
{
closed = 1;
nodes = (
"687 560 LINE",
"506 560 LINE",
"352 371 LINE",
"439 275 LINE"
);
},
{
closed = 1;
nodes = (
"696 0 LINE",
"406 333 LINE",
"217 560 LINE",
"27 560 LINE",
"300 243 LINE",
"506 0 LINE"
);
},
{
closed = 1;
nodes = (
"198 0 LINE",
"367 211 LINE",
"280 308 LINE",
"17 0 LINE"
);
}
);
width = 713;
},
{
associatedMasterId = "6BCBDBF6-8315-4194-A290-F71994A92467";
layerId = "08EC495A-48EF-4A92-B30A-B40CABA1D343";
name = foreground;
paths = (
{
closed = 1;
nodes = (
"687 560 LINE",
"506 560 LINE",
"352 371 LINE",
"439 275 LINE"
);
},
{
closed = 1;
nodes = (
"693 0 LINE",
"406 333 LINE",
"217 560 LINE",
"27 560 LINE",
"300 243 LINE",
"503 0 LINE"
);
},
{
closed = 1;
nodes = (
"201 0 LINE",
"367 211 LINE",
"280 308 LINE",
"20 0 LINE"
);
}
);
width = 713;
}
);
leftKerningGroup = x;
rightKerningGroup = x;
unicode = 0078;
},
{
color = 3;
glyphname = y;
lastChange = "2021-05-02 21:54:42 +0000";
layers = (
{
associatedMasterId = "6BCBDBF6-8315-4194-A290-F71994A92467";
layerId = "2FDED988-871F-474A-9682-1526086A40BB";
name = foreground;
paths = (
{
closed = 1;
nodes = (
"289 -24 LINE",
"260 -74 OFFCURVE",
"224 -95 OFFCURVE",
"165 -95 CURVE SMOOTH",
"124 -95 OFFCURVE",
"73 -85 OFFCURVE",
"10 -64 CURVE",
"24 -190 LINE",
"86 -215 OFFCURVE",
"132 -224 OFFCURVE",
"183 -224 CURVE SMOOTH",
"310 -224 OFFCURVE",
"384 -173 OFFCURVE",
"451 -20 CURVE SMOOTH",
"707 560 LINE",
"547 560 LINE",
"374 130 LINE",
"180 560 LINE",
"13 560 LINE"
);
}
);
width = 728;
},
{
anchors = (
{
name = bottom;
position = "{359, 0}";
},
{
name = top;
position = "{359, 560}";
}
);
associatedMasterId = "6BCBDBF6-8315-4194-A290-F71994A92467";
background = {
paths = (
{
closed = 1;
nodes = (
"295 0 LINE",
"476 0 LINE",
"728 559 LINE",
"561 560 LINE",
"388 132 LINE",
"214 560 LINE",
"43 560 LINE"
);
}
);
};
layerId = "A28154C1-8951-4812-8FF7-84DA33328A55";
name = "3 Feb 21, 17:44";
paths = (
{
closed = 1;
nodes = (
"284 -25 LINE",
"255 -75 OFFCURVE",
"219 -96 OFFCURVE",
"160 -96 CURVE SMOOTH",
"119 -96 OFFCURVE",
"68 -86 OFFCURVE",
"5 -65 CURVE",
"19 -191 LINE",
"81 -216 OFFCURVE",
"127 -225 OFFCURVE",
"178 -225 CURVE SMOOTH",
"305 -225 OFFCURVE",
"379 -174 OFFCURVE",
"446 -21 CURVE SMOOTH",
"702 560 LINE",
"542 560 LINE",
"369 130 LINE",
"175 560 LINE",
"8 560 LINE"
);
}
);
width = 722;
},
{
anchors = (
{
name = bottom;
position = "{359, 0}";
},
{
name = top;
position = "{359, 560}";
}
);
associatedMasterId = "6BCBDBF6-8315-4194-A290-F71994A92467";
background = {
paths = (
{
closed = 1;
nodes = (
"295 0 LINE",
"476 0 LINE",
"728 559 LINE",
"561 560 LINE",
"388 132 LINE",
"214 560 LINE",
"43 560 LINE"
);
}
);
};
layerId = "E78556AC-DCCA-40FD-B37C-97F97AA60542";
name = "27 Mar 21, 02:44";
paths = (
{
closed = 1;
nodes = (
"284 -25 LINE",
"265 -75 OFFCURVE",
"219 -96 OFFCURVE",
"160 -96 CURVE SMOOTH",
"119 -96 OFFCURVE",
"68 -86 OFFCURVE",
"24 -65 CURVE",
"29 -191 LINE",
"78 -215 OFFCURVE",
"124 -225 OFFCURVE",
"178 -225 CURVE SMOOTH",
"308 -225 OFFCURVE",
"381 -170 OFFCURVE",
"446 -21 CURVE SMOOTH",
"702 560 LINE",
"542 560 LINE",
"369 130 LINE",
"175 560 LINE",
"8 560 LINE"
);
}
);
width = 722;
},
{
anchors = (
{
name = bottom;
position = "{371, 0}";
},
{
name = top;
position = "{371, 560}";
}
);
associatedMasterId = "6BCBDBF6-8315-4194-A290-F71994A92467";
background = {
paths = (
{
closed = 1;
nodes = (
"307 0 LINE",
"488 0 LINE",
"740 559 LINE",
"573 560 LINE",
"400 132 LINE",
"226 560 LINE",
"55 560 LINE"
);
}
);
};
layerId = "4BF5EE58-CB58-4AB2-97DF-9A17D9395858";
name = "21 Apr 21, 22:49";
paths = (
{
closed = 1;
nodes = (
"286 0 LINE",
"344 0 LINE",
"299 -76 OFFCURVE",
"231 -97 OFFCURVE",
"147 -97 CURVE SMOOTH",
"111 -97 OFFCURVE",
"76 -93 OFFCURVE",
"47 -86 CURVE",
"52 -206 LINE",
"87 -219 OFFCURVE",
"131 -225 OFFCURVE",
"179 -225 CURVE SMOOTH",
"320 -225 OFFCURVE",
"402 -170 OFFCURVE",
"466 -21 CURVE SMOOTH",
"714 560 LINE",
"554 560 LINE",
"381 130 LINE",
"187 560 LINE",
"20 560 LINE"
);
}
);
width = 734;
},
{
anchors = (
{
name = bottom;
position = "{371, 0}";
},
{
name = top;
position = "{371, 560}";
}
);
background = {
paths = (
{
closed = 1;
nodes = (
"307 0 LINE",
"488 0 LINE",
"740 559 LINE",
"573 560 LINE",
"400 132 LINE",
"226 560 LINE",
"55 560 LINE"
);
}
);
};
layerId = "6BCBDBF6-8315-4194-A290-F71994A92467";
name = "150";
paths = (
{
closed = 1;
nodes = (
"296 0 LINE",
"280 -76 OFFCURVE",
"231 -100 OFFCURVE",
"154 -100 CURVE SMOOTH",
"111 -100 OFFCURVE",
"76 -93 OFFCURVE",
"47 -86 CURVE",
"52 -206 LINE",
"87 -219 OFFCURVE",
"131 -225 OFFCURVE",
"179 -225 CURVE SMOOTH",
"320 -225 OFFCURVE",
"392 -170 OFFCURVE",
"458 -21 CURVE SMOOTH",
"714 560 LINE",
"554 560 LINE",
"381 130 LINE",
"187 560 LINE",
"20 560 LINE"
);
}
);
width = 734;
},
{
anchors = (
{
name = bottom;
position = "{371, 0}";
},
{
name = top;
position = "{371, 560}";
}
);
associatedMasterId = "6BCBDBF6-8315-4194-A290-F71994A92467";
background = {
paths = (
{
closed = 1;
nodes = (
"307 0 LINE",
"488 0 LINE",
"740 559 LINE",
"573 560 LINE",
"400 132 LINE",
"226 560 LINE",
"55 560 LINE"
);
}
);
};
layerId = "C3B925DB-AC01-4345-B1EF-59CE2067B190";
name = "21 Apr 21, 22:50";
paths = (
{
closed = 1;
nodes = (
"296 0 LINE",
"277 -76 OFFCURVE",
"231 -97 OFFCURVE",
"147 -97 CURVE SMOOTH",
"111 -97 OFFCURVE",
"76 -93 OFFCURVE",
"47 -86 CURVE",
"52 -206 LINE",
"87 -219 OFFCURVE",
"131 -225 OFFCURVE",
"179 -225 CURVE SMOOTH",
"320 -225 OFFCURVE",
"392 -170 OFFCURVE",
"458 -21 CURVE SMOOTH",
"714 560 LINE",
"554 560 LINE",
"381 130 LINE",
"187 560 LINE",
"20 560 LINE"
);
}
);
width = 734;
}
);
leftKerningGroup = y;
leftMetricsKey = v;
rightKerningGroup = y;
rightMetricsKey = v;
unicode = 0079;
},
{
color = 3;
glyphname = z;
lastChange = "2021-05-02 21:54:42 +0000";
layers = (
{
anchors = (
{
name = bottom;
position = "{303, 0}";
},
{
name = center;
position = "{303, 280}";
},
{
name = top;
position = "{323, 560}";
}
);
layerId = "6BCBDBF6-8315-4194-A290-F71994A92467";
paths = (
{
closed = 1;
nodes = (
"31 125 LINE",
"31 0 LINE",
"599 0 LINE",
"599 123 LINE",
"130 123 LINE",
"170 84 LINE",
"592 440 LINE",
"592 560 LINE",
"50 560 LINE",
"51 440 LINE",
"502 440 LINE",
"450 481 LINE",
"30 125 LINE"
);
}
);
width = 637;
},
{
associatedMasterId = "6BCBDBF6-8315-4194-A290-F71994A92467";
layerId = "ABBB265D-A286-40FF-8FD4-7A97D0F98DA3";
name = foreground;
width = 794;
}
);
leftKerningGroup = z;
rightKerningGroup = z;
unicode = 007A;
},
{
color = 3;
glyphname = a.ss01;
lastChange = "2021-05-02 21:54:42 +0000";
layers = (
{
anchors = (
{
name = bottom;
position = "{389, 0}";
},
{
name = ogonek;
position = "{701, 10}";
},
{
name = top;
position = "{389, 560}";
}
);
layerId = "6BCBDBF6-8315-4194-A290-F71994A92467";
paths = (
{
closed = 1;
nodes = (
"154 577 OFFCURVE",
"35 459 OFFCURVE",
"35 280 CURVE SMOOTH",
"35 103 OFFCURVE",
"155 -21 OFFCURVE",
"313 -21 CURVE SMOOTH",
"409 -21 OFFCURVE",
"489 24 OFFCURVE",
"542 111 CURVE",
"542 0 LINE",
"692 0 LINE",
"692 560 LINE",
"542 560 LINE",
"542 456 LINE",
"496 533 OFFCURVE",
"411 577 OFFCURVE",
"313 577 CURVE SMOOTH"
);
},
{
closed = 1;
nodes = (
"474 458 OFFCURVE",
"547 389 OFFCURVE",
"547 285 CURVE SMOOTH",
"547 275 LINE SMOOTH",
"547 169 OFFCURVE",
"475 98 OFFCURVE",
"367 98 CURVE SMOOTH",
"258 98 OFFCURVE",
"187 170 OFFCURVE",
"187 278 CURVE SMOOTH",
"187 386 OFFCURVE",
"258 458 OFFCURVE",
"367 458 CURVE SMOOTH"
);
}
);
width = 762;
},
{
associatedMasterId = "6BCBDBF6-8315-4194-A290-F71994A92467";
layerId = "A7275262-A523-4561-A75B-F2450B911AEC";
name = foreground;
paths = (
{
closed = 1;
nodes = (
"171 572 OFFCURVE",
"52 454 OFFCURVE",
"52 280 CURVE SMOOTH",
"52 103 OFFCURVE",
"172 -21 OFFCURVE",
"332 -21 CURVE SMOOTH",
"428 -21 OFFCURVE",
"508 24 OFFCURVE",
"561 111 CURVE",
"561 0 LINE",
"711 0 LINE",
"711 560 LINE",
"561 560 LINE",
"561 456 LINE",
"515 528 OFFCURVE",
"430 572 OFFCURVE",
"332 572 CURVE SMOOTH"
);
},
{
closed = 1;
nodes = (
"493 458 OFFCURVE",
"566 389 OFFCURVE",
"566 285 CURVE SMOOTH",
"566 275 LINE SMOOTH",
"566 169 OFFCURVE",
"494 98 OFFCURVE",
"386 98 CURVE SMOOTH",
"277 98 OFFCURVE",
"206 170 OFFCURVE",
"206 278 CURVE SMOOTH",
"206 386 OFFCURVE",
"277 458 OFFCURVE",
"386 458 CURVE SMOOTH"
);
}
);
width = 788;
}
);
leftKerningGroup = o;
leftMetricsKey = o;
rightMetricsKey = d;
},
{
glyphname = aogonek.ss01;
lastChange = "2021-05-02 21:54:42 +0000";
layers = (
{
anchors = (
{
name = _ogonek;
position = "{703, 10}";
}
);
components = (
{
name = a.ss01;
}
);
layerId = "6BCBDBF6-8315-4194-A290-F71994A92467";
paths = (
{
closed = 1;
nodes = (
"572 21 LINE",
"494 -20 OFFCURVE",
"445 -85 OFFCURVE",
"445 -149 CURVE SMOOTH",
"445 -246 OFFCURVE",
"539 -291 OFFCURVE",
"690 -266 CURVE",
"690 -163 LINE",
"610 -181 OFFCURVE",
"559 -163 OFFCURVE",
"559 -119 CURVE SMOOTH",
"559 -76 OFFCURVE",
"611 -32 OFFCURVE",
"694 0 CURVE"
);
}
);
width = 764;
}
);
},
{
color = 3;
glyphname = g.ss01;
lastChange = "2021-05-03 00:45:15 +0000";
layers = (
{
anchors = (
{
name = bottom;
position = "{377, -215}";
},
{
name = top;
position = "{377, 560}";
}
);
background = {
paths = (
{
closed = 1;
nodes = (
"584 204 OFFCURVE",
"690 267 OFFCURVE",
"690 391 CURVE SMOOTH",
"690 515 OFFCURVE",
"584 577 OFFCURVE",
"373 577 CURVE SMOOTH",
"162 577 OFFCURVE",
"55 515 OFFCURVE",
"55 391 CURVE SMOOTH",
"55 267 OFFCURVE",
"162 204 OFFCURVE",
"373 204 CURVE SMOOTH"
);
},
{
closed = 1;
nodes = (
"246 314 OFFCURVE",
"195 344 OFFCURVE",
"195 391 CURVE SMOOTH",
"195 438 OFFCURVE",
"246 467 OFFCURVE",
"373 467 CURVE SMOOTH",
"498 467 OFFCURVE",
"550 438 OFFCURVE",
"550 391 CURVE SMOOTH",
"550 344 OFFCURVE",
"498 314 OFFCURVE",
"373 314 CURVE SMOOTH"
);
},
{
closed = 1;
nodes = (
"108 268 OFFCURVE",
"41 232 OFFCURVE",
"41 154 CURVE SMOOTH",
"41 73 OFFCURVE",
"112 12 OFFCURVE",
"324 12 CURVE",
"408 12 LINE",
"540 12 OFFCURVE",
"577 -6 OFFCURVE",
"577 -49 CURVE",
"577 -90 OFFCURVE",
"537 -104 OFFCURVE",
"408 -104 CURVE SMOOTH",
"244 -104 OFFCURVE",
"129 -75 OFFCURVE",
"40 -23 CURVE",
"40 -154 LINE",
"124 -199 OFFCURVE",
"237 -224 OFFCURVE",
"383 -224 CURVE SMOOTH",
"617 -224 OFFCURVE",
"717 -160 OFFCURVE",
"717 -48 CURVE",
"717 54 OFFCURVE",
"642 122 OFFCURVE",
"421 122 CURVE",
"338 122 LINE",
"213 122 OFFCURVE",
"164 140 OFFCURVE",
"164 182 CURVE SMOOTH",
"164 212 OFFCURVE",
"189 233 OFFCURVE",
"250 257 CURVE",
"182 279 LINE"
);
},
{
closed = 1;
nodes = (
"596 501 LINE",
"769 452 LINE",
"769 559 LINE",
"534 559 LINE"
);
}
);
};
layerId = "6BCBDBF6-8315-4194-A290-F71994A92467";
paths = (
{
closed = 1;
nodes = (
"579 205 OFFCURVE",
"685 267 OFFCURVE",
"685 391 CURVE SMOOTH",
"685 437 OFFCURVE",
"666 474 OFFCURVE",
"626 508 CURVE",
"627 516 LINE",
"576 557 OFFCURVE",
"491 577 OFFCURVE",
"373 577 CURVE SMOOTH",
"166 577 OFFCURVE",
"60 515 OFFCURVE",
"60 391 CURVE SMOOTH",
"60 267 OFFCURVE",
"167 205 OFFCURVE",
"373 205 CURVE SMOOTH"
);
},
{
closed = 1;
nodes = (
"252 313 OFFCURVE",
"200 336 OFFCURVE",
"200 392 CURVE SMOOTH",
"200 447 OFFCURVE",
"252 470 OFFCURVE",
"373 470 CURVE SMOOTH",
"493 470 OFFCURVE",
"545 447 OFFCURVE",
"545 392 CURVE SMOOTH",
"545 336 OFFCURVE",
"493 313 OFFCURVE",
"373 313 CURVE SMOOTH"
);
},
{
closed = 1;
nodes = (
"83 241 OFFCURVE",
"34 190 OFFCURVE",
"34 125 CURVE SMOOTH",
"34 -92 OFFCURVE",
"580 61 OFFCURVE",
"580 -48 CURVE SMOOTH",
"580 -94 OFFCURVE",
"520 -110 OFFCURVE",
"379 -110 CURVE SMOOTH",
"235 -110 OFFCURVE",
"138 -94 OFFCURVE",
"30 -59 CURVE",
"38 -177 LINE",
"130 -207 OFFCURVE",
"228 -225 OFFCURVE",
"362 -225 CURVE SMOOTH",
"597 -225 OFFCURVE",
"718 -171 OFFCURVE",
"718 -43 CURVE SMOOTH",
"718 223 OFFCURVE",
"141 42 OFFCURVE",
"141 165 CURVE SMOOTH",
"141 193 OFFCURVE",
"176 231 OFFCURVE",
"249 255 CURVE",
"192 282 LINE"
);
},
{
closed = 1;
nodes = (
"596 507 LINE",
"756 507 LINE",
"756 617 LINE",
"543 550 LINE"
);
}
);
width = 766;
},
{
associatedMasterId = "6BCBDBF6-8315-4194-A290-F71994A92467";
layerId = "99AEA52F-F034-49E8-8FB8-2FA131A952EE";
name = foreground;
paths = (
{
closed = 1;
nodes = (
"625 204 OFFCURVE",
"731 267 OFFCURVE",
"731 391 CURVE SMOOTH",
"731 436 OFFCURVE",
"711 475 OFFCURVE",
"672 508 CURVE",
"673 516 LINE",
"622 557 OFFCURVE",
"536 577 OFFCURVE",
"414 577 CURVE SMOOTH",
"202 577 OFFCURVE",
"96 515 OFFCURVE",
"96 391 CURVE SMOOTH",
"96 267 OFFCURVE",
"203 204 OFFCURVE",
"414 204 CURVE SMOOTH"
);
},
{
closed = 1;
nodes = (
"287 314 OFFCURVE",
"236 344 OFFCURVE",
"236 392 CURVE SMOOTH",
"236 440 OFFCURVE",
"287 470 OFFCURVE",
"414 470 CURVE SMOOTH",
"539 470 OFFCURVE",
"591 440 OFFCURVE",
"591 392 CURVE SMOOTH",
"591 344 OFFCURVE",
"539 314 OFFCURVE",
"414 314 CURVE SMOOTH"
);
},
{
closed = 1;
nodes = (
"129 242 OFFCURVE",
"87 196 OFFCURVE",
"87 133 CURVE SMOOTH",
"87 -97 OFFCURVE",
"632 82 OFFCURVE",
"632 -45 CURVE SMOOTH",
"632 -85.576 OFFCURVE",
"574 -102 OFFCURVE",
"432 -102 CURVE SMOOTH",
"278 -102 OFFCURVE",
"181 -79 OFFCURVE",
"63 -14 CURVE",
"81 -154 LINE",
"173 -204 OFFCURVE",
"271 -224 OFFCURVE",
"415 -224 CURVE SMOOTH",
"657 -224 OFFCURVE",
"778 -160 OFFCURVE",
"778 -32 CURVE SMOOTH",
"778 247 OFFCURVE",
"205 40 OFFCURVE",
"205 182 CURVE SMOOTH",
"205 212 OFFCURVE",
"229 233 OFFCURVE",
"291 257 CURVE",
"195 252 LINE"
);
},
{
closed = 1;
nodes = (
"637 502 LINE",
"810 453 LINE",
"810 560 LINE",
"575 551 LINE"
);
}
);
width = 835;
},
{
anchors = (
{
name = bottom;
position = "{418, -215}";
},
{
name = top;
position = "{418, 560}";
}
);
associatedMasterId = "6BCBDBF6-8315-4194-A290-F71994A92467";
background = {
paths = (
{
closed = 1;
nodes = (
"625 204 OFFCURVE",
"731 267 OFFCURVE",
"731 391 CURVE SMOOTH",
"731 515 OFFCURVE",
"625 577 OFFCURVE",
"414 577 CURVE SMOOTH",
"203 577 OFFCURVE",
"96 515 OFFCURVE",
"96 391 CURVE SMOOTH",
"96 267 OFFCURVE",
"203 204 OFFCURVE",
"414 204 CURVE SMOOTH"
);
},
{
closed = 1;
nodes = (
"287 314 OFFCURVE",
"236 344 OFFCURVE",
"236 391 CURVE SMOOTH",
"236 438 OFFCURVE",
"287 467 OFFCURVE",
"414 467 CURVE SMOOTH",
"539 467 OFFCURVE",
"591 438 OFFCURVE",
"591 391 CURVE SMOOTH",
"591 344 OFFCURVE",
"539 314 OFFCURVE",
"414 314 CURVE SMOOTH"
);
},
{
closed = 1;
nodes = (
"149 268 OFFCURVE",
"82 232 OFFCURVE",
"82 154 CURVE SMOOTH",
"82 73 OFFCURVE",
"153 12 OFFCURVE",
"365 12 CURVE",
"449 12 LINE",
"581 12 OFFCURVE",
"618 -6 OFFCURVE",
"618 -49 CURVE",
"618 -90 OFFCURVE",
"578 -104 OFFCURVE",
"449 -104 CURVE SMOOTH",
"285 -104 OFFCURVE",
"170 -75 OFFCURVE",
"81 -23 CURVE",
"81 -154 LINE",
"165 -199 OFFCURVE",
"278 -224 OFFCURVE",
"424 -224 CURVE SMOOTH",
"658 -224 OFFCURVE",
"758 -160 OFFCURVE",
"758 -48 CURVE",
"758 54 OFFCURVE",
"683 122 OFFCURVE",
"462 122 CURVE",
"379 122 LINE",
"254 122 OFFCURVE",
"205 140 OFFCURVE",
"205 182 CURVE SMOOTH",
"205 212 OFFCURVE",
"230 233 OFFCURVE",
"291 257 CURVE",
"223 279 LINE"
);
},
{
closed = 1;
nodes = (
"637 501 LINE",
"810 452 LINE",
"810 559 LINE",
"575 559 LINE"
);
}
);
};
layerId = "DC58ED0F-EC26-4624-9FBA-C53987D77677";
name = "17 Mar 21, 01:49";
paths = (
{
closed = 1;
nodes = (
"625 204 OFFCURVE",
"731 267 OFFCURVE",
"731 391 CURVE SMOOTH",
"731 437 OFFCURVE",
"712 474 OFFCURVE",
"672 508 CURVE",
"673 516 LINE",
"622 557 OFFCURVE",
"537 577 OFFCURVE",
"414 577 CURVE SMOOTH",
"202 577 OFFCURVE",
"96 515 OFFCURVE",
"96 391 CURVE SMOOTH",
"96 267 OFFCURVE",
"203 204 OFFCURVE",
"414 204 CURVE SMOOTH"
);
},
{
closed = 1;
nodes = (
"288 314 OFFCURVE",
"236 337 OFFCURVE",
"236 392 CURVE SMOOTH",
"236 447 OFFCURVE",
"288 470 OFFCURVE",
"414 470 CURVE SMOOTH",
"539 470 OFFCURVE",
"591 447 OFFCURVE",
"591 392 CURVE SMOOTH",
"591 337 OFFCURVE",
"539 314 OFFCURVE",
"414 314 CURVE SMOOTH"
);
},
{
closed = 1;
nodes = (
"126 241 OFFCURVE",
"87 203 OFFCURVE",
"87 143 CURVE SMOOTH",
"87 -88 OFFCURVE",
"632 69 OFFCURVE",
"632 -46 CURVE SMOOTH",
"632 -87 OFFCURVE",
"574 -103 OFFCURVE",
"432 -103 CURVE SMOOTH",
"278 -103 OFFCURVE",
"181 -85 OFFCURVE",
"63 -20 CURVE",
"81 -154 LINE",
"173 -204 OFFCURVE",
"271 -224 OFFCURVE",
"415 -224 CURVE SMOOTH",
"657 -224 OFFCURVE",
"778 -170 OFFCURVE",
"778 -43 CURVE SMOOTH",
"778 233 OFFCURVE",
"205 40 OFFCURVE",
"205 182 CURVE SMOOTH",
"205 212 OFFCURVE",
"229 233 OFFCURVE",
"291 257 CURVE",
"195 266 LINE"
);
},
{
closed = 1;
nodes = (
"637 502 LINE",
"810 453 LINE",
"810 560 LINE",
"575 551 LINE"
);
}
);
width = 835;
},
{
anchors = (
{
name = bottom;
position = "{418, -215}";
},
{
name = top;
position = "{418, 560}";
}
);
associatedMasterId = "6BCBDBF6-8315-4194-A290-F71994A92467";
background = {
paths = (
{
closed = 1;
nodes = (
"625 204 OFFCURVE",
"731 267 OFFCURVE",
"731 391 CURVE SMOOTH",
"731 515 OFFCURVE",
"625 577 OFFCURVE",
"414 577 CURVE SMOOTH",
"203 577 OFFCURVE",
"96 515 OFFCURVE",
"96 391 CURVE SMOOTH",
"96 267 OFFCURVE",
"203 204 OFFCURVE",
"414 204 CURVE SMOOTH"
);
},
{
closed = 1;
nodes = (
"287 314 OFFCURVE",
"236 344 OFFCURVE",
"236 391 CURVE SMOOTH",
"236 438 OFFCURVE",
"287 467 OFFCURVE",
"414 467 CURVE SMOOTH",
"539 467 OFFCURVE",
"591 438 OFFCURVE",
"591 391 CURVE SMOOTH",
"591 344 OFFCURVE",
"539 314 OFFCURVE",
"414 314 CURVE SMOOTH"
);
},
{
closed = 1;
nodes = (
"149 268 OFFCURVE",
"82 232 OFFCURVE",
"82 154 CURVE SMOOTH",
"82 73 OFFCURVE",
"153 12 OFFCURVE",
"365 12 CURVE",
"449 12 LINE",
"581 12 OFFCURVE",
"618 -6 OFFCURVE",
"618 -49 CURVE",
"618 -90 OFFCURVE",
"578 -104 OFFCURVE",
"449 -104 CURVE SMOOTH",
"285 -104 OFFCURVE",
"170 -75 OFFCURVE",
"81 -23 CURVE",
"81 -154 LINE",
"165 -199 OFFCURVE",
"278 -224 OFFCURVE",
"424 -224 CURVE SMOOTH",
"658 -224 OFFCURVE",
"758 -160 OFFCURVE",
"758 -48 CURVE",
"758 54 OFFCURVE",
"683 122 OFFCURVE",
"462 122 CURVE",
"379 122 LINE",
"254 122 OFFCURVE",
"205 140 OFFCURVE",
"205 182 CURVE SMOOTH",
"205 212 OFFCURVE",
"230 233 OFFCURVE",
"291 257 CURVE",
"223 279 LINE"
);
},
{
closed = 1;
nodes = (
"637 501 LINE",
"810 452 LINE",
"810 559 LINE",
"575 559 LINE"
);
}
);
};
layerId = "80AA568A-EC1A-4B49-92FD-4F820AEA19E0";
name = "19 Apr 21, 12:21";
paths = (
{
closed = 1;
nodes = (
"620 204 OFFCURVE",
"726 267 OFFCURVE",
"726 391 CURVE SMOOTH",
"726 437 OFFCURVE",
"707 474 OFFCURVE",
"667 508 CURVE",
"668 516 LINE",
"617 557 OFFCURVE",
"532 577 OFFCURVE",
"414 577 CURVE SMOOTH",
"207 577 OFFCURVE",
"101 515 OFFCURVE",
"101 391 CURVE SMOOTH",
"101 267 OFFCURVE",
"208 204 OFFCURVE",
"414 204 CURVE SMOOTH"
);
},
{
closed = 1;
nodes = (
"293 313 OFFCURVE",
"241 336 OFFCURVE",
"241 392 CURVE SMOOTH",
"241 447 OFFCURVE",
"293 470 OFFCURVE",
"414 470 CURVE SMOOTH",
"534 470 OFFCURVE",
"586 447 OFFCURVE",
"586 392 CURVE SMOOTH",
"586 336 OFFCURVE",
"534 313 OFFCURVE",
"414 313 CURVE SMOOTH"
);
},
{
closed = 1;
nodes = (
"114 241 OFFCURVE",
"75 198 OFFCURVE",
"75 138 CURVE SMOOTH",
"75 -83 OFFCURVE",
"616 74 OFFCURVE",
"616 -46 CURVE SMOOTH",
"616 -93 OFFCURVE",
"556 -109 OFFCURVE",
"420 -109 CURVE SMOOTH",
"276 -109 OFFCURVE",
"179 -93 OFFCURVE",
"71 -58 CURVE",
"79 -176 LINE",
"171 -206 OFFCURVE",
"269 -224 OFFCURVE",
"403 -224 CURVE SMOOTH",
"635 -224 OFFCURVE",
"756 -170 OFFCURVE",
"756 -43 CURVE SMOOTH",
"756 231 OFFCURVE",
"193 39 OFFCURVE",
"193 177 CURVE SMOOTH",
"193 207 OFFCURVE",
"217 233 OFFCURVE",
"279 257 CURVE",
"183 266 LINE"
);
},
{
closed = 1;
nodes = (
"637 507 LINE",
"797 507 LINE",
"797 607 LINE",
"571 560 LINE"
);
}
);
width = 835;
}
);
},
{
color = 3;
glyphname = l.ss01;
lastChange = "2021-05-02 21:54:42 +0000";
layers = (
{
anchors = (
{
name = bottom;
position = "{222, 0}";
},
{
name = center;
position = "{222, 393}";
},
{
name = top;
position = "{107, 785}";
},
{
name = topright;
position = "{217, 785}";
}
);
layerId = "6BCBDBF6-8315-4194-A290-F71994A92467";
paths = (
{
closed = 1;
nodes = (
"40 52 OFFCURVE",
"131 -21 OFFCURVE",
"277 -21 CURVE SMOOTH",
"319 -21 OFFCURVE",
"365 -15 OFFCURVE",
"413 -1 CURVE",
"430 119 LINE",
"393 108 OFFCURVE",
"356 103 OFFCURVE",
"323 103 CURVE SMOOTH",
"225 103 OFFCURVE",
"190 149 OFFCURVE",
"190 213 CURVE SMOOTH",
"190 785 LINE",
"40 785 LINE",
"40 173 LINE SMOOTH"
);
}
);
width = 450;
},
{
associatedMasterId = "6BCBDBF6-8315-4194-A290-F71994A92467";
layerId = "CCB44788-0178-4523-89C3-3FDD0B0F0118";
name = foreground;
paths = (
{
closed = 1;
nodes = (
"87 52 OFFCURVE",
"178 -21 OFFCURVE",
"319 -21 CURVE SMOOTH",
"366 -21 OFFCURVE",
"425 -13 OFFCURVE",
"480 12 CURVE",
"497 130 LINE",
"462 114 OFFCURVE",
"409 103 OFFCURVE",
"363 103 CURVE SMOOTH",
"278 103 OFFCURVE",
"237 139 OFFCURVE",
"237 193 CURVE SMOOTH",
"237 785 LINE",
"87 785 LINE",
"87 163 LINE SMOOTH"
);
}
);
width = 537;
},
{
anchors = (
{
name = bottom;
position = "{269, 0}";
},
{
name = center;
position = "{269, 393}";
},
{
name = top;
position = "{269, 785}";
},
{
name = topright;
position = "{517, 785}";
}
);
associatedMasterId = "6BCBDBF6-8315-4194-A290-F71994A92467";
layerId = "6951E4C3-8D03-4DF8-B779-192F00A97F88";
name = "27 Mar 21, 02:47";
paths = (
{
closed = 1;
nodes = (
"87 52 OFFCURVE",
"178 -21 OFFCURVE",
"319 -21 CURVE SMOOTH",
"366 -21 OFFCURVE",
"425 -13 OFFCURVE",
"480 12 CURVE",
"497 130 LINE",
"462 114 OFFCURVE",
"409 103 OFFCURVE",
"363 103 CURVE SMOOTH",
"278 103 OFFCURVE",
"237 139 OFFCURVE",
"237 193 CURVE SMOOTH",
"237 785 LINE",
"87 785 LINE",
"87 163 LINE SMOOTH"
);
}
);
width = 537;
}
);
},
{
glyphname = lslash.ss01;
lastChange = "2021-05-02 21:54:42 +0000";
layers = (
{
components = (
{
name = l.ss01;
transform = "{1, 0, 0, 1, 39, 0}";
}
);
layerId = "6BCBDBF6-8315-4194-A290-F71994A92467";
paths = (
{
closed = 1;
nodes = (
"5 282 LINE",
"388 484 LINE",
"388 613 LINE",
"5 412 LINE"
);
}
);
width = 489;
}
);
},
{
color = 3;
glyphname = zero;
lastChange = "2021-05-02 21:54:42 +0000";
layers = (
{
layerId = "6BCBDBF6-8315-4194-A290-F71994A92467";
paths = (
{
closed = 1;
nodes = (
"669 -20 OFFCURVE",
"820 135 OFFCURVE",
"820 375 CURVE SMOOTH",
"820 615 OFFCURVE",
"669 770 OFFCURVE",
"435 770 CURVE SMOOTH",
"201 770 OFFCURVE",
"50 615 OFFCURVE",
"50 375 CURVE SMOOTH",
"50 135 OFFCURVE",
"201 -20 OFFCURVE",
"435 -20 CURVE SMOOTH"
);
},
{
closed = 1;
nodes = (
"284 105 OFFCURVE",
"205 198 OFFCURVE",
"205 375 CURVE SMOOTH",
"205 553 OFFCURVE",
"284 646 OFFCURVE",
"435 646 CURVE SMOOTH",
"586 646 OFFCURVE",
"665 553 OFFCURVE",
"665 375 CURVE SMOOTH",
"665 198 OFFCURVE",
"586 105 OFFCURVE",
"435 105 CURVE SMOOTH"
);
}
);
width = 870;
},
{
associatedMasterId = "6BCBDBF6-8315-4194-A290-F71994A92467";
layerId = "992059D2-DC2A-4960-B57F-4AF7374A9656";
name = foreground;
paths = (
{
closed = 1;
nodes = (
"710 -21 OFFCURVE",
"872 138 OFFCURVE",
"872 375 CURVE SMOOTH",
"872 612 OFFCURVE",
"710 770 OFFCURVE",
"466 770 CURVE SMOOTH",
"222 770 OFFCURVE",
"60 612 OFFCURVE",
"60 375 CURVE SMOOTH",
"60 138 OFFCURVE",
"222 -21 OFFCURVE",
"466 -21 CURVE SMOOTH"
);
},
{
closed = 1;
nodes = (
"318 104 OFFCURVE",
"220 211.251 OFFCURVE",
"220 375 CURVE SMOOTH",
"220 537.792 OFFCURVE",
"318 646 OFFCURVE",
"466 646 CURVE SMOOTH",
"614 646 OFFCURVE",
"712 538 OFFCURVE",
"712 375 CURVE SMOOTH",
"712 211 OFFCURVE",
"614 104 OFFCURVE",
"466 104 CURVE SMOOTH"
);
}
);
width = 932;
},
{
associatedMasterId = "6BCBDBF6-8315-4194-A290-F71994A92467";
layerId = "AD433768-37EC-403E-B48C-80CA8B2E3998";
name = "6 Feb 21, 03:46";
paths = (
{
closed = 1;
nodes = (
"675 -20 OFFCURVE",
"830 135 OFFCURVE",
"830 375 CURVE SMOOTH",
"830 615 OFFCURVE",
"675 770 OFFCURVE",
"435 770 CURVE SMOOTH",
"195 770 OFFCURVE",
"40 615 OFFCURVE",
"40 375 CURVE SMOOTH",
"40 135 OFFCURVE",
"195 -20 OFFCURVE",
"435 -20 CURVE SMOOTH"
);
},
{
closed = 1;
nodes = (
"281 105 OFFCURVE",
"200 198 OFFCURVE",
"200 375 CURVE SMOOTH",
"200 553 OFFCURVE",
"281 646 OFFCURVE",
"435 646 CURVE SMOOTH",
"589 646 OFFCURVE",
"670 553 OFFCURVE",
"670 375 CURVE SMOOTH",
"670 198 OFFCURVE",
"589 105 OFFCURVE",
"435 105 CURVE SMOOTH"
);
}
);
width = 870;
}
);
leftKerningGroup = zero;
note = "\012zero\012";
rightKerningGroup = zero;
unicode = 0030;
},
{
color = 3;
glyphname = one;
lastChange = "2021-05-02 21:50:21 +0000";
layers = (
{
layerId = "6BCBDBF6-8315-4194-A290-F71994A92467";
paths = (
{
closed = 1;
nodes = (
"202 430 OFFCURVE",
"335 506 OFFCURVE",
"358 634 CURVE",
"332 660 LINE",
"332 0 LINE",
"482 0 LINE",
"482 750 LINE",
"335 750 LINE",
"296 632 OFFCURVE",
"183 569 OFFCURVE",
"40 559 CURVE",
"40 430 LINE"
);
}
);
width = 572;
},
{
associatedMasterId = "6BCBDBF6-8315-4194-A290-F71994A92467";
layerId = "96E45860-0173-450E-9402-17598274D5FE";
name = foreground;
paths = (
{
closed = 1;
nodes = (
"209 431 OFFCURVE",
"330 488 OFFCURVE",
"357 569 CURVE",
"357 0 LINE",
"517 0 LINE",
"517 750 LINE",
"360 750 LINE",
"321 632 OFFCURVE",
"208 559 OFFCURVE",
"65 559 CURVE",
"65 431 LINE"
);
}
);
width = 614;
},
{
associatedMasterId = "6BCBDBF6-8315-4194-A290-F71994A92467";
layerId = "F0F97577-C173-42D3-9C4B-E6DEE168EBAB";
name = "5 Feb 21, 22:14";
paths = (
{
closed = 1;
nodes = (
"184 441 OFFCURVE",
"305 498 OFFCURVE",
"332 579 CURVE",
"332 0 LINE",
"482 0 LINE",
"482 750 LINE",
"335 750 LINE",
"296 632 OFFCURVE",
"183 569 OFFCURVE",
"40 559 CURVE",
"40 441 LINE"
);
}
);
width = 572;
}
);
leftKerningGroup = one;
note = "\012one\012";
rightKerningGroup = one;
unicode = 0031;
},
{
color = 3;
glyphname = two;
lastChange = "2021-05-02 21:54:42 +0000";
layers = (
{
background = {
paths = (
{
closed = 1;
nodes = (
"713 0 LINE",
"713 110 LINE",
"249 110 LINE",
"352 131 OFFCURVE",
"472 195 OFFCURVE",
"588 293 CURVE SMOOTH",
"671 364 OFFCURVE",
"709 438 OFFCURVE",
"709 526 CURVE SMOOTH",
"709 671 OFFCURVE",
"580 768 OFFCURVE",
"387 768 CURVE SMOOTH",
"280 768 OFFCURVE",
"161 729 OFFCURVE",
"88 670 CURVE",
"88 547 LINE",
"163 612 OFFCURVE",
"280 655 OFFCURVE",
"381 655 CURVE SMOOTH",
"501 655 OFFCURVE",
"579 601 OFFCURVE",
"579 519 CURVE SMOOTH",
"579 450 OFFCURVE",
"533 385 OFFCURVE",
"424 299 CURVE SMOOTH",
"359 247 OFFCURVE",
"216 154 OFFCURVE",
"94 110 CURVE",
"94 0 LINE"
);
}
);
};
layerId = "6BCBDBF6-8315-4194-A290-F71994A92467";
paths = (
{
closed = 1;
nodes = (
"710 0 LINE",
"710 132 LINE",
"155 132 LINE",
"155 114 LINE",
"491 175 OFFCURVE",
"696 327 OFFCURVE",
"696 530 CURVE SMOOTH",
"696 685 OFFCURVE",
"570 773 OFFCURVE",
"363 773 CURVE SMOOTH",
"266 773 OFFCURVE",
"164 758 OFFCURVE",
"73 722 CURVE",
"73 596 LINE",
"156 630 OFFCURVE",
"258 644 OFFCURVE",
"339 644 CURVE SMOOTH",
"467 644 OFFCURVE",
"543 601 OFFCURVE",
"543 512 CURVE SMOOTH",
"543 403 OFFCURVE",
"446 328 OFFCURVE",
"50 148 CURVE",
"50 0 LINE"
);
}
);
width = 763;
},
{
associatedMasterId = "6BCBDBF6-8315-4194-A290-F71994A92467";
layerId = "331F4CDA-F4E0-44AE-85EC-7E17F102D9E9";
name = foreground;
paths = (
{
closed = 1;
nodes = (
"705 0 LINE",
"705 130 LINE",
"291 130 LINE",
"514 182 OFFCURVE",
"691 351 OFFCURVE",
"691 514 CURVE SMOOTH",
"691 659 OFFCURVE",
"554 768 OFFCURVE",
"371 768 CURVE SMOOTH",
"262 768 OFFCURVE",
"143 729 OFFCURVE",
"70 670 CURVE",
"70 535 LINE",
"149 595 OFFCURVE",
"257 633 OFFCURVE",
"347 633 CURVE SMOOTH",
"455 633 OFFCURVE",
"531 576 OFFCURVE",
"531 495 CURVE SMOOTH",
"531 372 OFFCURVE",
"354 230 OFFCURVE",
"66 130 CURVE",
"66 0 LINE"
);
}
);
width = 755;
},
{
associatedMasterId = "6BCBDBF6-8315-4194-A290-F71994A92467";
background = {
paths = (
{
closed = 1;
nodes = (
"723 0 LINE",
"723 110 LINE",
"259 110 LINE",
"362 131 OFFCURVE",
"482 195 OFFCURVE",
"598 293 CURVE SMOOTH",
"681 364 OFFCURVE",
"719 438 OFFCURVE",
"719 526 CURVE SMOOTH",
"719 671 OFFCURVE",
"590 768 OFFCURVE",
"397 768 CURVE SMOOTH",
"290 768 OFFCURVE",
"171 729 OFFCURVE",
"98 670 CURVE",
"98 547 LINE",
"173 612 OFFCURVE",
"290 655 OFFCURVE",
"391 655 CURVE SMOOTH",
"511 655 OFFCURVE",
"589 601 OFFCURVE",
"589 519 CURVE SMOOTH",
"589 450 OFFCURVE",
"543 385 OFFCURVE",
"434 299 CURVE SMOOTH",
"369 247 OFFCURVE",
"226 154 OFFCURVE",
"104 110 CURVE",
"104 0 LINE"
);
}
);
};
layerId = "E440539C-39CA-413C-83A8-657D103738F9";
name = "31 Dec 20, 01:57";
paths = (
{
closed = 1;
nodes = (
"710 0 LINE",
"710 130 LINE",
"173 124 LINE",
"173 101 LINE",
"515 159 OFFCURVE",
"695 307 OFFCURVE",
"695 507 CURVE SMOOTH",
"695 670 OFFCURVE",
"570 770 OFFCURVE",
"367 770 CURVE SMOOTH",
"265 770 OFFCURVE",
"161 744 OFFCURVE",
"74 698 CURVE",
"55 559 LINE",
"143 606 OFFCURVE",
"249 642 OFFCURVE",
"336 642 CURVE SMOOTH",
"464 642 OFFCURVE",
"545 580 OFFCURVE",
"545 475 CURVE SMOOTH",
"545 352 OFFCURVE",
"420 267 OFFCURVE",
"50 140 CURVE",
"50 0 LINE"
);
}
);
width = 740;
},
{
associatedMasterId = "6BCBDBF6-8315-4194-A290-F71994A92467";
background = {
paths = (
{
closed = 1;
nodes = (
"723 0 LINE",
"723 110 LINE",
"259 110 LINE",
"362 131 OFFCURVE",
"482 195 OFFCURVE",
"598 293 CURVE SMOOTH",
"681 364 OFFCURVE",
"719 438 OFFCURVE",
"719 526 CURVE SMOOTH",
"719 671 OFFCURVE",
"590 768 OFFCURVE",
"397 768 CURVE SMOOTH",
"290 768 OFFCURVE",
"171 729 OFFCURVE",
"98 670 CURVE",
"98 547 LINE",
"173 612 OFFCURVE",
"290 655 OFFCURVE",
"391 655 CURVE SMOOTH",
"511 655 OFFCURVE",
"589 601 OFFCURVE",
"589 519 CURVE SMOOTH",
"589 450 OFFCURVE",
"543 385 OFFCURVE",
"434 299 CURVE SMOOTH",
"369 247 OFFCURVE",
"226 154 OFFCURVE",
"104 110 CURVE",
"104 0 LINE"
);
}
);
};
layerId = "377ADE13-AC34-4A96-9A2C-4E1CF542B03D";
name = "20 Jan 21, 15:10";
paths = (
{
closed = 1;
nodes = (
"710 0 LINE",
"710 125 LINE",
"173 125 LINE",
"173 91 LINE",
"519 210 OFFCURVE",
"713 369 OFFCURVE",
"713 545 CURVE SMOOTH",
"713 682 OFFCURVE",
"596 770 OFFCURVE",
"398 770 CURVE SMOOTH",
"284 770 OFFCURVE",
"178 739 OFFCURVE",
"75 677 CURVE",
"75 549 LINE",
"173 611 OFFCURVE",
"270 642 OFFCURVE",
"367 642 CURVE SMOOTH",
"478 642 OFFCURVE",
"563 601 OFFCURVE",
"563 526 CURVE SMOOTH",
"563 418 OFFCURVE",
"389 311 OFFCURVE",
"60 148 CURVE",
"60 0 LINE"
);
}
);
width = 773;
},
{
associatedMasterId = "6BCBDBF6-8315-4194-A290-F71994A92467";
background = {
paths = (
{
closed = 1;
nodes = (
"723 0 LINE",
"723 110 LINE",
"259 110 LINE",
"362 131 OFFCURVE",
"482 195 OFFCURVE",
"598 293 CURVE SMOOTH",
"681 364 OFFCURVE",
"719 438 OFFCURVE",
"719 526 CURVE SMOOTH",
"719 671 OFFCURVE",
"590 768 OFFCURVE",
"397 768 CURVE SMOOTH",
"290 768 OFFCURVE",
"171 729 OFFCURVE",
"98 670 CURVE",
"98 547 LINE",
"173 612 OFFCURVE",
"290 655 OFFCURVE",
"391 655 CURVE SMOOTH",
"511 655 OFFCURVE",
"589 601 OFFCURVE",
"589 519 CURVE SMOOTH",
"589 450 OFFCURVE",
"543 385 OFFCURVE",
"434 299 CURVE SMOOTH",
"369 247 OFFCURVE",
"226 154 OFFCURVE",
"104 110 CURVE",
"104 0 LINE"
);
}
);
};
layerId = "C668C5CE-6EDE-412C-BA5F-BD57AC37ACAE";
name = "11 Feb 21, 20:37";
paths = (
{
closed = 1;
nodes = (
"720 0 LINE",
"720 132 LINE",
"155 132 LINE",
"155 127 LINE",
"511 185 OFFCURVE",
"716 327 OFFCURVE",
"716 530 CURVE SMOOTH",
"716 685 OFFCURVE",
"600 773 OFFCURVE",
"396 773 CURVE SMOOTH",
"291 773 OFFCURVE",
"179 749 OFFCURVE",
"93 715 CURVE",
"93 587 LINE",
"167 617 OFFCURVE",
"278 644 OFFCURVE",
"374 644 CURVE SMOOTH",
"497 644 OFFCURVE",
"563 601 OFFCURVE",
"563 520 CURVE SMOOTH",
"563 415 OFFCURVE",
"417 306 OFFCURVE",
"60 148 CURVE",
"60 0 LINE"
);
}
);
width = 773;
}
);
leftKerningGroup = two;
note = "\012two\012";
rightKerningGroup = two;
unicode = 0032;
},
{
color = 3;
glyphname = three;
lastChange = "2021-05-02 21:54:42 +0000";
layers = (
{
associatedMasterId = "6BCBDBF6-8315-4194-A290-F71994A92467";
layerId = "106CF929-438E-4379-A7AA-3002D5513563";
name = foreground;
paths = (
{
closed = 1;
nodes = (
"117 2 OFFCURVE",
"226 -19 OFFCURVE",
"364 -19 CURVE SMOOTH",
"578 -19 OFFCURVE",
"720 77 OFFCURVE",
"720 221 CURVE SMOOTH",
"720 338 OFFCURVE",
"596 433 OFFCURVE",
"400 433 CURVE",
"702 625 LINE",
"702 750 LINE",
"61 750 LINE",
"61 620 LINE",
"532 620 LINE",
"241 451 LINE",
"241 333 LINE",
"495.665 334.787 OFFCURVE",
"560 283 OFFCURVE",
"560 209 CURVE SMOOTH",
"560 151.4 OFFCURVE",
"477 113 OFFCURVE",
"354 113 CURVE SMOOTH",
"207 113 OFFCURVE",
"100 137 OFFCURVE",
"45 158 CURVE",
"45 20 LINE"
);
}
);
width = 750;
},
{
associatedMasterId = "6BCBDBF6-8315-4194-A290-F71994A92467";
layerId = "B5CAE69A-9ED0-4981-98E1-1E5BC4EBD250";
name = "5 Feb 21, 21:19";
paths = (
{
closed = 1;
nodes = (
"167 -6 OFFCURVE",
"260 -19 OFFCURVE",
"362 -19 CURVE SMOOTH",
"595 -19 OFFCURVE",
"740 65 OFFCURVE",
"740 219 CURVE SMOOTH",
"740 356 OFFCURVE",
"643 421 OFFCURVE",
"353 421 CURVE",
"680 630 LINE",
"680 750 LINE",
"82 750 LINE",
"82 625 LINE",
"507 625 LINE",
"240 451 LINE",
"240 333 LINE",
"466 335 OFFCURVE",
"580 296 OFFCURVE",
"580 216 CURVE SMOOTH",
"580 150 OFFCURVE",
"496 113 OFFCURVE",
"353 113 CURVE SMOOTH",
"251 113 OFFCURVE",
"147 128 OFFCURVE",
"50 158 CURVE",
"64 20 LINE"
);
}
);
width = 790;
},
{
associatedMasterId = "6BCBDBF6-8315-4194-A290-F71994A92467";
layerId = "317C0F2F-D090-4F83-850F-8AF979049EB4";
name = "5 Feb 21, 21:19";
paths = (
{
closed = 1;
nodes = (
"167 -6 OFFCURVE",
"260 -19 OFFCURVE",
"362 -19 CURVE SMOOTH",
"595 -19 OFFCURVE",
"740 65 OFFCURVE",
"740 219 CURVE SMOOTH",
"740 356 OFFCURVE",
"623 433 OFFCURVE",
"429 433 CURVE",
"701 625 LINE",
"701 750 LINE",
"70 750 LINE",
"70 630 LINE",
"501 630 LINE",
"260 451 LINE",
"260 333 LINE",
"457 335 OFFCURVE",
"580 296 OFFCURVE",
"580 216 CURVE SMOOTH",
"580 150 OFFCURVE",
"496 113 OFFCURVE",
"353 113 CURVE SMOOTH",
"251 113 OFFCURVE",
"147 128 OFFCURVE",
"50 158 CURVE",
"64 20 LINE"
);
}
);
width = 790;
},
{
associatedMasterId = "6BCBDBF6-8315-4194-A290-F71994A92467";
layerId = "128FAF94-5D0D-4790-BB2C-108FD75ECF0B";
name = "6 Feb 21, 03:43";
paths = (
{
closed = 1;
nodes = (
"167 -6 OFFCURVE",
"260 -19 OFFCURVE",
"362 -19 CURVE SMOOTH",
"596 -19 OFFCURVE",
"741 65 OFFCURVE",
"741 216 CURVE SMOOTH",
"741 352 OFFCURVE",
"614 426 OFFCURVE",
"424 402 CURVE",
"701 625 LINE",
"701 750 LINE",
"70 750 LINE",
"70 626 LINE",
"526 626 LINE",
"247 376 LINE",
"355 361 LINE SMOOTH",
"499 341 OFFCURVE",
"580 305 OFFCURVE",
"580 227 CURVE SMOOTH",
"580 152 OFFCURVE",
"496 115 OFFCURVE",
"353 115 CURVE SMOOTH",
"251 115 OFFCURVE",
"147 130 OFFCURVE",
"50 160 CURVE",
"64 20 LINE"
);
}
);
width = 790;
},
{
associatedMasterId = "6BCBDBF6-8315-4194-A290-F71994A92467";
layerId = "9BB24014-45AF-47E4-8A1E-57E604CB1B57";
name = "27 Mar 21, 23:56";
paths = (
{
closed = 1;
nodes = (
"167 -6 OFFCURVE",
"260 -19 OFFCURVE",
"362 -19 CURVE SMOOTH",
"596 -19 OFFCURVE",
"741 65 OFFCURVE",
"741 225 CURVE SMOOTH",
"741 381 OFFCURVE",
"591 452 OFFCURVE",
"364 412 CURVE",
"695 625 LINE",
"695 750 LINE",
"80 750 LINE",
"80 630 LINE",
"577 630 LINE",
"575 669 LINE",
"217 426 LINE",
"217 361 LINE",
"362 361 LINE SMOOTH",
"508 361 OFFCURVE",
"580 311 OFFCURVE",
"580 236 CURVE SMOOTH",
"580 158 OFFCURVE",
"496 115 OFFCURVE",
"343 115 CURVE SMOOTH",
"251 115 OFFCURVE",
"147 130 OFFCURVE",
"50 160 CURVE",
"64 20 LINE"
);
}
);
width = 790;
},
{
layerId = "6BCBDBF6-8315-4194-A290-F71994A92467";
name = "150";
paths = (
{
closed = 1;
nodes = (
"167 -6 OFFCURVE",
"260 -19 OFFCURVE",
"362 -19 CURVE SMOOTH",
"596 -19 OFFCURVE",
"741 65 OFFCURVE",
"741 225 CURVE SMOOTH",
"741 381 OFFCURVE",
"591 452 OFFCURVE",
"444 422 CURVE",
"695 625 LINE",
"695 750 LINE",
"80 750 LINE",
"80 626 LINE",
"577 626 LINE",
"561 670 LINE",
"217 376 LINE",
"217 361 LINE",
"362 361 LINE SMOOTH",
"508 361 OFFCURVE",
"580 311 OFFCURVE",
"580 236 CURVE SMOOTH",
"580 158 OFFCURVE",
"496 115 OFFCURVE",
"353 115 CURVE SMOOTH",
"251 115 OFFCURVE",
"147 130 OFFCURVE",
"50 160 CURVE",
"64 20 LINE"
);
}
);
width = 790;
}
);
leftKerningGroup = three;
note = "\012three\012";
rightKerningGroup = three;
unicode = 0033;
},
{
color = 3;
glyphname = four;
lastChange = "2021-05-02 21:54:42 +0000";
layers = (
{
layerId = "6BCBDBF6-8315-4194-A290-F71994A92467";
paths = (
{
closed = 1;
nodes = (
"509 161 LINE",
"509 0 LINE",
"659 0 LINE",
"659 161 LINE",
"809 161 LINE",
"809 281 LINE",
"659 281 LINE",
"659 750 LINE",
"412 750 LINE",
"30 271 LINE",
"30 161 LINE"
);
},
{
closed = 1;
nodes = (
"509 657 LINE",
"509 281 LINE",
"211 281 LINE"
);
}
);
width = 829;
},
{
associatedMasterId = "6BCBDBF6-8315-4194-A290-F71994A92467";
layerId = "4BA23E3C-B069-42D3-8469-103DBF093A26";
name = foreground;
paths = (
{
closed = 1;
nodes = (
"581 122 LINE",
"581 -10 LINE",
"703 -10 LINE",
"703 122 LINE",
"851 122 LINE",
"851 232 LINE",
"703 232 LINE",
"703 760 LINE",
"567 760 LINE",
"60 232 LINE",
"60 122 LINE"
);
},
{
closed = 1;
nodes = (
"581 619 LINE",
"581 232 LINE",
"210 232 LINE"
);
}
);
width = 891;
},
{
associatedMasterId = "6BCBDBF6-8315-4194-A290-F71994A92467";
layerId = "B3F0AE86-48D5-4612-88C4-19BAFFA2A699";
name = "5 Feb 21, 21:30";
paths = (
{
closed = 1;
nodes = (
"531 161 LINE",
"531 0 LINE",
"681 0 LINE",
"681 161 LINE",
"811 161 LINE",
"811 280 LINE",
"681 280 LINE",
"681 760 LINE",
"525 760 LINE",
"430 593 OFFCURVE",
"261 389 OFFCURVE",
"87 269 CURVE",
"87 161 LINE"
);
},
{
closed = 1;
nodes = (
"356 330 OFFCURVE",
"477 439 OFFCURVE",
"533 593 CURVE",
"533 280 LINE",
"190 280 LINE"
);
}
);
width = 871;
},
{
associatedMasterId = "6BCBDBF6-8315-4194-A290-F71994A92467";
layerId = "4D343D58-1D35-4523-A496-81CC78F89FAC";
name = "5 Feb 21, 21:35";
paths = (
{
closed = 1;
nodes = (
"531 161 LINE",
"531 0 LINE",
"681 0 LINE",
"681 161 LINE",
"811 161 LINE",
"811 280 LINE",
"681 280 LINE",
"681 750 LINE",
"526 750 LINE",
"479 612 OFFCURVE",
"415 500 OFFCURVE",
"78 269 CURVE",
"78 161 LINE"
);
},
{
closed = 1;
nodes = (
"383 360 OFFCURVE",
"520 524 OFFCURVE",
"533 630 CURVE",
"533 280 LINE",
"261 280 LINE"
);
}
);
width = 871;
},
{
associatedMasterId = "6BCBDBF6-8315-4194-A290-F71994A92467";
layerId = "C5BE08DB-22EA-4198-9CCD-B2E2D50898CC";
name = "6 Feb 21, 04:10";
paths = (
{
closed = 1;
nodes = (
"504 161 LINE",
"504 0 LINE",
"654 0 LINE",
"654 161 LINE",
"804 161 LINE",
"804 280 LINE",
"654 280 LINE",
"654 760 LINE",
"458 760 LINE",
"403 593 OFFCURVE",
"234 389 OFFCURVE",
"40 269 CURVE",
"40 161 LINE"
);
},
{
closed = 1;
nodes = (
"329 330 OFFCURVE",
"450 439 OFFCURVE",
"506 707 CURVE",
"506 280 LINE",
"254 280 LINE"
);
}
);
width = 844;
}
);
leftKerningGroup = four;
note = "\012four\012";
rightKerningGroup = four;
unicode = 0034;
},
{
color = 3;
glyphname = five;
lastChange = "2021-05-02 21:54:42 +0000";
layers = (
{
associatedMasterId = "6BCBDBF6-8315-4194-A290-F71994A92467";
layerId = "D07876C0-D168-4D1D-AECB-DC1CFDC8B0F4";
name = foreground;
paths = (
{
closed = 1;
nodes = (
"124 9 OFFCURVE",
"252 -19 OFFCURVE",
"376 -19 CURVE SMOOTH",
"584 -19 OFFCURVE",
"723 76 OFFCURVE",
"723 221 CURVE SMOOTH",
"723 333 OFFCURVE",
"623 447 OFFCURVE",
"422 447 CURVE SMOOTH",
"184 447 LINE",
"184 640 LINE",
"682 640 LINE",
"682 750 LINE",
"71 750 LINE",
"71 343 LINE",
"383 343 LINE SMOOTH",
"543 343 OFFCURVE",
"602 294 OFFCURVE",
"602 221 CURVE SMOOTH",
"602 144 OFFCURVE",
"512 92 OFFCURVE",
"376 92 CURVE SMOOTH",
"242 92 OFFCURVE",
"114 126 OFFCURVE",
"55 177 CURVE",
"55 51 LINE"
);
}
);
width = 614;
},
{
associatedMasterId = "6BCBDBF6-8315-4194-A290-F71994A92467";
layerId = "FFECC099-B55B-4111-8416-931D19D869F7";
name = "4 Mar 21, 02:26";
paths = (
{
closed = 1;
nodes = (
"130 8 OFFCURVE",
"237 -19 OFFCURVE",
"372 -19 CURVE SMOOTH",
"587 -19 OFFCURVE",
"719 65 OFFCURVE",
"719 227 CURVE SMOOTH",
"719 364 OFFCURVE",
"592 462 OFFCURVE",
"415 462 CURVE SMOOTH",
"324 462 OFFCURVE",
"250 434 OFFCURVE",
"211 387 CURVE",
"211 624 LINE",
"680 624 LINE",
"680 750 LINE",
"76 750 LINE",
"76 343 LINE",
"368 343 LINE SMOOTH",
"494 343 OFFCURVE",
"569 307 OFFCURVE",
"569 231 CURVE SMOOTH",
"569 154 OFFCURVE",
"492 113 OFFCURVE",
"361 113 CURVE SMOOTH",
"227 113 OFFCURVE",
"120 147 OFFCURVE",
"50 179 CURVE",
"50 41 LINE"
);
}
);
width = 764;
},
{
associatedMasterId = "6BCBDBF6-8315-4194-A290-F71994A92467";
layerId = "956CCA22-98A8-4F7C-A439-5389374DC0C8";
name = "17 Mar 21, 02:03";
paths = (
{
closed = 1;
nodes = (
"130 8 OFFCURVE",
"237 -19 OFFCURVE",
"372 -19 CURVE SMOOTH",
"587 -19 OFFCURVE",
"719 65 OFFCURVE",
"719 227 CURVE SMOOTH",
"719 364 OFFCURVE",
"592 462 OFFCURVE",
"415 462 CURVE SMOOTH",
"324 462 OFFCURVE",
"250 434 OFFCURVE",
"211 387 CURVE",
"211 624 LINE",
"680 624 LINE",
"680 750 LINE",
"76 750 LINE",
"76 343 LINE",
"166 292 LINE",
"214 325 OFFCURVE",
"279 343 OFFCURVE",
"368 343 CURVE SMOOTH",
"495 343 OFFCURVE",
"569 307 OFFCURVE",
"569 231 CURVE SMOOTH",
"569 154 OFFCURVE",
"492 113 OFFCURVE",
"361 113 CURVE SMOOTH",
"227 113 OFFCURVE",
"120 147 OFFCURVE",
"50 179 CURVE",
"50 41 LINE"
);
}
);
width = 764;
},
{
associatedMasterId = "6BCBDBF6-8315-4194-A290-F71994A92467";
layerId = "22B44FAC-4548-42B0-A755-2C6D1C1943EB";
name = "28 Mar 21, 00:02";
paths = (
{
closed = 1;
nodes = (
"130 8 OFFCURVE",
"237 -19 OFFCURVE",
"372 -19 CURVE SMOOTH",
"587 -19 OFFCURVE",
"719 65 OFFCURVE",
"719 227 CURVE SMOOTH",
"719 364 OFFCURVE",
"592 462 OFFCURVE",
"415 462 CURVE SMOOTH",
"324 462 OFFCURVE",
"250 434 OFFCURVE",
"211 387 CURVE",
"211 624 LINE",
"680 624 LINE",
"680 750 LINE",
"76 750 LINE",
"76 343 LINE",
"144 343 OFFCURVE",
"260 343 OFFCURVE",
"347 343 CURVE SMOOTH",
"499 343 OFFCURVE",
"569 305 OFFCURVE",
"569 231 CURVE SMOOTH",
"569 154 OFFCURVE",
"492 113 OFFCURVE",
"361 113 CURVE SMOOTH",
"227 113 OFFCURVE",
"120 147 OFFCURVE",
"50 179 CURVE",
"50 41 LINE"
);
}
);
width = 764;
},
{
layerId = "6BCBDBF6-8315-4194-A290-F71994A92467";
name = "150";
paths = (
{
closed = 1;
nodes = (
"161 2 OFFCURVE",
"271 -19 OFFCURVE",
"387 -19 CURVE SMOOTH",
"609 -19 OFFCURVE",
"734 70 OFFCURVE",
"734 227 CURVE SMOOTH",
"734 364 OFFCURVE",
"607 462 OFFCURVE",
"430 462 CURVE SMOOTH",
"345 462 OFFCURVE",
"272 440 OFFCURVE",
"226 407 CURVE",
"226 624 LINE",
"695 624 LINE",
"695 750 LINE",
"94 750 LINE",
"94 312 LINE",
"227 335 OFFCURVE",
"300 343 OFFCURVE",
"367 343 CURVE SMOOTH",
"515 343 OFFCURVE",
"584 304 OFFCURVE",
"584 231 CURVE SMOOTH",
"584 155 OFFCURVE",
"509 113 OFFCURVE",
"376 113 CURVE SMOOTH",
"269 113 OFFCURVE",
"158 136 OFFCURVE",
"65 179 CURVE",
"65 41 LINE"
);
}
);
width = 784;
}
);
leftKerningGroup = five;
note = "\012five\012";
rightKerningGroup = five;
unicode = 0035;
},
{
color = 3;
glyphname = six;
lastChange = "2021-05-02 21:54:42 +0000";
layers = (
{
layerId = "6BCBDBF6-8315-4194-A290-F71994A92467";
paths = (
{
closed = 1;
nodes = (
"278 305 OFFCURVE",
"367 338 OFFCURVE",
"470 338 CURVE SMOOTH",
"588 338 OFFCURVE",
"656 298 OFFCURVE",
"656 230 CURVE SMOOTH",
"656 161 OFFCURVE",
"585 116 OFFCURVE",
"477 116 CURVE SMOOTH",
"295 116 OFFCURVE",
"197 207 OFFCURVE",
"197 378 CURVE SMOOTH",
"197 545 OFFCURVE",
"306 645 OFFCURVE",
"506 645 CURVE SMOOTH",
"590 645 OFFCURVE",
"677 627 OFFCURVE",
"743 592 CURVE",
"740 732 LINE",
"677 755 OFFCURVE",
"581 770 OFFCURVE",
"499 770 CURVE SMOOTH",
"229 770 OFFCURVE",
"57 604 OFFCURVE",
"57 368 CURVE SMOOTH",
"57 123 OFFCURVE",
"213 -19 OFFCURVE",
"466 -19 CURVE SMOOTH",
"658 -19 OFFCURVE",
"796 90 OFFCURVE",
"796 241 CURVE SMOOTH",
"796 380 OFFCURVE",
"679 472 OFFCURVE",
"502 472 CURVE SMOOTH",
"368 472 OFFCURVE",
"273 418 OFFCURVE",
"192 341 CURVE",
"220 244 LINE"
);
}
);
width = 842;
},
{
associatedMasterId = "6BCBDBF6-8315-4194-A290-F71994A92467";
layerId = "2582AF1E-1CC0-4440-B5C2-F6B4A0505AEF";
name = foreground;
paths = (
{
closed = 1;
nodes = (
"60 297 OFFCURVE",
"84 205 OFFCURVE",
"120 150 CURVE SMOOTH",
"190 49 OFFCURVE",
"319 -19 OFFCURVE",
"441 -19 CURVE SMOOTH",
"653 -19 OFFCURVE",
"795 77 OFFCURVE",
"795 221 CURVE SMOOTH",
"795 360 OFFCURVE",
"675 452 OFFCURVE",
"494 452 CURVE SMOOTH",
"378 452 OFFCURVE",
"251 426 OFFCURVE",
"186 358 CURVE",
"184 374 OFFCURVE",
"183 389 OFFCURVE",
"183 403 CURVE SMOOTH",
"183 478 OFFCURVE",
"215 551 OFFCURVE",
"264 592 CURVE SMOOTH",
"317 637 OFFCURVE",
"406 667 OFFCURVE",
"487 667 CURVE SMOOTH",
"585 667 OFFCURVE",
"694 634 OFFCURVE",
"761 584 CURVE",
"761 706 LINE",
"698 747 OFFCURVE",
"586 774 OFFCURVE",
"482 774 CURVE SMOOTH",
"384 774 OFFCURVE",
"270 736 OFFCURVE",
"197 679 CURVE SMOOTH",
"115 614 OFFCURVE",
"60 494 OFFCURVE",
"60 379 CURVE SMOOTH"
);
},
{
closed = 1;
nodes = (
"249 310 OFFCURVE",
"351 348 OFFCURVE",
"462 348 CURVE SMOOTH",
"589 348 OFFCURVE",
"674 297 OFFCURVE",
"674 221 CURVE SMOOTH",
"674 142 OFFCURVE",
"589 90 OFFCURVE",
"462 90 CURVE SMOOTH",
"348 90 OFFCURVE",
"248 150 OFFCURVE",
"212 239 CURVE SMOOTH",
"207 253 LINE"
);
}
);
width = 614;
},
{
associatedMasterId = "6BCBDBF6-8315-4194-A290-F71994A92467";
layerId = "519E6C7D-0E2B-4618-BC35-689690788AFB";
name = "6 Feb 21, 04:14";
paths = (
{
closed = 1;
nodes = (
"262 306 OFFCURVE",
"352 338 OFFCURVE",
"453 338 CURVE SMOOTH",
"571 338 OFFCURVE",
"639 298 OFFCURVE",
"639 230 CURVE SMOOTH",
"639 159 OFFCURVE",
"565 116 OFFCURVE",
"460 116 CURVE SMOOTH",
"286 116 OFFCURVE",
"180 220 OFFCURVE",
"180 378 CURVE SMOOTH",
"180 553 OFFCURVE",
"298 645 OFFCURVE",
"473 645 CURVE SMOOTH",
"570 645 OFFCURVE",
"659 612 OFFCURVE",
"726 562 CURVE",
"726 702 LINE",
"653 743 OFFCURVE",
"552 770 OFFCURVE",
"456 770 CURVE SMOOTH",
"215 770 OFFCURVE",
"40 607 OFFCURVE",
"40 368 CURVE SMOOTH",
"40 138 OFFCURVE",
"202 -19 OFFCURVE",
"449 -19 CURVE SMOOTH",
"634 -19 OFFCURVE",
"779 85 OFFCURVE",
"779 241 CURVE SMOOTH",
"779 384 OFFCURVE",
"657 472 OFFCURVE",
"485 472 CURVE SMOOTH",
"366 472 OFFCURVE",
"265 432 OFFCURVE",
"178 298 CURVE",
"203 244 LINE"
);
}
);
width = 836;
},
{
associatedMasterId = "6BCBDBF6-8315-4194-A290-F71994A92467";
layerId = "BDB5896F-4764-4729-A040-438356D25897";
name = "6 Feb 21, 04:15";
paths = (
{
closed = 1;
nodes = (
"261 305 OFFCURVE",
"350 338 OFFCURVE",
"453 338 CURVE SMOOTH",
"571 338 OFFCURVE",
"639 298 OFFCURVE",
"639 230 CURVE SMOOTH",
"639 161 OFFCURVE",
"568 116 OFFCURVE",
"460 116 CURVE SMOOTH",
"289 116 OFFCURVE",
"180 218 OFFCURVE",
"180 378 CURVE SMOOTH",
"180 545 OFFCURVE",
"289 645 OFFCURVE",
"473 645 CURVE SMOOTH",
"564 645 OFFCURVE",
"654 615 OFFCURVE",
"726 562 CURVE",
"726 702 LINE",
"650 744 OFFCURVE",
"549 770 OFFCURVE",
"456 770 CURVE SMOOTH",
"212 770 OFFCURVE",
"40 604 OFFCURVE",
"40 368 CURVE SMOOTH",
"40 136 OFFCURVE",
"204 -19 OFFCURVE",
"449 -19 CURVE SMOOTH",
"641 -19 OFFCURVE",
"779 90 OFFCURVE",
"779 241 CURVE SMOOTH",
"779 380 OFFCURVE",
"662 472 OFFCURVE",
"485 472 CURVE SMOOTH",
"351 472 OFFCURVE",
"256 418 OFFCURVE",
"178 298 CURVE",
"203 244 LINE"
);
}
);
width = 836;
}
);
leftKerningGroup = six;
note = "\012six\012";
rightKerningGroup = six;
unicode = 0036;
},
{
color = 3;
glyphname = seven;
lastChange = "2021-05-02 21:54:42 +0000";
layers = (
{
layerId = "6BCBDBF6-8315-4194-A290-F71994A92467";
paths = (
{
closed = 1;
nodes = (
"595 622 LINE",
"577 675 LINE",
"94 0 LINE",
"267 0 LINE",
"700 622 LINE",
"700 750 LINE",
"30 750 LINE",
"30 622 LINE"
);
}
);
width = 740;
},
{
associatedMasterId = "6BCBDBF6-8315-4194-A290-F71994A92467";
layerId = "270F66A0-3112-44D0-947E-1F7837166697";
name = foreground;
paths = (
{
closed = 1;
nodes = (
"540 638 LINE",
"66 0 LINE",
"218 0 LINE",
"691 650 LINE",
"691 748 LINE",
"30 748 LINE",
"30 638 LINE"
);
}
);
width = 614;
},
{
associatedMasterId = "6BCBDBF6-8315-4194-A290-F71994A92467";
layerId = "26985F3E-3633-460D-ABB3-CEB3A668718C";
name = "28 Mar 21, 00:04";
paths = (
{
closed = 1;
nodes = (
"528 620 LINE",
"94 0 LINE",
"267 0 LINE",
"700 622 LINE",
"700 750 LINE",
"30 750 LINE",
"30 620 LINE"
);
}
);
width = 740;
}
);
leftKerningGroup = seven;
note = "\012seven\012";
rightKerningGroup = seven;
unicode = 0037;
},
